<svg xmlns="http://www.w3.org/2000/svg" viewBox="0 0 33.86 31.6"><defs><style>.a{fill:none;stroke:#fff;stroke-linecap:round;stroke-linejoin:round;stroke-width:2px;}.b{fill:#fff;}</style></defs><title>icon-chiffre2-white</title><rect class="a" x="1" y="10.93" width="20" height="19.67"/><polyline class="a" points="17.77 10.93 17.77 1 32.86 1 32.86 30.6 21 30.6"/><polygon class="b" points="7.39 14.82 4.23 14.82 4.23 17.98 7.39 17.98 7.39 14.82 7.39 14.82"/><polygon class="b" points="12.58 14.82 9.42 14.82 9.42 17.98 12.58 17.98 12.58 14.82 12.58 14.82"/><polygon class="b" points="17.77 14.82 14.61 14.82 14.61 17.98 17.77 17.98 17.77 14.82 17.77 14.82"/><polygon class="b" points="7.39 19.19 4.23 19.19 4.23 22.35 7.39 22.35 7.39 19.19 7.39 19.19"/><polygon class="b" points="12.58 19.19 9.42 19.19 9.42 22.35 12.58 22.35 12.58 19.19 12.58 19.19"/><polygon class="b" points="17.77 19.19 14.61 19.19 14.61 22.35 17.77 22.35 17.77 19.19 17.77 19.19"/><polygon class="b" points="17.77 24.22 14.61 24.22 14.61 27.38 17.77 27.38 17.77 24.22 17.77 24.22"/><polygon class="b" points="12.58 24.22 9.42 24.22 9.42 27.38 12.58 27.38 12.58 24.22 12.58 24.22"/><polygon class="b" points="7.39 24.22 4.23 24.22 4.23 27.38 7.39 27.38 7.39 24.22 7.39 24.22"/></svg>