<svg xmlns="http://www.w3.org/2000/svg" viewBox="0 0 21.39 17.75"><defs><style>.a{fill:#fff;}</style></defs><title>icon-recrutez</title><path class="a" d="M21.28,8.91,18.62,3.2a1.23,1.23,0,0,0-1.68-.57,4.33,4.33,0,0,1-1.85.57,1.45,1.45,0,0,1-.49-.08L14,2.91l0,0a12,12,0,0,0-3.29-1A1.4,1.4,0,0,0,10.2,2a1.27,1.27,0,0,0-.26.14l-.28.13a1.21,1.21,0,0,0-.51-.38L4.51.08A1.22,1.22,0,0,0,4.06,0L3.8,0C3.27.15,1.45.8.33,4.26a5.45,5.45,0,0,0,.57,5l0,.05a2.3,2.3,0,0,0,.13,2.07l.09.13,3.49,4.27A1.26,1.26,0,0,0,5,16a2.42,2.42,0,0,0,1.2.33,2.34,2.34,0,0,0,.85-.17l.3.34.11.11a3.8,3.8,0,0,0,2.48,1.12,2.49,2.49,0,0,0,1.46-.47l.15-.13a1.23,1.23,0,0,0,.39.14,3.18,3.18,0,0,0,.56.05,2.49,2.49,0,0,0,2-1,1.25,1.25,0,0,0,.16-.27,2.44,2.44,0,0,0,2.15-1.7,1.24,1.24,0,0,0,.05-.21l.08,0a2.73,2.73,0,0,0,1.46-2.44A5.7,5.7,0,0,0,21,10.33,1.23,1.23,0,0,0,21.28,8.91ZM5.61,15,2.12,10.68a1.08,1.08,0,0,1,0-1,1.23,1.23,0,0,0,.67-.31,1.75,1.75,0,0,1,1-.5h0a1.22,1.22,0,0,0,1.09.67.71.71,0,0,1,.54.17.65.65,0,0,1,.1.4,1.23,1.23,0,0,0,.91,1.19.6.6,0,0,1,.36.2s.05.09,0,.28a1.23,1.23,0,0,0,.65,1.39.34.34,0,0,1,.15.11s0,.17-.06.26a3,3,0,0,1-.52.76,1.22,1.22,0,0,0-.33.69,1.11,1.11,0,0,1-.42.09A1.21,1.21,0,0,1,5.61,15Zm10.76-1.87L12.92,9.92a.57.57,0,0,0-.78.84L15.67,14a1.25,1.25,0,0,1-1.22.89l-3-2.71a.57.57,0,1,0-.78.84l2.83,2.6a1.25,1.25,0,0,1-1,.49,2,2,0,0,1-.35,0L10.44,14.5a.57.57,0,0,0-.77.84l1,.94a1.25,1.25,0,0,1-.75.24,2.66,2.66,0,0,1-1.67-.81l-.2-.23A4.63,4.63,0,0,0,8.9,14.3a1.75,1.75,0,0,0-.56-2.38,1.86,1.86,0,0,0-.23-1.18A2,2,0,0,0,7,9.88a2.09,2.09,0,0,0-.43-1.12A2.16,2.16,0,0,0,5,8a1.62,1.62,0,0,0-.16-.2,1.59,1.59,0,0,0-1.17-.48,3.21,3.21,0,0,0-2,.88A4.34,4.34,0,0,1,1.5,4.63C2.45,1.7,3.84,1.28,4.06,1.23L8.19,2.81l-1.38.51a1.72,1.72,0,0,0-1.17.87,1.82,1.82,0,0,0,.11,1.76A2.53,2.53,0,0,0,8.2,7.07a9.55,9.55,0,0,0,2.19-.29,2.41,2.41,0,0,1,.46.08,57.89,57.89,0,0,0,5.48,4.69l.18.08a3.42,3.42,0,0,0,.66.14A1.52,1.52,0,0,1,16.36,13.08Zm1.7-2.54a1.23,1.23,0,0,0-.72-.36l-.3-.06a55.25,55.25,0,0,1-5.17-4.49,1.24,1.24,0,0,0-.5-.28,3.93,3.93,0,0,0-1-.16h-.17l-.21,0a7.91,7.91,0,0,1-1.8.25c-.54,0-1-.11-1-.28a.6.6,0,0,1-.09-.29h0l.1,0,.17,0,1.81-.67a1.22,1.22,0,0,0,.67-.66,5,5,0,0,0,.81-.37h.05A15.31,15.31,0,0,1,13.53,4l.64.24a2.68,2.68,0,0,0,.91.15,5.42,5.42,0,0,0,2.42-.71l2.66,5.7A4.43,4.43,0,0,1,18.06,10.54Z"/></svg>