<svg xmlns="http://www.w3.org/2000/svg" viewBox="0 0 58.5 45.81"><defs><style>.a{fill:#f36f23;}</style></defs><title>item1</title><path class="a" d="M29.26,21.3c-5.24,0-9.5-4.78-9.5-10.65S24,0,29.26,0s9.5,4.78,9.5,10.65S34.49,21.3,29.26,21.3ZM29.26,4c-3.06,0-5.54,3-5.54,6.69s2.49,6.69,5.54,6.69,5.54-3,5.54-6.69S32.31,4,29.26,4Z"/><path class="a" d="M28.81,45.81h-14a2,2,0,0,1-2-1.84l-.64-9.34C11.93,31.18,14.6,27.22,18,26a33.33,33.33,0,0,1,8.14-1.8,2,2,0,0,1,2.14,1.7l2.49,17.7a2,2,0,0,1-2,2.26Zm-12.19-4h9.91l-1.9-13.51a29.12,29.12,0,0,0-5.29,1.34,5.45,5.45,0,0,0-3.23,4.67l.51,7.49Z"/><path class="a" d="M43.73,45.81h-14a2,2,0,0,1-2-2.26l2.5-17.7a2,2,0,0,1,2.14-1.7A33.36,33.36,0,0,1,40.5,26c3.42,1.26,6.09,5.22,5.85,8.67L45.71,44a2,2,0,0,1-2,1.85ZM32,41.85h9.92l.51-7.49a5.42,5.42,0,0,0-3.25-4.68,29,29,0,0,0-5.27-1.34L32,41.85Z"/><path class="a" d="M34.78,44.49a1,1,0,0,1-.35-.06,1,1,0,0,1-.58-1.27L36.15,37l-1.87-2.88a1,1,0,0,1,.53-1.48l2.25-.71L36,27.4a1,1,0,0,1,1.93-.47l1.32,5.44a1,1,0,0,1-.67,1.18l-1.89.6,1.44,2.21a1,1,0,0,1,.1.89l-2.47,6.6a1,1,0,0,1-.93.64Z"/><path class="a" d="M23.73,44.49a1,1,0,0,1-.93-.64l-2.47-6.6a1,1,0,0,1,.1-.89l1.44-2.21L20,33.55a1,1,0,0,1-.67-1.18l1.32-5.44a1,1,0,0,1,1.93.47l-1.1,4.54,2.25.71a1,1,0,0,1,.53,1.48L22.35,37l2.3,6.13a1,1,0,0,1-.58,1.27,1,1,0,0,1-.35.06Z"/><path class="a" d="M10.29,35l-6,.1L4,29.82a3.64,3.64,0,0,1,2.16-3.08,21.68,21.68,0,0,1,6.94-1.26,2,2,0,0,0,1.94-2,2,2,0,0,0-2-1.94A25.69,25.69,0,0,0,4.77,23,7.52,7.52,0,0,0,0,30.09l.48,7.1a2,2,0,0,0,2,1.84H10.6C10.46,37.31,10.45,36.22,10.29,35Z"/><path class="a" d="M10.28,19.41c-3.94,0-7.14-3.55-7.14-7.93s3.2-7.93,7.14-7.93,7.14,3.56,7.14,7.93-3.2,7.93-7.14,7.93Zm0-11.89c-1.75,0-3.18,1.78-3.18,4s1.43,4,3.18,4,3.18-1.78,3.18-4-1.43-4-3.18-4Z"/><path class="a" d="M48.21,35l6,.1.36-5.25a3.64,3.64,0,0,0-2.16-3.08,21.68,21.68,0,0,0-6.94-1.26,2,2,0,0,1-1.94-2,2,2,0,0,1,2-1.94A25.69,25.69,0,0,1,53.73,23a7.52,7.52,0,0,1,4.76,7.07L58,37.19A2,2,0,0,1,56,39H47.9C48,37.31,48.05,36.22,48.21,35Z"/><path class="a" d="M48.21,19.41c-3.94,0-7.14-3.55-7.14-7.93s3.2-7.93,7.14-7.93,7.14,3.56,7.14,7.93-3.2,7.93-7.14,7.93Zm0-11.89c-1.75,0-3.18,1.78-3.18,4s1.43,4,3.18,4,3.18-1.78,3.18-4-1.43-4-3.18-4Z"/></svg>