<svg xmlns="http://www.w3.org/2000/svg" width="24.389" height="26.056" viewBox="0 0 24.389 26.056"><path fill="#fff" d="M1 26.056c-.2 0-.4-.06-.568-.178-.27-.187-.432-.494-.432-.822V5.226c0-.415.258-.788.646-.935L11.84.065c.31-.114.653-.073.923.113.27.187.432.495.432.823v19.83c0 .415-.258.788-.646.935L1.353 25.99c-.116.044-.235.066-.354.066zM2 5.918v17.69l9.195-3.47V2.445L2 5.918zM3.313 10.047c-.202 0-.393-.123-.468-.323-.098-.26.033-.547.29-.645L9.82 6.555c.26-.095.548.032.645.29.098.26-.033.548-.29.646L3.49 10.015c-.06.02-.12.032-.177.032zM3.313 16.485c-.202 0-.393-.123-.468-.323-.098-.26.033-.547.29-.645l6.683-2.523c.263-.096.548.032.645.29.098.26-.033.548-.29.646L3.49 16.453c-.06.022-.12.032-.177.032zM3.313 19.705c-.202 0-.393-.123-.468-.323-.098-.26.033-.547.29-.645l6.685-2.523c.26-.095.548.033.645.29.098.26-.033.548-.29.646L3.49 19.673c-.06.02-.12.032-.177.032zM3.313 13.267c-.202 0-.393-.123-.468-.323-.098-.26.033-.547.29-.645L9.82 9.775c.263-.095.548.032.645.29.098.26-.033.548-.29.646L3.49 13.235c-.06.02-.12.032-.177.032zM19.277 24.003c-.276 0-.5-.224-.5-.5v-5.796c0-.164.08-.318.216-.41.136-.095.307-.115.46-.058l4.112 1.552c.258.098.39.386.29.645-.096.258-.383.387-.644.29l-3.434-1.296v5.073c0 .276-.222.5-.5.5zM19.277 24.503c-.12 0-.238-.02-.354-.064l-7.082-2.675c-.388-.146-.645-.52-.645-.936V1c0-.328.16-.636.432-.822.27-.188.615-.23.922-.113L23.74 4.29c.39.148.646.52.646.937l.002 14.033c0 .26-.1.51-.282.696l-4.11 4.243c-.192.196-.453.303-.72.303zm-6.082-4.365l5.82 2.197 3.373-3.48V5.918l-9.192-3.472v17.692zM21.303 10.134c-.06 0-.118-.01-.177-.032l-6.682-2.524c-.258-.098-.39-.386-.29-.645.096-.26.384-.388.644-.29l6.682 2.523c.258.098.39.386.29.645-.075.2-.265.324-.467.324zM21.303 16.57c-.06 0-.118-.01-.177-.03l-6.682-2.524c-.258-.098-.39-.386-.29-.645.096-.258.384-.387.644-.29l6.682 2.523c.258.098.39.386.29.645-.075.2-.265.323-.467.323zM21.303 13.353c-.06 0-.118-.01-.177-.032L14.444 10.8c-.258-.098-.39-.386-.29-.645.096-.258.384-.388.644-.29l6.682 2.522c.258.098.39.386.29.645-.075.2-.265.323-.467.323z"/></svg>