<?xml version="1.0" encoding="utf-8"?>
<!-- Generator: Adobe Illustrator 21.0.0, SVG Export Plug-In . SVG Version: 6.00 Build 0)  -->
<svg version="1.1" id="Layer_3" xmlns="http://www.w3.org/2000/svg" xmlns:xlink="http://www.w3.org/1999/xlink" x="0px" y="0px"
	 viewBox="0 0 20.5 24.3" style="enable-background:new 0 0 20.5 24.3;" xml:space="preserve">
<style type="text/css">
	.st0{fill:#FFFFFF;}
</style>
<g>
	<g>
		<path class="st0" d="M10.3,24.3c-0.2,0-0.5-0.1-0.6-0.2C8.6,23.2,0,15.7,0,10.3C0,4.6,4.6,0,10.3,0c5.7,0,10.3,4.6,10.3,10.3
			c0,5.4-8.6,12.9-9.6,13.8C10.7,24.2,10.5,24.3,10.3,24.3L10.3,24.3z M10.3,2C5.7,2,2,5.7,2,10.3c0,3.5,5.5,9.2,8.3,11.7
			c2.8-2.5,8.3-8.2,8.3-11.7C18.5,5.7,14.8,2,10.3,2L10.3,2z"/>
	</g>
	<g>
		<g>
			<path class="st0" d="M10.3,16.5c-3.4,0-6.2-2.8-6.2-6.2C4,6.8,6.8,4,10.3,4c3.4,0,6.2,2.8,6.2,6.2C16.5,13.7,13.7,16.5,10.3,16.5
				L10.3,16.5z M10.3,5C7.4,5,5,7.4,5,10.3c0,2.9,2.3,5.2,5.2,5.2c2.9,0,5.2-2.3,5.2-5.2C15.5,7.4,13.1,5,10.3,5L10.3,5z"/>
		</g>
	</g>
	<g>
		<path class="st0" d="M10.3,6.9c-1.9,0-3.4,1.5-3.4,3.4c0,1.9,1.5,3.4,3.4,3.4c1.9,0,3.4-1.5,3.4-3.4C13.6,8.4,12.1,6.9,10.3,6.9
			L10.3,6.9z"/>
	</g>
</g>
</svg>
