<svg xmlns="http://www.w3.org/2000/svg" viewBox="0 0 23.75 23.75"><defs><style>.a{fill:#f36f23;}</style></defs><title>item3</title><path class="a" d="M11.87,23.75A11.87,11.87,0,1,1,23.75,11.87,11.89,11.89,0,0,1,11.87,23.75ZM11.87,2a9.87,9.87,0,1,0,9.87,9.87A9.89,9.89,0,0,0,11.87,2Z"/><path class="a" d="M11.87,23.25c-3.74,0-6.79-5.1-6.79-11.37S8.13.5,11.87.5s6.79,5.1,6.79,11.37-3,11.37-6.79,11.37Zm0-21.75c-3.19,0-5.79,4.65-5.79,10.37s2.6,10.37,5.79,10.37,5.79-4.65,5.79-10.37S15.07,1.5,11.87,1.5Z"/><path class="a" d="M11.87,23.25a.5.5,0,0,1-.5-.5V1a.5.5,0,0,1,.5-.5,11.37,11.37,0,0,1,0,22.75Zm.5-21.74V22.24a10.38,10.38,0,0,0,0-20.73Z"/><path class="a" d="M22,16.21H1.71a.5.5,0,0,1-.47-.32,11.24,11.24,0,0,1,0-8,.5.5,0,0,1,.47-.32H22a.5.5,0,0,1,.47.32,11.23,11.23,0,0,1,0,8,.5.5,0,0,1-.47.32Zm-20-1H21.69a10.19,10.19,0,0,0,0-6.67H2.06a10.21,10.21,0,0,0,0,6.67Z"/></svg>