<svg xmlns="http://www.w3.org/2000/svg" viewBox="0 0 23.83 23.83"><defs><style>.a{fill:#fff;}</style></defs><title>icon-augmentez</title><path class="a" d="M22.83,23.83H1a1,1,0,0,1-1-1V1A1,1,0,0,1,2,1V21.83H22.83a1,1,0,0,1,0,2Z"/><path class="a" d="M1.33,23.45A1,1,0,0,1,.5,21.89l5.25-7.83A1,1,0,0,1,7,13.72l1.72.86L12,7.05a1,1,0,0,1,1.23-.55l1.92.64L22,.48a1,1,0,1,1,1.39,1.43L16.11,9a1,1,0,0,1-1,.23l-1.63-.54-3.3,7.66a1,1,0,0,1-1.37.5l-1.88-.94L2.16,23a1,1,0,0,1-.83.44Z"/><path class="a" d="M22.83,9.22a1,1,0,0,1-1-1V2H15.62a1,1,0,0,1,0-2h7.22a1,1,0,0,1,1,1V8.22a1,1,0,0,1-1,1Z"/><path class="a" d="M5.25,23.28a.5.5,0,0,1-.5-.5V20.62a.5.5,0,0,1,1,0v2.17a.5.5,0,0,1-.5.5Z"/><path class="a" d="M9.52,23.28a.5.5,0,0,1-.5-.5V20.62a.5.5,0,0,1,1,0v2.17a.5.5,0,0,1-.5.5Z"/><path class="a" d="M13.79,23.28a.5.5,0,0,1-.5-.5V20.62a.5.5,0,0,1,1,0v2.17a.5.5,0,0,1-.5.5Z"/><path class="a" d="M18.06,23.28a.5.5,0,0,1-.5-.5V20.62a.5.5,0,0,1,1,0v2.17a.5.5,0,0,1-.5.5Z"/><path class="a" d="M22.33,23.28a.5.5,0,0,1-.5-.5V20.62a.5.5,0,0,1,1,0v2.17a.5.5,0,0,1-.5.5Z"/><path class="a" d="M3.21,2.08H1a.5.5,0,1,1,0-1H3.21a.5.5,0,1,1,0,1Z"/><path class="a" d="M3.21,6.35H1a.5.5,0,1,1,0-1H3.21a.5.5,0,1,1,0,1Z"/><path class="a" d="M3.21,10.62H1a.5.5,0,1,1,0-1H3.21a.5.5,0,1,1,0,1Z"/><path class="a" d="M3.21,14.89H1a.5.5,0,1,1,0-1H3.21a.5.5,0,1,1,0,1Z"/><path class="a" d="M3.21,19.16H1a.5.5,0,1,1,0-1H3.21a.5.5,0,1,1,0,1Z"/></svg>