<svg xmlns="http://www.w3.org/2000/svg" viewBox="0 0 24.66 13.23"><defs><style>.a{fill:#ec6501;}</style></defs><title>icon-quote</title><path class="a" d="M5.52,13.23V11.45a5.83,5.83,0,0,1-4-1.72A5.38,5.38,0,0,1,0,5.81,5.67,5.67,0,0,1,1.65,1.67,5.51,5.51,0,0,1,5.74,0a5.29,5.29,0,0,1,4,1.68,5.81,5.81,0,0,1,1.61,4.17,7.22,7.22,0,0,1-1.57,4.59A8.14,8.14,0,0,1,5.52,13.23Zm13.33,0V11.45a5.83,5.83,0,0,1-4-1.72,5.38,5.38,0,0,1-1.54-3.92A5.67,5.67,0,0,1,15,1.67,5.51,5.51,0,0,1,19.07,0a5.29,5.29,0,0,1,4,1.68,5.81,5.81,0,0,1,1.61,4.17,7.22,7.22,0,0,1-1.57,4.59A8.14,8.14,0,0,1,18.85,13.23Z"/></svg>