<svg xmlns="http://www.w3.org/2000/svg" width="22" height="22" viewBox="0 0 22 22">
  <path d="M21.2025518,21.2078789 L21.2025518,21.2069902 L21.2078789,21.2069902 L21.2078789,13.384736 C21.2078789,9.55803451 20.3848474,6.61024796 15.9154402,6.61024796 C13.7668574,6.61024796 12.3249986,7.79042901 11.736358,8.90929041 L11.6742089,8.90929041 L11.6742089,6.96750156 L7.43652896,6.96750156 L7.43652896,21.2069902 L11.8491142,21.2069902 L11.8491142,14.1561194 C11.8491142,12.2996448 12.2007004,10.5044899 14.4975531,10.5044899 C16.7606678,10.5044899 16.7944058,12.6231282 16.7944058,14.2752039 L16.7944058,21.2078789 L21.2025518,21.2078789 Z"/>
  <polygon points=".275 7.161 4.682 7.161 4.682 21.208 .275 21.208"/>
  <path d="M2.47884299,0 C1.11040468,0 0,1.16662905 0,2.60435703 C0,4.04208501 1.11040468,5.23311297 2.47884299,5.23311297 C3.84728129,5.23311297 4.95768597,4.04208501 4.95768597,2.60435703 C4.95682586,1.16662905 3.84642118,0 2.47884299,0 Z"/>
</svg>
