<svg xmlns="http://www.w3.org/2000/svg" viewBox="0 0 22 24.08"><defs><style>.a{fill:#4f453c;}</style></defs><title>icon-lock</title><path class="a" d="M20,24.08H2a2,2,0,0,1-2-2V11.42a2,2,0,0,1,2-2H20a2,2,0,0,1,2,2V22.08a2,2,0,0,1-2,2ZM2,11.42V22.08H20V11.42Z"/><path class="a" d="M17.42,11.17a1,1,0,0,1-1-1V7.42a5.42,5.42,0,1,0-10.83,0v2.75a1,1,0,0,1-2,0V7.42a7.42,7.42,0,1,1,14.83,0v2.75a1,1,0,0,1-1,1Z"/><path class="a" d="M11,13.34a2.08,2.08,0,0,0-1,3.9v2.35h2V17.24a2.08,2.08,0,0,0-1-3.9Z"/></svg>