<svg xmlns="http://www.w3.org/2000/svg" viewBox="0 0 29.04 22.99"><defs><style>.a{fill:#fff;}</style></defs><title>icon-estimate</title><path class="a" d="M13.32,13c.18,1.88.79,2.82,1.81,2.82a2.07,2.07,0,0,0,1-.27,2.71,2.71,0,0,0,.91-1.29,2.26,2.26,0,0,1,.49-.82.69.69,0,0,1,.44-.16,1,1,0,0,1,.74.27,1.06,1.06,0,0,1,.26.76,2.82,2.82,0,0,1-1.13,2.13,4,4,0,0,1-2.74,1,3.63,3.63,0,0,1-2.63-1.1A5.17,5.17,0,0,1,11.17,13h-1c-.09,0-.14-.07-.14-.2a1.19,1.19,0,0,1,.15-.5c.1-.2.18-.3.25-.3h.68v-.29c0-.23,0-.56,0-1h-1c-.09,0-.14-.07-.14-.2a1.2,1.2,0,0,1,.15-.51c.1-.2.18-.3.25-.3h.79q.51-4.09,3.86-4.09a4.27,4.27,0,0,1,2.55.76,2.26,2.26,0,0,1,1.07,1.89.94.94,0,0,1-.25.65.82.82,0,0,1-.61.27A.76.76,0,0,1,17.24,9a2.33,2.33,0,0,1-.37-.63,2.33,2.33,0,0,0-.54-.85,1.53,1.53,0,0,0-1.07-.29,1.58,1.58,0,0,0-1.33.6,3.73,3.73,0,0,0-.6,1.89h2.53c.1,0,.15.07.15.2a1.18,1.18,0,0,1-.14.5c-.1.19-.19.29-.26.29H13.27l0,.77c0,.24,0,.41,0,.51h2.6c.1,0,.15.07.15.19a1.19,1.19,0,0,1-.14.51c-.1.19-.19.29-.26.29Z"/><path class="a" d="M7.53,14.06a1,1,0,0,1-.67-.26l-2.6-2.33L1.67,13.8A1,1,0,0,1,.33,12.31L3.6,9.39a1,1,0,0,1,1.34,0L8.2,12.32a1,1,0,0,1-.67,1.74Z"/><path class="a" d="M14.5,23A11.39,11.39,0,0,1,3.11,11.6a1,1,0,0,1,1-1h0a1,1,0,0,1,1,1,9.39,9.39,0,0,0,17.32,5,1,1,0,0,1,1.69,1.07A11.34,11.34,0,0,1,14.5,23Z"/><path class="a" d="M24.83,12.39a1,1,0,0,1-1-1,9.39,9.39,0,0,0-17.32-5A1,1,0,1,1,4.82,5.29a11.39,11.39,0,0,1,21,6.1,1,1,0,0,1-1,1Z"/><path class="a" d="M24.77,13.86a1,1,0,0,1-.67-.26l-3.26-2.93a1,1,0,1,1,1.34-1.49l2.6,2.33,2.6-2.33a1,1,0,1,1,1.34,1.49L25.44,13.6a1,1,0,0,1-.67.26Z"/></svg>