<svg xmlns="http://www.w3.org/2000/svg" viewBox="0 0 25.3 20.93"><defs><style>.a{fill:#fff;}</style></defs><title>icon-heart-plus</title><path class="a" d="M19.09,20.93a6.21,6.21,0,1,1,6.21-6.21,6.22,6.22,0,0,1-6.21,6.21Zm0-11.42a5.21,5.21,0,1,0,5.21,5.21,5.21,5.21,0,0,0-5.21-5.21Z" transform="translate(0 0)"/><path class="a" d="M12,20.5a1,1,0,0,1-.48-.12l-.13-.08-.3-.21c-.74-.52-2.48-1.73-3.64-2.62C3,14,.76,11.55.34,9.66A7.19,7.19,0,0,1,0,7.52,7.61,7.61,0,0,1,2.12,2.11a6.5,6.5,0,0,1,4.62-2,6.65,6.65,0,0,1,5,2.16,6.69,6.69,0,0,1,5-2.28,6.43,6.43,0,0,1,4.67,1.87,7.7,7.7,0,0,1,1.95,7.59,4.15,4.15,0,0,1-.29.84l-1.82-.82A2.43,2.43,0,0,0,21.39,9a5.87,5.87,0,0,0,.24-1.73A5.6,5.6,0,0,0,20,3.31,4.43,4.43,0,0,0,16.74,2a4.76,4.76,0,0,0-4.1,2.46,1,1,0,0,1-.86.51.93.93,0,0,1-.87-.48,4.78,4.78,0,0,0-4.1-2.37H6.76A4.52,4.52,0,0,0,3.55,3.51,5.59,5.59,0,0,0,2,7.5a5.46,5.46,0,0,0,.26,1.64c.2.86,1.26,2.75,6.39,6.75,1,.78,2.52,1.84,3.34,2.4.48-.33,1-.75,1.7-1.26l1.23,1.58c-1,.76-1.77,1.33-2.4,1.74a1,1,0,0,1-.54.16Z" transform="translate(0 0)"/><path class="a" d="M19.09,18.48a1,1,0,0,1-1-1V12a1,1,0,0,1,2,0v5.53a1,1,0,0,1-1,1Z" transform="translate(0 0)"/><path class="a" d="M21.86,15.72H16.33a1,1,0,0,1,0-2h5.53a1,1,0,0,1,0,2Z" transform="translate(0 0)"/></svg>