<svg xmlns="http://www.w3.org/2000/svg" viewBox="0 0 23.63 23.63"><defs><style>.a{fill:#fff;}</style></defs><title>icon-plane</title><path class="a" d="M20.52,2a1.09,1.09,0,0,1,.8.3c1,1-.61,3.8-3.7,6.82L18.46,11a1,1,0,0,1,.66-.33.42.42,0,0,1,.31.12c.29.29.05.82-.52,1.22l.9,2a1,1,0,0,1,.64-.32.42.42,0,0,1,.31.12c.29.29.05.81-.51,1.21l1.13,2.57.16,2.5-6.75-8.52-.19.15c-2.37,1.86-4.55,3.5-6.22,4.69l-.22,5.16L6,18a2.61,2.61,0,0,1-.8.39h0c-.05-.06.09-.35.38-.84L2,15.47l5.17-.22C8.36,13.58,10,11.39,11.86,9L12,8.84,3.49,2.09,6,2.25,8.55,3.37a1.27,1.27,0,0,1,.9-.63.42.42,0,0,1,.31.12c.23.23.13.61-.2.95l2,.9a1.3,1.3,0,0,1,.92-.65.42.42,0,0,1,.31.13c.23.23.13.62-.21,1L14.51,6c2.42-2.47,4.69-4,6-4m0-2c-1.89,0-4.11,1.51-6,3.17a2.43,2.43,0,0,0-2-1.1,2.6,2.6,0,0,0-.84.14,2.38,2.38,0,0,0-.51-.76A2.42,2.42,0,0,0,9.46.75,2.7,2.7,0,0,0,8.23,1L6.79.41A2,2,0,0,0,6.11.25L3.61.09H3.48A2,2,0,0,0,2.24,3.66l7,5.52C8.07,10.65,7,12.06,6.11,13.3l-4.2.18A2,2,0,0,0,1,17.2L3.2,18.5a1.91,1.91,0,0,0,.57,1.31,2.09,2.09,0,0,0,1.36.62l1.3,2.21a2,2,0,0,0,3.72-.92l.18-4.2c1.25-.9,2.66-2,4.12-3.1l5.52,7A2,2,0,0,0,23.54,20l-.16-2.5a2,2,0,0,0-.17-.68l-.64-1.45a2.72,2.72,0,0,0,.3-1,2.42,2.42,0,0,0-1.46-2.45,2.55,2.55,0,0,0,.13-.61,2.43,2.43,0,0,0-.69-1.94,2.62,2.62,0,0,0-.39-.32C22.1,7.21,23.61,5,23.63,3.12A3,3,0,0,0,20.52,0Z"/></svg>