<svg xmlns="http://www.w3.org/2000/svg" viewBox="0 0 24.67 22.17"><defs><style>.a{fill:#fff;}</style></defs><title>icon-dopez</title><path class="a" d="M15.42,22.17a9.25,9.25,0,1,1,9.25-9.25,9.26,9.26,0,0,1-9.25,9.25Zm0-16.5a7.25,7.25,0,1,0,7.25,7.25,7.26,7.26,0,0,0-7.25-7.25Z"/><path class="a" d="M15.42,19a6.08,6.08,0,1,1,6.08-6.08A6.09,6.09,0,0,1,15.42,19Zm0-11.17a5.08,5.08,0,1,0,5.08,5.08,5.09,5.09,0,0,0-5.08-5.08Z"/><path class="a" d="M11.5,6.5H1a1,1,0,0,1,0-2H11.5a1,1,0,0,1,0,2Z"/><path class="a" d="M14.67,2H1A1,1,0,0,1,1,0H14.67a1,1,0,0,1,0,2Z"/><path class="a" d="M6.67,11H1A1,1,0,0,1,1,9H6.67a1,1,0,0,1,0,2Z"/><path class="a" d="M6.67,15.5H1a1,1,0,0,1,0-2H6.67a1,1,0,0,1,0,2Z"/><path class="a" d="M9.33,20H1a1,1,0,0,1,0-2H9.33a1,1,0,0,1,0,2Z"/><path class="a" d="M14.42,13.89q.17,1.73,1.11,1.73a1.27,1.27,0,0,0,.64-.17,1.67,1.67,0,0,0,.56-.79,1.38,1.38,0,0,1,.3-.5.42.42,0,0,1,.27-.1.6.6,0,0,1,.45.17.64.64,0,0,1,.16.46,1.72,1.72,0,0,1-.69,1.3,2.48,2.48,0,0,1-1.68.6,2.24,2.24,0,0,1-1.61-.67,3.18,3.18,0,0,1-.82-2H12.5c-.06,0-.09,0-.09-.12a.72.72,0,0,1,.09-.3c.06-.12.11-.18.15-.18h.41v-.17c0-.14,0-.34,0-.61H12.5c-.06,0-.09,0-.09-.12a.73.73,0,0,1,.09-.31c.06-.12.11-.18.15-.18h.48q.31-2.51,2.37-2.51a2.6,2.6,0,0,1,1.56.47A1.38,1.38,0,0,1,17.71,11a.57.57,0,0,1-.15.4.5.5,0,0,1-.38.16.46.46,0,0,1-.36-.12,1.34,1.34,0,0,1-.22-.38,1.49,1.49,0,0,0-.33-.52,1,1,0,0,0-.65-.18,1,1,0,0,0-.82.37,2.31,2.31,0,0,0-.37,1.16H16c.06,0,.1,0,.1.12a.69.69,0,0,1-.09.31c-.06.12-.11.18-.16.18H14.4V13c0,.14,0,.25,0,.31H16c.06,0,.1,0,.1.12a.7.7,0,0,1-.09.31c-.06.12-.11.18-.16.18Z"/></svg>