<svg xmlns="http://www.w3.org/2000/svg" width="21" height="21" viewBox="0 0 21 21">
  <path d="M10.2695787,4.99448521 C7.35826777,4.99448521 5.00132931,7.35399021 5.00132931,10.2627346 C5.00132931,13.1740455 7.36083431,15.530984 10.2695787,15.530984 C13.1808896,15.530984 15.5378281,13.171479 15.5378281,10.2627346 C15.5378281,7.35142367 13.1783231,4.99448521 10.2695787,4.99448521 Z M10.2695787,13.6822203 C8.37975036,13.6822203 6.85009302,12.1517074 6.85009302,10.2627346 C6.85009302,8.37376177 8.38060587,6.84324892 10.2695787,6.84324892 C12.1585515,6.84324892 13.6890647,8.37376177 13.6890647,10.2627346 C13.6899199,12.1517074 12.159407,13.6822203 10.2695787,13.6822203 L10.2695787,13.6822203 Z"/>
  <path d="M14.4992352,0.0650189921 C12.6102624,-0.0230988524 7.93146152,-0.0188212872 6.04077767,0.0650189921 C4.37937132,0.14287068 2.91387746,0.544106302 1.73241393,1.72556983 C-0.242110194,3.70009396 0.0102661566,6.36073955 0.0102661566,10.2627346 C0.0102661566,14.2562695 -0.212167237,16.8553182 1.73241393,18.7998994 C3.71463768,20.7812676 6.41378136,20.5220471 10.2695787,20.5220471 C14.2254711,20.5220471 15.5908699,20.5246137 16.9896337,19.9830739 C18.8914392,19.2447661 20.3269902,17.5448617 20.4672943,14.4915356 C20.5562677,12.6017073 20.5511346,7.9237619 20.4672943,6.03307805 C20.2979027,2.42880156 18.3635877,0.242965707 14.4992352,0.0650189921 Z M17.4892534,17.4935309 C16.1948621,18.7879222 14.3991402,18.6724279 10.2447688,18.6724279 C5.96720355,18.6724279 4.25189988,18.7357359 3.00028428,17.4806982 C1.55874478,16.0460028 1.81967626,13.7421062 1.81967626,10.2490464 C1.81967626,5.52233676 1.33460036,2.11825032 6.07842025,1.87528461 C7.16834388,1.83678653 7.48916127,1.82395383 10.2327916,1.82395383 L10.2712897,1.84961922 C14.8303188,1.84961922 18.4072189,1.37224294 18.6219526,6.11520731 C18.6707169,7.19743132 18.6818386,7.52252628 18.6818386,10.2618791 C18.680983,14.4898246 18.7614013,16.2153944 17.4892534,17.4935309 Z"/>
  <circle cx="15.747" cy="4.787" r="1.231"/>
</svg>
