<svg xmlns="http://www.w3.org/2000/svg" viewBox="0 0 25.45 28.61"><defs><style>.a{fill:#fff;}</style></defs><title>icon-fidelisez</title><path class="a" d="M12.24,10.3A5.15,5.15,0,0,1,8.6,1.51a5.15,5.15,0,0,1,7.28,7.29,5.12,5.12,0,0,1-3.64,1.51Zm0-9.3A4.15,4.15,0,0,0,9.3,8.09a4.15,4.15,0,0,0,5.87-5.87A4.12,4.12,0,0,0,12.24,1Z"/><path class="a" d="M12.24,2.33A1.85,1.85,0,0,0,11,2.78,1.33,1.33,0,0,0,10.66,4l.06.48-.08,0h0a.16.16,0,0,0-.14.17l.09.84a.16.16,0,0,0,.16.14h0a.16.16,0,0,0,.1-.05c0,.18,0,.37.06.55a.67.67,0,0,0,.33.43l.08.59a7.72,7.72,0,0,0-2.4.69.74.74,0,0,0-.29.29c.1.12.21.24.32.36a4.65,4.65,0,0,0,6.58,0,4.44,4.44,0,0,0,.32-.36.74.74,0,0,0-.29-.29,7.71,7.71,0,0,0-2.4-.69l.08-.59a.67.67,0,0,0,.33-.43l.07-.55a.16.16,0,0,0,.1.05h0a.16.16,0,0,0,.16-.14L14,4.6a.16.16,0,0,0-.14-.17h0l-.08,0L13.82,4a1.33,1.33,0,0,0-.3-1.18,1.86,1.86,0,0,0-1.29-.45Z"/><path class="a" d="M5.15,23.55A5.15,5.15,0,1,1,8.79,22a5.12,5.12,0,0,1-3.64,1.51Zm0-9.3a4.15,4.15,0,1,0,2.94,1.22,4.12,4.12,0,0,0-2.94-1.22Z"/><path class="a" d="M5.15,15.58A1.86,1.86,0,0,0,3.87,16a1.33,1.33,0,0,0-.3,1.18c0,.16,0,.32.06.48l-.08,0h0a.16.16,0,0,0-.14.17l.09.84a.16.16,0,0,0,.16.14h0a.15.15,0,0,0,.1-.05c0,.18,0,.37.06.55a.67.67,0,0,0,.33.43l.08.59a7.72,7.72,0,0,0-2.4.69.73.73,0,0,0-.29.29c.1.12.21.24.32.36a4.65,4.65,0,0,0,6.58,0,4.35,4.35,0,0,0,.32-.36A.74.74,0,0,0,8.48,21a7.71,7.71,0,0,0-2.4-.69l.08-.59a.67.67,0,0,0,.33-.43l.07-.55a.16.16,0,0,0,.1.05h0a.16.16,0,0,0,.16-.14l.09-.84a.16.16,0,0,0-.14-.17h0l-.08,0,.06-.48A1.33,1.33,0,0,0,6.44,16a1.86,1.86,0,0,0-1.29-.45Z"/><path class="a" d="M19.33,23.55A5.15,5.15,0,1,1,23,22a5.12,5.12,0,0,1-3.64,1.51Zm0-9.3a4.15,4.15,0,1,0,2.94,1.22,4.12,4.12,0,0,0-2.94-1.22Z"/><path class="a" d="M19.33,15.58A1.86,1.86,0,0,0,18,16a1.33,1.33,0,0,0-.3,1.18l.06.48-.08,0h0a.16.16,0,0,0-.14.17l.09.84a.16.16,0,0,0,.16.14h0a.15.15,0,0,0,.1-.05c0,.18,0,.37.06.55a.67.67,0,0,0,.33.43l.08.59A7.73,7.73,0,0,0,16,21a.73.73,0,0,0-.28.29,4.78,4.78,0,0,0,.32.36,4.65,4.65,0,0,0,6.58,0,4.37,4.37,0,0,0,.32-.36.74.74,0,0,0-.29-.29,7.71,7.71,0,0,0-2.4-.69l.09-.59a.67.67,0,0,0,.33-.43l.07-.55a.16.16,0,0,0,.1.05h0a.16.16,0,0,0,.16-.14l.09-.84a.16.16,0,0,0-.14-.17h0l-.08,0,.06-.48a1.33,1.33,0,0,0-.3-1.18,1.86,1.86,0,0,0-1.29-.45Z"/><path class="a" d="M22.39,12.29a.5.5,0,0,1-.35-.15L19.5,9.59a.5.5,0,1,1,.71-.71l2.19,2.2,2.2-2.19a.5.5,0,1,1,.71.71l-2.55,2.54a.5.5,0,0,1-.35.15Z"/><path class="a" d="M22.57,11.3h0a.5.5,0,0,1-.49-.51,5.1,5.1,0,0,0-5-5.16.5.5,0,0,1,0-1h0a6.1,6.1,0,0,1,6,6.17.5.5,0,0,1-.5.49Z"/><path class="a" d="M5.17,10.16l-.13,0a.5.5,0,0,1-.35-.61l.81-3-3-.81a.5.5,0,1,1,.26-1l3.48.94a.5.5,0,0,1,.35.61L5.65,9.79a.5.5,0,0,1-.48.37Z"/><path class="a" d="M3,14.62a.5.5,0,0,1-.44-.26A6.09,6.09,0,0,1,4.92,6.08.5.5,0,0,1,5.41,7a5.09,5.09,0,0,0-2,6.92.5.5,0,0,1-.19.68.49.49,0,0,1-.24.06Z"/><path class="a" d="M10.39,28.61a.5.5,0,0,1-.48-.37L9,24.76a.5.5,0,0,1,.35-.61l3.48-.93a.5.5,0,1,1,.26,1l-3,.8.8,3a.5.5,0,0,1-.35.61l-.13,0Z"/><path class="a" d="M13.09,26.56A6,6,0,0,1,10,25.7a.5.5,0,0,1,.51-.86,5.09,5.09,0,0,0,7-1.76.5.5,0,1,1,.86.51,6.1,6.1,0,0,1-5.24,3Z"/></svg>