<svg xmlns="http://www.w3.org/2000/svg" viewBox="0 0 26.53 21.56"><defs><style>.a{fill:#8ebf3f;}</style></defs><title>icon-social-twitter-green</title><path class="a" d="M26.53,2.55a10.89,10.89,0,0,1-3.13.86A5.45,5.45,0,0,0,25.8.4a10.87,10.87,0,0,1-3.46,1.32,5.45,5.45,0,0,0-9.27,5A15.45,15.45,0,0,1,1.85,1,5.45,5.45,0,0,0,3.53,8.26a5.45,5.45,0,0,1-2.47-.68v.07A5.44,5.44,0,0,0,5.43,13,5.33,5.33,0,0,1,4,13.18a5.43,5.43,0,0,1-1-.1,5.44,5.44,0,0,0,5.08,3.78A10.92,10.92,0,0,1,1.3,19.19,11,11,0,0,1,0,19.12a15.42,15.42,0,0,0,8.34,2.44A15.38,15.38,0,0,0,23.83,6.07c0-.24,0-.47,0-.7a11,11,0,0,0,2.72-2.82"/></svg>