<svg xmlns="http://www.w3.org/2000/svg" viewBox="0 0 19.48 22.86"><defs><style>.a{fill:#8fbe24;}</style></defs><title>icon-download</title><path class="a" d="M9.74,17.58a1,1,0,0,1-.59-.19l-7-5.12a1,1,0,1,1,1.18-1.62l6.45,4.69,6.45-4.69a1,1,0,0,1,1.18,1.62l-7,5.12a1,1,0,0,1-.59.19Z"/><path class="a" d="M9.74,17.58a1,1,0,0,1-1-1V1a1,1,0,0,1,2,0V16.58a1,1,0,0,1-1,1Z"/><path class="a" d="M18.48,22.86H1a1,1,0,0,1,0-2H18.48a1,1,0,0,1,0,2Z"/><path class="a" d="M18.48,22.86a1,1,0,0,1-1-1V17.44a1,1,0,0,1,2,0v4.42a1,1,0,0,1-1,1Z"/><path class="a" d="M1,22.86a1,1,0,0,1-1-1V17.44a1,1,0,0,1,2,0v4.42a1,1,0,0,1-1,1Z"/></svg>