<svg xmlns="http://www.w3.org/2000/svg" xmlns:xlink="http://www.w3.org/1999/xlink" viewBox="0 0 52.18 59.78"><defs><style>.a{fill:none;}.b{clip-path:url(#a);}.c{fill:#231f20;}.d{fill:#8dc63f;}</style><clipPath id="a" transform="translate(0 0)"><rect class="a" width="52.18" height="59.78"/></clipPath></defs><title>filiere-olives</title><g class="b"><path class="c" d="M0,42.55c0,2.7,3.44,4.9,7.69,4.9s7.69-2.2,7.69-4.9-3.45-4.9-7.69-4.9S0,39.84,0,42.55" transform="translate(0 0)"/></g><rect class="d" x="12.51" y="41.79" width="6.63" height="1.64"/><g class="b"><path class="c" d="M17.3,29.59c0-2-2.58-3.63-5.76-3.63s-5.76,1.63-5.76,3.63,2.58,3.63,5.76,3.63,5.76-1.62,5.76-3.63" transform="translate(0 0)"/><path class="c" d="M9.81,18.6c0,1.94,2.5,3.51,5.58,3.51S21,20.54,21,18.6s-2.5-3.51-5.58-3.51S9.81,16.66,9.81,18.6" transform="translate(0 0)"/><path class="c" d="M22.94,5.79c0,3.2,1.89,5.79,4.22,5.79S31.38,9,31.38,5.79,29.49,0,27.16,0s-4.22,2.59-4.22,5.79" transform="translate(0 0)"/><path class="d" d="M23.15,36.6V31.28a.82.82,0,0,0-.82-.82h-6V28.81h6a2.46,2.46,0,0,1,2.46,2.46V36.6Z" transform="translate(0 0)"/><path class="d" d="M21.54,35.69h7.6v1.64h-7.6a.82.82,0,0,0-.82.82v9.19a.82.82,0,0,0,.82.82H36.39v1.64H21.54a2.47,2.47,0,0,1-2.46-2.46V38.16a2.47,2.47,0,0,1,2.46-2.46" transform="translate(0 0)"/></g><rect class="d" x="26.84" y="49.22" width="1.64" height="10.56"/><g class="b"><path class="d" d="M40.47,24.34l4.19-4.19L43.5,19,39.3,23.18a2.45,2.45,0,0,0-.57.91h-10a.82.82,0,0,1-.82-.82V9.59H26.26V23.27a2.47,2.47,0,0,0,2.46,2.46h10a2.45,2.45,0,0,0,.58.93l3.27,3.27,1.16-1.16L40.46,25.5a.82.82,0,0,1,0-1.16" transform="translate(0 0)"/></g><rect class="d" x="20.25" y="18.03" width="6.54" height="1.64"/><g class="b"><path class="c" d="M50.11,20.35c2.36-2.37,2.76-5.8.89-7.68s-5.31-1.48-7.68.89-2.76,5.8-.89,7.68,5.31,1.47,7.68-.89" transform="translate(0 0)"/><path class="c" d="M43.81,35.15c2,2,4.75,2.46,6.17,1s1-4.18-1-6.17-4.75-2.45-6.17-1-1,4.18,1,6.17" transform="translate(0 0)"/><path class="c" d="M33.82,48.93c0,2.64,3.13,4.78,7,4.78s7-2.14,7-4.78-3.13-4.78-7-4.78-7,2.14-7,4.78" transform="translate(0 0)"/><path class="c" d="M27.43,36.41c0,2.54,3.23,4.6,7.21,4.6s7.21-2.06,7.21-4.6-3.23-4.6-7.21-4.6-7.21,2.06-7.21,4.6" transform="translate(0 0)"/></g></svg>