<svg xmlns="http://www.w3.org/2000/svg" xmlns:xlink="http://www.w3.org/1999/xlink" viewBox="0 0 52.48 67.9"><defs><style>.a{fill:none;}.b{clip-path:url(#a);}.c{fill:#8dc63f;}.d{fill:#832326;}</style><clipPath id="a" transform="translate(0 0)"><rect class="a" width="52.48" height="67.9"/></clipPath></defs><title>filiere-vin</title><g class="b"><path class="c" d="M15.49,6.8A5.36,5.36,0,1,0,20.78,13H18V11.17h2.79A5.36,5.36,0,0,0,15.49,6.8" transform="translate(0 0)"/><path class="d" d="M41.59,18.32H37.36v1.84h4.2a5.5,5.5,0,0,1,0-1.84" transform="translate(0 0)"/><path class="c" d="M21.26,18.1a8.08,8.08,0,1,0,8,8.89H26.89V25.14h2.39a8.08,8.08,0,0,0-8-7" transform="translate(0 0)"/><path class="c" d="M47,13.82a5.49,5.49,0,0,0-5.49,5.49,5.66,5.66,0,0,0,.06.85A5.49,5.49,0,1,0,47,13.82" transform="translate(0 0)"/><path class="c" d="M36.06,28.74a3.5,3.5,0,1,0,3.37,4.47H37.64V31.37h1.82a3.51,3.51,0,0,0-3.39-2.63" transform="translate(0 0)"/><path class="c" d="M20,48.69a4.7,4.7,0,1,0,4.64,5.48H22.29V52.33h2.32A4.71,4.71,0,0,0,20,48.69" transform="translate(0 0)"/><path class="c" d="M15.13,41.48v2H13.29v-2a3.33,3.33,0,1,0,1.84,0" transform="translate(0 0)"/><path class="c" d="M29.1,35a6.58,6.58,0,1,0,6.49,7.66H32.88V40.81h2.76A6.58,6.58,0,0,0,29.1,35" transform="translate(0 0)"/><path class="c" d="M28.13,58.51a4.73,4.73,0,1,0,1.84,0v2.12H28.13Z" transform="translate(0 0)"/><path class="d" d="M38.4,40.81H32.88v1.84H38.4a.92.92,0,0,1,.92.92v7.83a.92.92,0,0,1-.92.92H22.28v1.84h5.84v-.76H30v.76H38.4a2.77,2.77,0,0,0,2.76-2.76V49h-.92V47.16h.92V43.57a2.77,2.77,0,0,0-2.76-2.76" transform="translate(0 0)"/></g><polygon class="d" points="29.97 53.41 28.13 53.41 28.13 54.17 28.13 58.51 28.13 60.66 29.97 60.66 29.97 58.54 29.97 54.17 29.97 53.41"/><g class="b"><path class="d" d="M44.4,31.37H37.64v1.84H44.4a.92.92,0,0,1,.92.92V46.24a.92.92,0,0,1-.92.92H40.24V49H44.4a2.76,2.76,0,0,0,2.76-2.76V34.13a2.76,2.76,0,0,0-2.76-2.76" transform="translate(0 0)"/><path class="d" d="M34.6,11.17H29.9v.67H28.06v-.67H18V13H34.6a.92.92,0,0,1,.92.92V24.22a.92.92,0,0,1-.92.92H26.89V27H34.6a2.77,2.77,0,0,0,2.76-2.76V13.93a2.76,2.76,0,0,0-2.76-2.76" transform="translate(0 0)"/></g><polygon class="d" points="28.06 0 28.06 11.17 28.06 11.84 29.9 11.84 29.9 11.17 29.9 0 28.06 0"/><g class="b"><path class="d" d="M4.43,31.07v3.29a2.76,2.76,0,0,0,2.76,2.76h5.18a.92.92,0,0,1,.92.92v5.43h1.84V38a2.76,2.76,0,0,0-2.76-2.76H7.19a.92.92,0,0,1-.92-.92V31.08a5.44,5.44,0,0,1-1.84,0" transform="translate(0 0)"/><path class="c" d="M5.38,20.4a5.38,5.38,0,0,0-.95,10.67,5.43,5.43,0,0,0,1.84,0A5.38,5.38,0,0,0,5.38,20.4" transform="translate(0 0)"/></g></svg>