<svg xmlns="http://www.w3.org/2000/svg" viewBox="0 0 45.58 62.07"><defs><style>.a{fill:#82674e;}.b{fill:#f37021;}</style></defs><title>filiere-fruits</title><rect class="a" x="21.12" y="38.25" width="1.65" height="6.65"/><path class="a" d="M5.45,23V26.4a.83.83,0,0,0,.82.82h9.48v1.65H6.28A2.47,2.47,0,0,1,3.81,26.4V23Z" transform="translate(0 0)"/><path class="a" d="M16.35,21.24H21.7a.83.83,0,0,0,.82-.82V8.66h1.65V20.42a2.47,2.47,0,0,1-2.47,2.47H16.35Z" transform="translate(0 0)"/><path class="a" d="M39.1,22.19H35.66a.82.82,0,0,0-.82.82v9.1H33.18V23a2.47,2.47,0,0,1,2.47-2.47H39.1Z" transform="translate(0 0)"/><path class="a" d="M14.83,35.84V15.27h1.65V35.84a.82.82,0,0,0,.82.82h9.22a.83.83,0,0,0,.82-.82V27.17H29v8.66a2.48,2.48,0,0,1-2.47,2.47H17.31a2.48,2.48,0,0,1-2.47-2.47" transform="translate(0 0)"/><rect class="a" x="28.41" y="31.22" width="13.65" height="1.65"/><path class="a" d="M21.22,50.28l-8.55-8.55L11.5,42.9l8.55,8.55A2.45,2.45,0,0,0,21,52V58.2h0v3.86h1.65V52a2.47,2.47,0,0,0,.93-.58l9-9-1.16-1.16-9,9a.83.83,0,0,1-1.17,0" transform="translate(0 0)"/><path class="b" d="M36.88,40.21a3.17,3.17,0,1,0-3.17,3.17,3.17,3.17,0,0,0,3.17-3.17" transform="translate(0 0)"/><path class="b" d="M31.92,25.29a3.77,3.77,0,1,0-3.77,3.77,3.77,3.77,0,0,0,3.77-3.77" transform="translate(0 0)"/><path class="b" d="M45.58,32a2,2,0,1,0-2,2,2,2,0,0,0,2-2" transform="translate(0 0)"/><path class="b" d="M44.24,21.39a3.71,3.71,0,1,0-3.71,3.71,3.71,3.71,0,0,0,3.71-3.71" transform="translate(0 0)"/><path class="b" d="M24.41,32.83a2.47,2.47,0,1,0-2.47,2.47,2.47,2.47,0,0,0,2.47-2.47" transform="translate(0 0)"/><path class="b" d="M5.7,33.21a2.47,2.47,0,1,0-2.47,2.47A2.47,2.47,0,0,0,5.7,33.21" transform="translate(0 0)"/><path class="b" d="M9.52,19.32a4.76,4.76,0,1,0-4.76,4.76,4.76,4.76,0,0,0,4.76-4.76" transform="translate(0 0)"/><path class="b" d="M17.66,14.45A2.06,2.06,0,1,0,15.6,16.5a2.06,2.06,0,0,0,2.06-2.06" transform="translate(0 0)"/><path class="b" d="M28.33,4.93A4.93,4.93,0,1,0,23.4,9.86a4.93,4.93,0,0,0,4.93-4.93" transform="translate(0 0)"/><path class="b" d="M14.94,40.72a4.82,4.82,0,1,0-4.82,4.82,4.82,4.82,0,0,0,4.82-4.82" transform="translate(0 0)"/></svg>