<svg xmlns="http://www.w3.org/2000/svg" width="42" height="28" viewBox="0 0 42 28">
  <g fill="#DADADA" fill-rule="evenodd">
    <path d="M23,18.1655702 C23,10.8663282 30.1931801,2.31338607 36.0098024,0.322683706 L39.1467745,2.68232958 C35.3210643,5.55778854 34.9537374,9.3303907 35.2273959,9.41001879 C39.1329998,10.5416225 41.9788653,14.0337568 41.9788653,18.1655702 C41.9788653,23.2148761 37.7298108,27.3086449 32.4889735,27.3086449 C27.2481362,27.3086449 23,23.2148761 23,18.1655702" transform="matrix(1 0 0 -1 0 27.631)"/>
    <path d="M0,18.4029952 C0,11.0066264 7.2011903,2.33987521 13.0242899,0.322683706 L16.1647554,2.71372802 C12.3347849,5.62744908 11.9670489,9.4502511 12.2410122,9.53093876 C16.1509653,10.6776 19,14.2162022 19,18.4029952 C19,23.5194894 14.7462138,27.6677316 9.49954033,27.6677316 C4.25286689,27.6677316 0,23.5194894 0,18.4029952" transform="matrix(1 0 0 -1 0 27.99)"/>
  </g>
</svg>
