<svg xmlns="http://www.w3.org/2000/svg" xmlns:xlink="http://www.w3.org/1999/xlink" width="369" height="369" viewBox="0 0 369 369">
  <defs>
    <rect id="graph-visiteurs-a" width="97.9" height="135.388"/>
  </defs>
  <g fill="none" fill-rule="evenodd" transform="translate(-65 -65)">
    <g transform="rotate(-45 300.081 123.022)">
      <ellipse cx="175.222" cy="176.773" stroke="#B5B5B5" stroke-opacity=".15" stroke-width="16.5" rx="174.9" ry="176.448"/>
      <path stroke="#FCB001" stroke-width="60.5" d="M145.815244,42.1413699 C155.543544,39.9475936 165.481633,38.8407088 175.450004,38.8407088"/>
      <path stroke="#F36F23" stroke-width="60.5" d="M102.657932,60.1759115 C115.90362,51.6955535 130.505211,45.5938527 145.815244,42.1413699"/>
      <path stroke="#8C63AA" stroke-width="60.5" d="M60.7480526,102.456675 C71.4631453,85.422972 85.7736477,70.985828 102.657932,60.1759115"/>
      <path stroke="#C8C9CA" stroke-width="60.5" d="M39.8680698,167.287344 C41.3048715,144.247936 48.4870164,121.947953 60.7480526,102.456675"/>
      <path stroke="#0382AD" stroke-width="60.5" d="M52.5292461,234.246919 C42.7863676,213.359022 38.4312681,190.326753 39.8680698,167.287344"/>
      <path stroke="#99BC44" stroke-width="60.5" d="M183.980096,312.674698 C128.366164,316.204594 76.2553247,285.113602 52.5292461,234.246919"/>
      <path stroke="#C61F48" stroke-width="60.5" d="M175.450004,38.8407088 C250.477889,38.8407088 311.300007,100.201076 311.300007,175.892924 C311.300007,248.243338 255.554343,308.131778 183.980096,312.674698"/>
    </g>
    <g transform="translate(197.8 179.887)">
      <mask id="graph-visiteurs-b" fill="#fff">
        <use xlink:href="#graph-visiteurs-a"/>
      </mask>
      <use fill="#FFF" xlink:href="#graph-visiteurs-a"/>
      <g mask="url(#graph-visiteurs-b)">
        <g transform="translate(6.6 9.988)">
          <path fill="#000" d="M108.254158 73.4527056C107.411013 72.8381708 106.911399 71.8575638 106.909386 70.813283 106.90746 69.9473213 107.253365 69.1169618 107.869253 68.5090814 108.485141 67.901201 109.319266 67.566872 110.183906 67.5813371 110.907516 67.5715935 111.614952 67.7959266 112.201064 68.220993 114.52495 70.0457352 117.384036 71.0537237 120.336936 71.0893451 123.2013 71.0893451 124.922609 69.9446975 124.922609 68.0863286L124.922609 68.00553C124.922609 66.2279597 123.833343 65.3122416 118.514769 63.9655975 112.10693 62.3226916 107.971756 60.5518545 107.971756 54.2293602L107.971756 54.1350951C107.971756 48.3579917 112.61122 44.5335223 119.106469 44.5335223 122.669937 44.478741 126.172986 45.4586215 129.19226 47.3547418 130.427406 48.1192123 131.004047 49.6130603 130.603492 51.0106869 130.202937 52.4083136 128.922956 53.368578 127.470952 53.3607747 126.844449 53.3635617 126.229632 53.1909868 125.695853 52.8625164 123.376121 51.5158723 121.19759 50.7213522 119.012335 50.7213522 116.322791 50.7213522 114.924228 51.9467984 114.924228 53.4954392L114.924228 53.5897043C114.924228 55.6770027 116.269 56.3705244 121.78929 57.7710344 128.244196 59.4543396 131.875081 61.8109668 131.875081 67.3254747L131.875081 67.4197398C131.875081 73.7422341 127.054072 77.2906414 120.195735 77.2906414 115.912722 77.2910119 111.737001 75.9489655 108.254158 73.4527056M138.047585 48.1963944C138.129713 46.3205323 139.6723 44.8420381 141.547354 44.8420381 143.422408 44.8420381 144.964996 46.3205323 145.047124 48.1963944L145.047124 73.5941032C144.964996 75.4699654 143.422408 76.9484595 141.547354 76.9484595 139.6723 76.9484595 138.129713 75.4699654 138.047585 73.5941032L138.047585 48.1963944zM159.40929 51.4283404L152.68543 51.4283404C150.902956 51.4283403 149.457977 49.9813488 149.457977 48.1963944 149.457977 46.41144 150.902956 44.9644485 152.68543 44.9644484L173.125966 44.9644484C174.908439 44.9644485 176.353419 46.41144 176.353419 48.1963944 176.353419 49.9813488 174.908439 51.4283403 173.125966 51.4283404L166.402105 51.4283404 166.402105 73.5941032C166.402105 75.5278039 164.83671 77.095378 162.905698 77.095378 160.974685 77.095378 159.40929 75.5278039 159.40929 73.5941032L159.40929 51.4283404zM180.676862 73.3180412L180.676862 48.4791897C180.669628 47.5466063 181.036384 46.6501158 181.694923 45.9906599 182.353462 45.331204 183.248706 44.963938 184.179993 44.9711816L201.809956 44.9711816C203.54262 44.9748851 204.946301 46.3805201 204.949999 48.1155958 204.920526 49.8257295 203.517864 51.1912434 201.809956 51.172478L187.636058 51.172478 187.636058 57.6363699 199.739007 57.6363699C201.467957 57.6400734 202.868628 59.0426939 202.872326 60.7740508 202.867 61.6002535 202.533667 62.3903938 201.945855 62.9701817 201.358044 63.5499697 200.564047 63.8717698 199.739007 63.8645992L187.636058 63.8645992 187.636058 70.5574206 202.038567 70.5574206C203.768616 70.5611067 205.171221 71.962656 205.17861 73.6951015 205.175093 74.5230481 204.841407 75.3152755 204.25174 75.8956478 203.662074 76.4760202 202.8653 76.7964333 202.038567 76.7856499L184.179993 76.7856499C183.250503 76.7946855 182.356264 76.4298502 181.697721 75.7729223 181.039179 75.1159944 180.671414 74.2219204 180.676862 73.2911083M219.466814 74.5434873L209.152412 49.8258338C208.905207 49.2976505 208.765765 48.7253699 208.742257 48.1425286 208.736639 47.21472 209.105454 46.3239649 209.76503 45.6723451 210.424606 45.0207253 211.31903 44.663479 212.245388 44.6816532 213.833817 44.6376429 215.26761 45.6293451 215.788863 47.1325455L223.74319 67.7496676 231.811823 46.8766831C232.379762 45.5217283 233.706332 44.6423169 235.173753 44.647987 236.081588 44.6225222 236.961093 44.9659438 237.612086 45.6000868 238.263079 46.2342298 238.630174 47.1051418 238.629818 48.0145974 238.612477 48.5498065 238.489055 49.0762233 238.266729 49.5632382L227.858193 74.4761551C227.279065 76.1604881 225.68321 77.2802286 223.904562 77.2502421L223.454064 77.2502421C221.676066 77.2781056 220.081332 76.1591515 219.500434 74.4761551M30.2573733 37.8003015C29.4849683 37.8003015 28.8588103 37.1732719 28.8588103 36.3997916L28.8588103 17.9171005C28.8588103 17.1436202 29.4849683 16.5165906 30.2573733 16.5165906 31.0297783 16.5165906 31.6559363 17.1436202 31.6559363 17.9171005L31.6559363 36.3997916C31.6559363 37.1732719 31.0297783 37.8003015 30.2573733 37.8003015"/>
          <path fill="#8BC43F" d="M56.0097599,107.421804 C56.0097599,100.813754 50.6603236,95.4568711 44.0614594,95.4568711 C37.4625952,95.4568711 32.1131589,100.813754 32.1131589,107.421804 C32.1131589,114.029855 37.4625952,119.386738 44.0614594,119.386738 C47.2303457,119.386738 50.2694427,118.12615 52.5101837,115.88229 C54.7509247,113.63843 56.0097599,110.595102 56.0097599,107.421804"/>
          <path fill="#000" d="M43.9606015 99.2880737C43.5896795 99.2880737 43.2339495 99.1405204 42.9716681 98.8778739 42.7093866 98.6152273 42.5620385 98.2590021 42.5620385 97.8875638L42.5620385 92.0902607C42.5657477 89.7724498 44.4431357 87.8954612 46.7577276 87.8954642L56.4804302 87.8954642C57.2528352 87.8954642 57.8789932 88.5224938 57.8789932 89.2959741 57.8789932 90.0694544 57.2528352 90.696484 56.4804302 90.696484L46.7577276 90.696484C45.9853225 90.696484 45.3591645 91.3235137 45.3591645 92.0969939L45.3591645 97.894297C45.3591645 98.6677773 44.7330065 99.294807 43.9606015 99.294807M61.8595188 37.5579056L55.4516795 37.5579056C53.1397131 37.5541983 51.2664164 35.6782938 51.2627142 33.363109L51.2627142 27.3503428C51.2627142 26.5768626 51.8888722 25.9498329 52.6612773 25.9498329 53.4336823 25.9498329 54.0598403 26.5768626 54.0598403 27.3503428L54.0598403 33.3563758C54.0598403 34.1298561 54.6859983 34.7568857 55.4584033 34.7568857L61.8595188 34.7568857C62.3591772 34.7568857 62.8208807 35.0238214 63.07071 35.4571406 63.3205392 35.8904599 63.3205392 36.4243313 63.07071 36.8576506 62.8208807 37.2909699 62.3591772 37.5579056 61.8595188 37.5579056M73.9086772 46.6679533L61.8595188 46.6679533C61.0871138 46.6679532 60.4609558 46.0409236 60.4609558 45.2674434 60.4609558 44.4939631 61.0871138 43.8669335 61.8595188 43.8669334L73.8952295 43.8669334C74.2673134 43.8705205 74.6254852 43.7254764 74.8904864 43.4638972 75.1554877 43.202318 75.3054685 42.8457716 75.3072402 42.4731567L75.3072402 34.6356877C75.3072402 33.8622075 75.9333982 33.2351778 76.7058033 33.2351778 77.4782083 33.2351778 78.1043663 33.8622075 78.1043663 34.6356877L78.1043663 42.4731567C78.1006642 44.7883416 76.2273675 46.664246 73.9154011 46.6679533"/>
          <path fill="#8BC43F" d="M18.2956251,76.0449956 C18.2983444,73.7779589 16.9363464,71.7327609 14.8453083,70.8639451 C12.7542703,69.9951293 10.3464531,70.473988 8.74564335,72.0770261 C7.1448336,73.6800643 6.66664061,76.0912334 7.53424864,78.1851823 C8.40185667,80.2791312 10.4442116,81.6430252 12.7080968,81.6403021 C15.7924675,81.6365919 18.2919201,79.1336599 18.2956251,76.0449956"/>
          <path fill="#000" d="M83.6918946,68.6384527 C83.455453,68.6335483 83.2241146,68.5686834 83.0195085,68.4499225 L41.9434433,44.7355189 C41.3032772,44.3360741 41.0947485,43.5002395 41.4720936,42.8462329 C41.8494387,42.1922264 42.6767025,41.9556828 43.3420063,42.3115594 L84.3979,66.0326963 C84.9411196,66.3474003 85.2084851,66.9859277 85.0518573,67.5944897 C84.8952294,68.2030518 84.352964,68.6326209 83.7255139,68.6451859"/>
          <path fill="#000" d="M42.6427248 44.9173159C41.8703198 44.9173159 41.2441618 44.2902862 41.2441618 43.516806L41.2441618 1.40050992C41.2441618.627029651 41.8703198 1.42086021e-16 42.6427248 0 43.4151298-1.42086021e-16 44.0412878.627029651 44.0412878 1.40050992L44.0412878 43.516806C44.0412878 44.2902862 43.4151298 44.9173159 42.6427248 44.9173159M61.8595188 55.959798C61.0933005 55.934456 60.4843257 55.3067849 60.4811273 54.5390884L60.4811273 10.7731533C60.4811273 9.99967299 61.1072853 9.37264334 61.8796903 9.37264334 62.6520954 9.37264334 63.2782534 9.99967299 63.2782534 10.7731533L63.2782534 54.5390884C63.2745732 55.3221931 62.6415348 55.9561127 61.8595188 55.959798"/>
          <path fill="#000" d="M1.39856303,68.6384527 C0.771112925,68.6258877 0.228847479,68.1963186 0.0722196317,67.5877565 C-0.0844082159,66.9791945 0.182957281,66.3406671 0.726176959,66.025963 L41.9434433,42.3048262 C42.6087471,41.9489495 43.4360108,42.1854932 43.813356,42.8394997 C44.1907011,43.4935062 43.9821724,44.3293409 43.3420063,44.7287857 L2.09784455,68.4499225 C1.89323848,68.5686834 1.66190005,68.6335483 1.42545848,68.6384527"/>
          <path fill="#F37021" d="M69.3095565 11.6417387C69.3095497 7.5306606 65.9828034 4.19728364 61.877441 4.19481007 57.7720785 4.19233651 54.4413289 7.52170219 54.4363819 11.6327773 54.4314349 15.7438525 57.7541623 19.0812468 61.8595188 19.0886809 63.8318251 19.0886809 65.7233508 18.3040946 67.117982 16.9075221 68.5126131 15.5109495 69.2961087 13.6167906 69.2961087 11.6417387M86.0654174 29.7608359C86.0654174 24.5881866 81.8779858 20.3949258 76.7125271 20.3949258 71.5470685 20.3949258 67.3596368 24.5881866 67.3596368 29.7608359 67.3596368 34.9334852 71.5470685 39.126746 76.7125271 39.126746 81.8779858 39.126746 86.0654174 34.9334852 86.0654174 29.7608359M56.7628323 25.2899773C56.7655529 23.6254104 55.7663296 22.1232323 54.2313883 21.4843415 52.696447 20.8454508 50.9283013 21.195763 49.7519472 22.3718267 48.5755931 23.5478904 48.2228721 25.3179213 48.8583596 26.8560438 49.4938471 28.3941662 50.9922983 29.3972397 52.6545534 29.397242 54.92087 29.397245 56.7591231 27.5594457 56.7628323 25.2899773"/>
          <path fill="#000" d="M30.2573733 26.8722842C33.074671 26.8722842 35.3607836 22.93335 35.3607836 18.0786978 35.3607836 13.2240456 33.0679471 9.28511147 30.2573733 9.28511147 27.4467995 9.28511147 25.1472392 13.2240456 25.1472392 18.0786978 25.1472392 22.93335 27.4333518 26.8722842 30.2573733 26.8722842M20.5010514 30.7169532C22.3501131 27.5119401 19.3848905 22.3273601 13.8713247 19.1425467 8.35775889 15.9577333 2.40041828 15.9779329.55135658 19.182946-1.29770512 22.3879591 1.66751746 27.6062052 7.1743594 30.7573526 12.6812013 33.9084999 18.6452658 33.9286996 20.4943275 30.7169532M21.7046225 41.3150428C20.3127833 38.9045497 15.8279682 38.8910833 11.68607 41.3150428 7.54417175 43.7390022 5.31184998 47.5769381 6.72386074 49.9874311 8.13587149 52.3979242 12.600515 52.4113906 16.7491371 49.9874311 20.8977592 47.5634716 23.1233571 43.6986029 21.7315179 41.2881099M26.1558183 83.4919378C25.4039414 83.4924949 24.7861734 82.8976603 24.7572552 82.1452936L24.7572552 70.3621572C24.7572523 68.0443434 26.6316316 66.1643419 28.9462205 66.1606275L36.3424673 66.1606275C37.1148723 66.1606275 37.7410303 66.7876571 37.7410303 67.5611374 37.7410303 68.3346177 37.1148723 68.9616473 36.3424673 68.9616473L28.9462205 68.9616473C28.192056 68.9724027 27.5822572 69.5800716 27.567829 70.3352244L27.567829 82.1452936C27.5387495 82.9029096 26.9128991 83.4997873 26.1558183 83.4919378"/>
          <path fill="#8BC43F" d="M58.6925804 68.00553C58.7061859 62.6947104 55.5219435 57.8992484 50.6261063 55.8574382 45.7302692 53.815628 40.0881537 54.9300551 36.3332318 58.6805577 32.57831 62.4310604 31.4509428 68.0781487 33.4773319 72.9860298 35.503721 77.893911 40.2843215 81.0948937 45.5877758 81.0949112 52.8107229 81.0912362 58.6703568 75.2384986 58.6925804 68.00553M69.1145645 89.0266453C69.1145645 84.1923936 65.201077 80.2734582 60.3735455 80.2734582 55.5460141 80.2734582 51.6325266 84.1923936 51.6325266 89.0266453 51.6325266 93.860897 55.5460141 97.7798323 60.3735455 97.7798323 65.201077 97.7798323 69.1145645 93.860897 69.1145645 89.0266453M34.8497702 90.0433616C34.8497702 85.2091099 30.9362827 81.2901746 26.1087512 81.2901746 21.2812198 81.2901746 17.3677323 85.2091099 17.3677323 90.0433616 17.3677323 94.8776133 21.2812198 98.7965486 26.1087512 98.7965486 30.9362827 98.7965486 34.8497702 94.8776133 34.8497702 90.0433616"/>
          <path fill="#000" d="M71.3401624,90.8446149 L66.2031328,90.8446149 C65.7034743,90.8446149 65.2417708,90.5776792 64.9919416,90.1443599 C64.7421123,89.7110407 64.7421123,89.1771693 64.9919416,88.74385 C65.2417708,88.3105307 65.7034743,88.043595 66.2031328,88.043595 L71.3401624,88.043595 C72.1940927,88.043595 73.1421571,86.8922143 73.1421571,85.2425752 L73.1421571,77.8360323 C73.1421571,77.062552 73.7683151,76.4355224 74.5407201,76.4355224 C75.3131251,76.4355224 75.9392831,77.062552 75.9392831,77.8360323 L75.9392831,85.2425752 C75.9392831,88.3263903 73.8750579,90.8378817 71.3401624,90.8378817"/>
          <path fill="#8BC43F" d="M80.5384039,74.8330158 C80.5384039,71.5382874 77.8712116,68.8673822 74.5810633,68.8673822 C71.2909149,68.8673822 68.6237227,71.5382874 68.6237227,74.8330158 C68.6237227,78.1277443 71.2909149,80.7986495 74.5810633,80.7986495 C76.1610482,80.7986495 77.6763211,80.1701292 78.7935392,79.0513558 C79.9107573,77.9325825 80.5384039,76.4152002 80.5384039,74.8330158"/>
          <path fill="#000" d="M26.1558183 77.2098428L15.7203864 77.2098428C15.2207279 77.2098428 14.7590244 76.9429071 14.5091952 76.5095879 14.2593659 76.0762686 14.2593659 75.5423972 14.5091952 75.1090779 14.7590244 74.6757586 15.2207279 74.4088229 15.7203864 74.4088229L26.1558183 74.4088229C26.6554767 74.4088229 27.1171802 74.6757586 27.3670095 75.1090779 27.6168387 75.5423972 27.6168387 76.0762686 27.3670095 76.5095879 27.1171802 76.9429071 26.6554767 77.2098428 26.1558183 77.2098428M59.0825643 69.4262395L53.7034757 69.4262395C52.9310707 69.4262395 52.3049127 68.7992099 52.3049127 68.0257296 52.3049127 67.2522494 52.9310707 66.6252197 53.7034757 66.6252197L59.0825643 66.6252197C59.8549693 66.6252197 60.4811273 65.99819 60.4811273 65.2247098L60.4811273 53.5493049C60.4811273 52.7758247 61.1072853 52.148795 61.8796903 52.148795 62.6520954 52.148795 63.2782534 52.7758247 63.2782534 53.5493049L63.2782534 65.2247098C63.2745513 67.5398946 61.4012546 69.4157991 59.0892881 69.4195063M42.4611805 45.0519803C43.0840917 45.0345743 43.6203566 44.6065726 43.7762576 44.0023958 43.9321586 43.3982191 43.6700807 42.76364 43.1335666 42.4462238L19.5395393 28.5353897C18.8673984 28.1523682 18.0124519 28.3875043 17.6299628 29.0605809 17.2474738 29.7336575 17.4822831 30.5897941 18.154424 30.9728156L41.7551752 44.8634501C41.9596657 44.9824849 42.1910763 45.0473701 42.4275612 45.0519803"/>
          <path fill="#000" d="M19.9698664,43.7659351 C19.3424163,43.7533701 18.8001508,43.323801 18.643523,42.7152389 C18.4868951,42.1066769 18.7542606,41.4681495 19.2974803,41.1534455 L29.5849872,35.1878118 C30.0209715,34.8566774 30.6097578,34.8105785 31.0918381,35.0698331 C31.5739184,35.3290878 31.8607309,35.846069 31.8258629,36.392917 C31.7909948,36.939765 31.4408517,37.4160196 30.9297594,37.6117713 L20.6422525,43.5572053 C20.4377619,43.6762401 20.2063513,43.7411253 19.9698664,43.7457355"/>
        </g>
      </g>
    </g>
    <text fill="#FFF" font-family="Raleway-Bold, Raleway" font-size="17.6" font-weight="bold">
      <tspan x="319.9" y="153.7">49%</tspan>
    </text>
    <text fill="#FFF" font-family="Raleway-Bold, Raleway" font-size="17.6" font-weight="bold">
      <tspan x="271.7" y="382.205">19%</tspan>
    </text>
    <text fill="#FFF" font-family="Raleway-Bold, Raleway" font-size="17.6" font-weight="bold">
      <tspan x="161.7" y="369.998">8%</tspan>
    </text>
    <text fill="#FFF" font-family="Raleway-Bold, Raleway" font-size="17.6" font-weight="bold">
      <tspan x="118.8" y="318.95">8%</tspan>
    </text>
    <text fill="#FFF" font-family="Raleway-Bold, Raleway" font-size="17.6" font-weight="bold">
      <tspan x="104.5" y="256.805">7%</tspan>
    </text>
    <text fill="#FFF" font-family="Raleway-Bold, Raleway" font-size="17.6" font-weight="bold">
      <tspan x="104.5" y="203.538">5.5%</tspan>
    </text>
    <text fill="#FFF" font-family="Raleway-Bold, Raleway" font-size="17.6" font-weight="bold">
      <tspan x="125.4" y="164.697">3.5%</tspan>
    </text>
  </g>
</svg>
