<svg width="213" height="116" viewBox="0 0 213 116" fill="none" xmlns="http://www.w3.org/2000/svg">
<rect y="58.4177" width="213" height="28.7595" fill="#7A8C5D"/>
<rect y="87.1772" width="213" height="28.7595" fill="#ACB698"/>
<path d="M14.9981 77.5579C14.9981 78.2193 15.5014 78.6076 16.1916 78.6076H21.6559C22.188 78.6076 22.6194 78.1906 22.6194 77.6585C22.6194 77.1265 22.188 76.6951 21.6559 76.6951H18.1473L19.7865 75.4297C21.5696 74.0492 22.4324 73.2152 22.4324 71.5328V71.504C22.4324 69.6203 21.052 68.398 18.9669 68.398C17.4426 68.398 16.4936 68.9444 15.6883 69.8791C15.5301 70.066 15.4295 70.3249 15.4295 70.5693C15.4295 71.1301 15.8753 71.5759 16.4361 71.5759C16.7812 71.5759 17.04 71.4177 17.1838 71.2595C17.7446 70.6556 18.1904 70.3824 18.8231 70.3824C19.614 70.3824 20.1748 70.8425 20.1748 71.6909C20.1748 72.525 19.6859 73.0858 18.4348 74.1067L15.5733 76.4506C15.1994 76.7526 14.9981 77.1265 14.9981 77.5579ZM28.1562 78.7514C30.3851 78.7514 32.0388 77.6585 32.0388 75.7892V75.7604C32.0388 74.5669 31.4348 73.9198 30.4139 73.3877C31.1904 72.9132 31.6937 72.2661 31.6937 71.1876V71.1589C31.6937 69.6059 30.2844 68.398 28.1562 68.398C26.028 68.398 24.6188 69.6203 24.6188 71.1589V71.1876C24.6188 72.2661 25.1221 72.9132 25.8986 73.3877C24.8345 73.8767 24.2737 74.5956 24.2737 75.8179V75.8467C24.2737 77.601 25.9274 78.7514 28.1562 78.7514ZM28.1562 72.6544C27.2791 72.6544 26.7183 72.1223 26.7183 71.4177V71.389C26.7183 70.7706 27.2503 70.2242 28.1562 70.2242C29.0622 70.2242 29.5942 70.785 29.5942 71.4033V71.4321C29.5942 72.1367 29.0334 72.6544 28.1562 72.6544ZM28.1562 76.9252C27.0634 76.9252 26.4163 76.3644 26.4163 75.6741V75.6454C26.4163 74.8689 27.1496 74.4087 28.1562 74.4087C29.1628 74.4087 29.8962 74.8689 29.8962 75.6454V75.6741C29.8962 76.3787 29.2491 76.9252 28.1562 76.9252ZM35.1 69.8216C34.5679 69.8072 34.1509 70.1811 34.1509 70.7131C34.1509 71.1157 34.381 71.4465 34.7549 71.619L39.0975 73.5603L34.7549 75.5016C34.381 75.6741 34.1509 75.9617 34.1509 76.3787C34.1509 76.8964 34.5679 77.299 35.0281 77.2847C35.2294 77.2847 35.3876 77.2271 35.5601 77.1409L40.4061 74.8401C40.9525 74.5813 41.2833 74.1786 41.2833 73.6178V73.474C41.2833 72.9132 40.9525 72.5106 40.4061 72.2517L35.5601 69.951C35.4163 69.8791 35.2581 69.8216 35.1 69.8216ZM46.9294 78.7802C49.1727 78.7802 50.5531 77.3853 50.5531 75.4872V75.4584C50.5531 73.5891 49.2158 72.8701 47.8497 72.64L49.8198 70.7563C50.2224 70.368 50.4812 70.066 50.4812 69.5196C50.4812 68.9156 50.0067 68.5418 49.3596 68.5418H44.4561C43.9385 68.5418 43.5071 68.9732 43.5071 69.4908C43.5071 70.0085 43.9385 70.4399 44.4561 70.4399H47.5478L45.5921 72.4099C45.247 72.755 45.1176 73.0139 45.1176 73.3159C45.1176 73.8335 45.549 74.2649 46.0667 74.2649H46.4118C47.6484 74.2649 48.3818 74.7251 48.3818 75.5447V75.5735C48.3818 76.3212 47.7922 76.7957 46.9582 76.7957C46.1673 76.7957 45.5634 76.5369 44.9882 76.048C44.8156 75.9042 44.5999 75.7748 44.2836 75.7748C43.7084 75.7748 43.2195 76.2637 43.2195 76.8389C43.2195 77.1552 43.392 77.4572 43.5933 77.6298C44.413 78.3344 45.4915 78.7802 46.9294 78.7802ZM56.9103 78.7802C59.5993 78.7802 61.3968 76.4938 61.3968 73.5747V73.5459C61.3968 70.6268 59.5993 68.3692 56.9391 68.3692C54.2645 68.3692 52.4526 70.6556 52.4526 73.5747V73.6034C52.4526 76.5225 54.2213 78.7802 56.9103 78.7802ZM56.9391 76.7814C55.6018 76.7814 54.7246 75.4153 54.7246 73.5747V73.5459C54.7246 71.7053 55.5874 70.368 56.9103 70.368C58.2333 70.368 59.1248 71.7485 59.1248 73.5747V73.6034C59.1248 75.4297 58.2764 76.7814 56.9391 76.7814ZM68.2743 77.601C68.2743 78.205 68.7632 78.6939 69.3671 78.6939C69.9711 78.6939 70.46 78.205 70.46 77.601V72.2086L74.8889 78.018C75.1909 78.4063 75.5073 78.6651 76.0393 78.6651H76.1112C76.7296 78.6651 77.2185 78.1762 77.2185 77.5579V69.5484C77.2185 68.9444 76.7296 68.4555 76.1256 68.4555C75.5217 68.4555 75.0327 68.9444 75.0327 69.5484V74.7394L70.762 69.1313C70.46 68.7431 70.1436 68.4843 69.6116 68.4843H69.3815C68.7632 68.4843 68.2743 68.9732 68.2743 69.5915V77.601ZM84.8115 78.7802C87.9176 78.7802 90.1752 76.4363 90.1752 73.5747V73.5459C90.1752 70.6844 87.9463 68.3692 84.8403 68.3692C81.7343 68.3692 79.4766 70.7131 79.4766 73.5747V73.6034C79.4766 76.465 81.7055 78.7802 84.8115 78.7802ZM84.8403 76.7382C83.0572 76.7382 81.7918 75.3003 81.7918 73.5747V73.5459C81.7918 71.8204 83.0284 70.4111 84.8115 70.4111C86.5946 70.4111 87.86 71.8491 87.86 73.5747V73.6034C87.86 75.329 86.6234 76.7382 84.8403 76.7382ZM96.0021 78.7658H96.1459C96.7499 78.7658 97.1669 78.435 97.397 77.8886L100.69 70.0085C100.747 69.8791 100.805 69.6922 100.805 69.5196C100.805 68.9156 100.316 68.4555 99.7121 68.4555C99.18 68.4555 98.7918 68.8006 98.648 69.1601L96.1028 75.746L93.5863 69.232C93.4138 68.7862 93.0399 68.4555 92.4647 68.4555C91.8464 68.4555 91.3575 68.93 91.3575 69.5484C91.3575 69.7353 91.415 69.9079 91.4869 70.0804L94.7511 77.8886C94.9812 78.435 95.3982 78.7658 96.0021 78.7658ZM103.891 78.6076H109.542C110.088 78.6076 110.534 78.1762 110.534 77.6298C110.534 77.0833 110.088 76.6376 109.542 76.6376H104.984V74.5237H108.823C109.369 74.5237 109.815 74.0924 109.815 73.5459C109.815 72.9995 109.369 72.5537 108.823 72.5537H104.984V70.5118H109.47C110.016 70.5118 110.462 70.0804 110.462 69.534C110.462 68.9875 110.016 68.5418 109.47 68.5418H103.891C103.272 68.5418 102.783 69.0307 102.783 69.649V77.5004C102.783 78.1187 103.272 78.6076 103.891 78.6076ZM112.704 77.6154C112.704 78.2193 113.179 78.6939 113.783 78.6939C114.387 78.6939 114.876 78.2193 114.876 77.6154V72.6112L116.788 75.5591C117.018 75.9042 117.306 76.1199 117.708 76.1199C118.111 76.1199 118.399 75.9042 118.629 75.5591L120.57 72.5681V77.5866C120.57 78.1906 121.059 78.6939 121.663 78.6939C122.281 78.6939 122.77 78.205 122.77 77.5866V69.5915C122.77 68.9732 122.281 68.4843 121.663 68.4843H121.418C120.973 68.4843 120.656 68.6712 120.426 69.0451L117.737 73.4165L115.063 69.0594C114.861 68.7287 114.531 68.4843 114.056 68.4843H113.812C113.193 68.4843 112.704 68.9732 112.704 69.5915V77.6154ZM125.476 77.5004C125.476 78.1187 125.965 78.6076 126.583 78.6076H130.264C132.536 78.6076 134.032 77.6873 134.032 75.8467V75.8179C134.032 74.4662 133.313 73.7904 132.148 73.3446C132.867 72.942 133.471 72.3093 133.471 71.1733V71.1445C133.471 70.4543 133.241 69.8935 132.781 69.4333C132.206 68.8581 131.3 68.5418 130.149 68.5418H126.583C125.965 68.5418 125.476 69.0307 125.476 69.649V77.5004ZM127.633 72.6112V70.483H129.819C130.753 70.483 131.271 70.8569 131.271 71.5184V71.5471C131.271 72.2949 130.653 72.6112 129.675 72.6112H127.633ZM127.633 76.6663V74.4519H130.192C131.328 74.4519 131.832 74.8689 131.832 75.5447V75.5735C131.832 76.3212 131.242 76.6663 130.264 76.6663H127.633ZM136.141 77.5866C136.141 78.205 136.63 78.6939 137.248 78.6939C137.867 78.6939 138.356 78.205 138.356 77.5866V75.3865H140.124L142.281 78.1187C142.54 78.4494 142.871 78.6939 143.374 78.6939C143.906 78.6939 144.424 78.2912 144.424 77.6729C144.424 77.3278 144.28 77.0977 144.064 76.8245L142.526 74.9551C143.748 74.4519 144.539 73.474 144.539 71.8923V71.8635C144.539 70.9144 144.237 70.1235 143.676 69.5627C143.015 68.9013 142.022 68.5418 140.743 68.5418H137.248C136.63 68.5418 136.141 69.0307 136.141 69.649V77.5866ZM138.356 73.4309V70.5406H140.556C141.634 70.5406 142.296 71.0295 142.296 71.9785V72.0073C142.296 72.8557 141.677 73.4309 140.599 73.4309H138.356ZM147.928 78.6076H153.579C154.125 78.6076 154.571 78.1762 154.571 77.6298C154.571 77.0833 154.125 76.6376 153.579 76.6376H149.02V74.5237H152.86C153.406 74.5237 153.852 74.0924 153.852 73.5459C153.852 72.9995 153.406 72.5537 152.86 72.5537H149.02V70.5118H153.507C154.053 70.5118 154.499 70.0804 154.499 69.534C154.499 68.9875 154.053 68.5418 153.507 68.5418H147.928C147.309 68.5418 146.82 69.0307 146.82 69.649V77.5004C146.82 78.1187 147.309 78.6076 147.928 78.6076ZM160.75 77.5579C160.75 78.2193 161.254 78.6076 161.944 78.6076H167.408C167.94 78.6076 168.372 78.1906 168.372 77.6585C168.372 77.1265 167.94 76.6951 167.408 76.6951H163.899L165.539 75.4297C167.322 74.0492 168.185 73.2152 168.185 71.5328V71.504C168.185 69.6203 166.804 68.398 164.719 68.398C163.195 68.398 162.246 68.9444 161.441 69.8791C161.282 70.066 161.182 70.3249 161.182 70.5693C161.182 71.1301 161.627 71.5759 162.188 71.5759C162.533 71.5759 162.792 71.4177 162.936 71.2595C163.497 70.6556 163.943 70.3824 164.575 70.3824C165.366 70.3824 165.927 70.8425 165.927 71.6909C165.927 72.525 165.438 73.0858 164.187 74.1067L161.325 76.4506C160.952 76.7526 160.75 77.1265 160.75 77.5579ZM174.613 78.7802C177.302 78.7802 179.1 76.4938 179.1 73.5747V73.5459C179.1 70.6268 177.302 68.3692 174.642 68.3692C171.967 68.3692 170.155 70.6556 170.155 73.5747V73.6034C170.155 76.5225 171.924 78.7802 174.613 78.7802ZM174.642 76.7814C173.305 76.7814 172.427 75.4153 172.427 73.5747V73.5459C172.427 71.7053 173.29 70.368 174.613 70.368C175.936 70.368 176.828 71.7485 176.828 73.5747V73.6034C176.828 75.4297 175.979 76.7814 174.642 76.7814ZM180.648 77.5579C180.648 78.2193 181.152 78.6076 181.842 78.6076H187.306C187.838 78.6076 188.27 78.1906 188.27 77.6585C188.27 77.1265 187.838 76.6951 187.306 76.6951H183.797L185.437 75.4297C187.22 74.0492 188.083 73.2152 188.083 71.5328V71.504C188.083 69.6203 186.702 68.398 184.617 68.398C183.093 68.398 182.144 68.9444 181.339 69.8791C181.18 70.066 181.08 70.3249 181.08 70.5693C181.08 71.1301 181.525 71.5759 182.086 71.5759C182.431 71.5759 182.69 71.4177 182.834 71.2595C183.395 70.6556 183.841 70.3824 184.473 70.3824C185.264 70.3824 185.825 70.8425 185.825 71.6909C185.825 72.525 185.336 73.0858 184.085 74.1067L181.223 76.4506C180.85 76.7526 180.648 77.1265 180.648 77.5579ZM193.749 78.7802C195.992 78.7802 197.373 77.3853 197.373 75.4872V75.4584C197.373 73.5891 196.035 72.8701 194.669 72.64L196.639 70.7563C197.042 70.368 197.301 70.066 197.301 69.5196C197.301 68.9156 196.826 68.5418 196.179 68.5418H191.276C190.758 68.5418 190.327 68.9732 190.327 69.4908C190.327 70.0085 190.758 70.4399 191.276 70.4399H194.367L192.412 72.4099C192.066 72.755 191.937 73.0139 191.937 73.3159C191.937 73.8335 192.368 74.2649 192.886 74.2649H193.231C194.468 74.2649 195.201 74.7251 195.201 75.5447V75.5735C195.201 76.3212 194.612 76.7957 193.778 76.7957C192.987 76.7957 192.383 76.5369 191.808 76.048C191.635 75.9042 191.419 75.7748 191.103 75.7748C190.528 75.7748 190.039 76.2637 190.039 76.8389C190.039 77.1552 190.211 77.4572 190.413 77.6298C191.232 78.3344 192.311 78.7802 193.749 78.7802Z" fill="white"/>
<path d="M52.4358 105.476C52.4358 106.08 52.9103 106.555 53.5143 106.555C54.1182 106.555 54.6071 106.08 54.6071 105.476V100.472L56.5197 103.42C56.7497 103.765 57.0373 103.981 57.44 103.981C57.8426 103.981 58.1302 103.765 58.3603 103.42L60.3015 100.429V105.447C60.3015 106.051 60.7904 106.555 61.3944 106.555C62.0127 106.555 62.5016 106.066 62.5016 105.447V97.4523C62.5016 96.8339 62.0127 96.345 61.3944 96.345H61.1499C60.7042 96.345 60.3878 96.5319 60.1577 96.9058L57.4687 101.277L54.7941 96.9202C54.5928 96.5895 54.262 96.345 53.7875 96.345H53.543C52.9247 96.345 52.4358 96.8339 52.4358 97.4523V105.476ZM70.0965 106.641C73.2025 106.641 75.4601 104.297 75.4601 101.435V101.407C75.4601 98.5451 73.2313 96.23 70.1253 96.23C67.0192 96.23 64.7616 98.5739 64.7616 101.435V101.464C64.7616 104.326 66.9905 106.641 70.0965 106.641ZM70.1253 104.599C68.3422 104.599 67.0767 103.161 67.0767 101.435V101.407C67.0767 99.6811 68.3134 98.2719 70.0965 98.2719C71.8796 98.2719 73.145 99.7099 73.145 101.435V101.464C73.145 103.19 71.9083 104.599 70.1253 104.599ZM77.7121 105.462C77.7121 106.066 78.2011 106.555 78.805 106.555C79.409 106.555 79.8979 106.066 79.8979 105.462V100.069L84.3268 105.879C84.6288 106.267 84.9452 106.526 85.4772 106.526H85.5491C86.1674 106.526 86.6563 106.037 86.6563 105.419V97.4091C86.6563 96.8052 86.1674 96.3163 85.5635 96.3163C84.9595 96.3163 84.4706 96.8052 84.4706 97.4091V102.6L80.1998 96.9921C79.8979 96.6038 79.5815 96.345 79.0495 96.345H78.8194C78.2011 96.345 77.7121 96.8339 77.7121 97.4523V105.462ZM91.7042 105.447C91.7042 106.066 92.1931 106.555 92.8114 106.555C93.4298 106.555 93.9187 106.066 93.9187 105.447V98.4445H96.0469C96.6077 98.4445 97.0678 97.9843 97.0678 97.4235C97.0678 96.8627 96.6077 96.4025 96.0469 96.4025H89.576C89.0152 96.4025 88.555 96.8627 88.555 97.4235C88.555 97.9843 89.0152 98.4445 89.576 98.4445H91.7042V105.447ZM98.9723 105.447C98.9723 106.066 99.4612 106.555 100.079 106.555C100.698 106.555 101.187 106.066 101.187 105.447V103.449H102.869C105.127 103.449 106.939 102.241 106.939 99.9112V99.8824C106.939 97.8261 105.486 96.4025 103.085 96.4025H100.079C99.4612 96.4025 98.9723 96.8914 98.9723 97.5098V105.447ZM101.187 101.479V98.4013H102.898C104.005 98.4013 104.695 98.9334 104.695 99.9256V99.9543C104.695 100.817 104.048 101.479 102.941 101.479H101.187ZM109.972 106.468H115.624C116.17 106.468 116.616 106.037 116.616 105.491C116.616 104.944 116.17 104.498 115.624 104.498H111.065V102.385H114.905C115.451 102.385 115.897 101.953 115.897 101.407C115.897 100.86 115.451 100.414 114.905 100.414H111.065V98.3726H115.552C116.098 98.3726 116.544 97.9412 116.544 97.3947C116.544 96.8483 116.098 96.4025 115.552 96.4025H109.972C109.354 96.4025 108.865 96.8914 108.865 97.5098V105.361C108.865 105.979 109.354 106.468 109.972 106.468ZM118.786 105.361C118.786 105.979 119.275 106.468 119.893 106.468H125.099C125.659 106.468 126.105 106.023 126.105 105.462C126.105 104.901 125.659 104.455 125.099 104.455H121V97.4235C121 96.8052 120.512 96.3163 119.893 96.3163C119.275 96.3163 118.786 96.8052 118.786 97.4235V105.361ZM127.977 105.361C127.977 105.979 128.466 106.468 129.084 106.468H134.289C134.85 106.468 135.296 106.023 135.296 105.462C135.296 104.901 134.85 104.455 134.289 104.455H130.191V97.4235C130.191 96.8052 129.702 96.3163 129.084 96.3163C128.466 96.3163 127.977 96.8052 127.977 97.4235V105.361ZM137.268 105.447C137.268 106.066 137.757 106.555 138.375 106.555C138.994 106.555 139.482 106.066 139.482 105.447V97.4235C139.482 96.8052 138.994 96.3163 138.375 96.3163C137.757 96.3163 137.268 96.8052 137.268 97.4235V105.447ZM143.393 106.468H149.044C149.591 106.468 150.036 106.037 150.036 105.491C150.036 104.944 149.591 104.498 149.044 104.498H144.486V102.385H148.325C148.872 102.385 149.317 101.953 149.317 101.407C149.317 100.86 148.872 100.414 148.325 100.414H144.486V98.3726H148.972C149.519 98.3726 149.964 97.9412 149.964 97.3947C149.964 96.8483 149.519 96.4025 148.972 96.4025H143.393C142.775 96.4025 142.286 96.8914 142.286 97.5098V105.361C142.286 105.979 142.775 106.468 143.393 106.468ZM152.207 105.447C152.207 106.066 152.695 106.555 153.314 106.555C153.932 106.555 154.421 106.066 154.421 105.447V103.247H156.19L158.347 105.979C158.606 106.31 158.936 106.555 159.44 106.555C159.972 106.555 160.489 106.152 160.489 105.534C160.489 105.189 160.345 104.958 160.13 104.685L158.591 102.816C159.813 102.313 160.604 101.335 160.604 99.753V99.7243C160.604 98.7752 160.302 97.9843 159.742 97.4235C159.08 96.762 158.088 96.4025 156.808 96.4025H153.314C152.695 96.4025 152.207 96.8914 152.207 97.5098V105.447ZM154.421 101.292V98.4013H156.621C157.7 98.4013 158.361 98.8902 158.361 99.8393V99.868C158.361 100.716 157.743 101.292 156.664 101.292H154.421Z" fill="white"/>
<path d="M188.599 38.1324C188.599 39.3521 189.084 40.5219 189.946 41.3844C190.808 42.2468 191.978 42.7314 193.198 42.7314C194.417 42.7314 195.587 42.2468 196.449 41.3844C197.311 40.5219 197.796 39.3521 197.796 38.1324V4.83515C197.796 3.61542 197.311 2.44565 196.449 1.58317C195.587 0.720693 194.417 0.236157 193.198 0.236157C191.978 0.236157 190.808 0.720693 189.946 1.58317C189.084 2.44565 188.599 3.61542 188.599 4.83515V38.1324ZM163 42.9862H163.595C164.734 43.0067 165.85 42.6653 166.783 42.0112C167.716 41.3571 168.418 40.4239 168.787 39.3458L182.46 6.67961C182.756 6.0434 182.921 5.3543 182.946 4.65314C182.944 4.06321 182.825 3.47952 182.595 2.93632C182.365 2.39313 182.029 1.90137 181.606 1.48992C181.183 1.07847 180.683 0.755621 180.134 0.540321C179.584 0.32502 178.998 0.221609 178.408 0.236157C177.461 0.225908 176.532 0.498783 175.741 1.01981C174.95 1.54083 174.333 2.28627 173.968 3.16059L163.413 30.4997L152.979 3.45181C152.646 2.48944 152.015 1.65852 151.177 1.08011C150.339 0.501705 149.338 0.206028 148.32 0.236157C147.718 0.224819 147.12 0.334011 146.561 0.557306C146.002 0.7806 145.494 1.11349 145.065 1.53637C144.637 1.95925 144.297 2.46359 144.066 3.01969C143.836 3.5758 143.719 4.17243 143.722 4.77448C143.752 5.54008 143.938 6.29152 144.268 6.98297L157.808 39.3822C158.177 40.4603 158.879 41.3935 159.812 42.0476C160.745 42.7017 161.861 43.0431 163 43.0226M113.052 42.3673H136.503C137.041 42.3737 137.574 42.2738 138.073 42.0733C138.571 41.8728 139.025 41.5757 139.409 41.199C139.792 40.8223 140.097 40.3735 140.306 39.8785C140.516 39.3834 140.625 38.8519 140.628 38.3144C140.625 37.2223 140.189 36.176 139.416 35.4049C138.643 34.6338 137.595 34.2008 136.503 34.2008H117.589V25.4154H133.519C134.056 25.4218 134.589 25.3218 135.088 25.1213C135.587 24.9208 136.041 24.6237 136.424 24.247C136.807 23.8703 137.113 23.4216 137.322 22.9265C137.531 22.4315 137.641 21.8999 137.644 21.3624C137.641 20.2703 137.205 19.224 136.431 18.4529C135.658 17.6818 134.611 17.2488 133.519 17.2488H117.589V8.75462H136.212C136.749 8.75942 137.281 8.6583 137.778 8.45707C138.275 8.25584 138.728 7.95844 139.11 7.58193C139.492 7.20542 139.796 6.75719 140.004 6.26294C140.213 5.76869 140.322 5.23813 140.325 4.70167C140.322 3.61053 139.888 2.56481 139.118 1.79212C138.347 1.01943 137.303 0.582319 136.212 0.575924H113.052C112.446 0.572691 111.846 0.689843 111.285 0.92058C110.725 1.15132 110.217 1.49104 109.789 1.92003C109.361 2.34902 109.023 2.85873 108.793 3.41956C108.564 3.9804 108.449 4.58119 108.454 5.18706V37.7805C108.45 38.3848 108.567 38.9837 108.797 39.5424C109.027 40.1012 109.366 40.6087 109.794 41.0354C110.222 41.4621 110.73 41.7996 111.289 42.0283C111.848 42.2569 112.447 42.3722 113.052 42.3673ZM81.3015 38.1324C81.3015 39.3521 81.7859 40.5219 82.6482 41.3844C83.5105 42.2468 84.6801 42.7314 85.8996 42.7314C87.1191 42.7314 88.2887 42.2468 89.151 41.3844C90.0133 40.5219 90.4977 39.3521 90.4977 38.1324V9.07012H99.33C100.456 9.07012 101.536 8.62265 102.333 7.82617C103.129 7.02968 103.576 5.94942 103.576 4.82302C103.576 3.69662 103.129 2.61635 102.333 1.81987C101.536 1.02339 100.456 0.575924 99.33 0.575924H72.4692C71.343 0.575924 70.2629 1.02339 69.4666 1.81987C68.6702 2.61635 68.2229 3.69662 68.2229 4.82302C68.2229 5.94942 68.6702 7.02968 69.4666 7.82617C70.2629 8.62265 71.343 9.07012 72.4692 9.07012H81.3015V38.1324ZM53.7369 38.1324C53.7049 38.7554 53.7999 39.3784 54.0162 39.9635C54.2325 40.5486 54.5656 41.0836 54.9952 41.5359C55.4247 41.9882 55.9418 42.3484 56.5149 42.5945C57.0881 42.8406 57.7053 42.9675 58.329 42.9675C58.9527 42.9675 59.5699 42.8406 60.143 42.5945C60.7162 42.3484 61.2332 41.9882 61.6628 41.5359C62.0924 41.0836 62.4254 40.5486 62.6417 39.9635C62.8581 39.3784 62.9531 38.7554 62.9211 38.1324V4.83515C62.9531 4.21214 62.8581 3.58913 62.6417 3.00401C62.4254 2.41889 62.0924 1.88391 61.6628 1.43161C61.2332 0.979308 60.7162 0.619144 60.143 0.373031C59.5699 0.126918 58.9527 0 58.329 0C57.7053 0 57.0881 0.126918 56.5149 0.373031C55.9418 0.619144 55.4247 0.979308 54.9952 1.43161C54.5656 1.88391 54.2325 2.41889 54.0162 3.00401C53.7999 3.58913 53.7049 4.21214 53.7369 4.83515V38.1324ZM31.7775 42.9862C40.7918 42.9862 47.1127 38.3265 47.1127 30.0265V29.9051C47.1127 22.6244 42.3447 19.5786 33.8642 17.3702C26.6455 15.5257 24.85 14.6277 24.85 11.8853V11.764C24.85 9.73752 26.7062 8.12362 30.2246 8.12362C33.3467 8.2554 36.3761 9.22349 38.9962 10.9267C39.6949 11.3614 40.5027 11.5887 41.3256 11.582C42.2573 11.5956 43.1676 11.3024 43.9162 10.7475C44.6648 10.1926 45.2102 9.40676 45.4681 8.51123C45.7261 7.6157 45.6824 6.66015 45.3438 5.7919C45.0052 4.92366 44.3904 4.19091 43.5943 3.70664C39.6211 1.2419 35.0205 -0.0222416 30.3459 0.0662729C21.8533 0.0662729 15.7871 5.07784 15.7871 12.6619V12.7833C15.7265 20.9984 21.1011 23.3282 29.5937 25.476C36.5697 27.2719 38.0014 28.4611 38.0014 30.791V30.9123C38.0014 33.3392 35.7447 34.856 31.9352 34.856C28.0554 34.8137 24.2981 33.4913 21.2467 31.0943C20.4999 30.5493 19.5991 30.2561 18.6746 30.2571C18.1131 30.2474 17.5552 30.3498 17.0337 30.5585C16.5123 30.7671 16.0377 31.0777 15.6377 31.4721C15.2377 31.8665 14.9205 32.3367 14.7045 32.8553C14.4885 33.3738 14.3781 33.9303 14.3798 34.492C14.377 35.163 14.5313 35.8253 14.8305 36.4259C15.1297 37.0264 15.5653 37.5485 16.1026 37.9504C20.6754 41.2199 26.1564 42.9765 31.7775 42.9741" fill="#7B6A58"/>
</svg>
