<svg xmlns="http://www.w3.org/2000/svg" viewBox="0 0 372.12 177.32"><defs><style>.a{fill:#8bc43f;}.b{fill:#f37021;}</style></defs><title>logo-sitevi</title><path d="M161,109.09a4.86,4.86,0,0,1-2-3.92,4.79,4.79,0,0,1,4.87-4.8,5,5,0,0,1,3,.95,20,20,0,0,0,12.1,4.26c4.26,0,6.82-1.7,6.82-4.46V101c0-2.64-1.62-4-9.53-6-9.53-2.44-15.68-5.07-15.68-14.46v-.14c0-8.58,6.9-14.26,16.56-14.26a27.44,27.44,0,0,1,15,4.19,4.82,4.82,0,0,1-2.56,8.92,5,5,0,0,1-2.64-.74c-3.45-2-6.69-3.18-9.94-3.18-4,0-6.08,1.82-6.08,4.12v.14c0,3.1,2,4.13,10.21,6.21,9.6,2.5,15,6,15,14.19v.14c0,9.39-7.17,14.66-17.37,14.66A30.51,30.51,0,0,1,161,109.09"/><path d="M205.31,71.58a5.21,5.21,0,0,1,10.41,0v37.72a5.21,5.21,0,0,1-10.41,0Z"/><path d="M237.08,76.38h-10a4.8,4.8,0,0,1,0-9.6h30.4a4.8,4.8,0,0,1,0,9.6h-10v32.92a5.2,5.2,0,1,1-10.4,0Z"/><path d="M268.71,108.89V72a5.17,5.17,0,0,1,5.21-5.21h26.22a4.68,4.68,0,0,1,4.67,4.67A4.62,4.62,0,0,1,300.14,76H279.06v9.6h18a4.67,4.67,0,0,1,4.66,4.66,4.62,4.62,0,0,1-4.66,4.59h-18v9.94h21.42a4.68,4.68,0,0,1,4.67,4.66,4.61,4.61,0,0,1-4.67,4.59H273.92a5.16,5.16,0,0,1-5.21-5.19"/><path d="M326.4,110.71,311.06,74a6.51,6.51,0,0,1-.61-2.5,5.11,5.11,0,0,1,5.21-5.14A5.42,5.42,0,0,1,320.93,70l11.83,30.62,12-31a5.4,5.4,0,0,1,5-3.31,5,5,0,0,1,5.14,5,6,6,0,0,1-.54,2.3l-15.48,37a6.11,6.11,0,0,1-5.88,4.12h-.67a6.12,6.12,0,0,1-5.88-4.12"/><path d="M361.71,71.58a5.2,5.2,0,1,1,10.41,0v37.72a5.2,5.2,0,1,1-10.41,0Z"/><path d="M45,56.14a2.08,2.08,0,0,1-2.08-2.08V26.61a2.08,2.08,0,0,1,4.16,0V54.06A2.08,2.08,0,0,1,45,56.14"/><path class="a" d="M83.3,159.54a17.77,17.77,0,1,0-17.77,17.77A17.77,17.77,0,0,0,83.3,159.54"/><path d="M65.38,147.46a2.08,2.08,0,0,1-2.08-2.08v-8.61a6.24,6.24,0,0,1,6.24-6.23H84a2.08,2.08,0,0,1,0,4.16H69.54a2.08,2.08,0,0,0-2.08,2.08v8.61a2.08,2.08,0,0,1-2.08,2.08"/><path d="M92,55.78H82.47a6.24,6.24,0,0,1-6.23-6.23V40.62a2.08,2.08,0,1,1,4.16,0v8.92a2.08,2.08,0,0,0,2.08,2.08H92a2.08,2.08,0,1,1,0,4.16"/><path d="M109.92,69.31H92a2.08,2.08,0,0,1,0-4.16h17.9A2.08,2.08,0,0,0,112,63.08V51.44a2.08,2.08,0,1,1,4.16,0V63.08a6.24,6.24,0,0,1-6.23,6.23"/><path class="a" d="M27.21,112.94a8.32,8.32,0,1,0-8.31,8.31,8.32,8.32,0,0,0,8.31-8.31"/><path d="M124.47,101.94a2.08,2.08,0,0,1-1-.28L62.38,66.44a2.08,2.08,0,0,1,2.08-3.6l61.06,35.23a2.08,2.08,0,0,1-1,3.88"/><path d="M63.42,66.71a2.08,2.08,0,0,1-2.08-2.08V2.08a2.08,2.08,0,0,1,4.16,0V64.63a2.08,2.08,0,0,1-2.08,2.08"/><path d="M92,83.11A2.12,2.12,0,0,1,89.95,81v-65a2.08,2.08,0,1,1,4.16,0V81A2.12,2.12,0,0,1,92,83.11"/><path d="M2.08,101.94a2.08,2.08,0,0,1-1-3.88L62.38,62.83a2.08,2.08,0,0,1,2.08,3.6L3.12,101.66a2.08,2.08,0,0,1-1,.28"/><path class="b" d="M103.08,17.29A11.06,11.06,0,1,0,92,28.35a11.06,11.06,0,0,0,11.06-11.06"/><path class="b" d="M128,44.2a13.91,13.91,0,1,0-13.91,13.91A13.91,13.91,0,0,0,128,44.2"/><path class="b" d="M84.42,37.56a6.11,6.11,0,1,0-6.11,6.1,6.11,6.11,0,0,0,6.11-6.1"/><path d="M45,39.91c4.19,0,7.59-5.85,7.59-13.06S49.18,13.79,45,13.79,37.4,19.64,37.4,26.85,40.8,39.91,45,39.91"/><path d="M30.49,45.62c2.75-4.76-1.66-12.46-9.86-17.19S3.57,23.73.82,28.49,2.48,41,10.67,45.68s17.06,4.71,19.81-.06"/><path d="M32.28,61.36c-2.07-3.58-8.74-3.6-14.9,0S7.9,70.66,10,74.24s8.74,3.6,14.91,0,9.48-9.34,7.41-12.92"/><path d="M38.9,124A2.08,2.08,0,0,1,36.82,122v-17.5a6.24,6.24,0,0,1,6.23-6.24h11a2.08,2.08,0,0,1,0,4.16h-11A2.08,2.08,0,0,0,41,104.46V122A2.08,2.08,0,0,1,38.9,124"/><path class="a" d="M87.29,101A19.49,19.49,0,1,0,67.8,120.44,19.5,19.5,0,0,0,87.29,101"/><path class="a" d="M102.79,132.22a13,13,0,1,0-13,13,13,13,0,0,0,13-13"/><path class="a" d="M51.83,133.73a13,13,0,1,0-13,13,13,13,0,0,0,13-13"/><path d="M106.1,134.92H98.46a2.08,2.08,0,1,1,0-4.16h7.64c1.27,0,2.68-1.71,2.68-4.16v-11a2.08,2.08,0,1,1,4.16,0v11c0,4.58-3.07,8.31-6.84,8.31"/><path class="a" d="M119.78,111.14a8.86,8.86,0,1,0-8.86,8.86,8.86,8.86,0,0,0,8.86-8.86"/><path d="M38.9,114.67H23.38a2.08,2.08,0,1,1,0-4.16H38.9a2.08,2.08,0,1,1,0,4.16"/><path d="M87.87,103.11h-8a2.08,2.08,0,1,1,0-4.16h8a2.08,2.08,0,0,0,2.08-2.08V79.53a2.08,2.08,0,1,1,4.16,0V96.87a6.24,6.24,0,0,1-6.23,6.23"/><path d="M63.15,66.91a2.08,2.08,0,0,0,1-3.87L29.06,42.38A2.08,2.08,0,0,0,27,46L62.1,66.63a2.07,2.07,0,0,0,1,.28"/><path d="M29.7,65a2.08,2.08,0,0,1-1-3.88L44,52.26A2.08,2.08,0,1,1,46,55.86l-15.3,8.83a2.07,2.07,0,0,1-1,.28"/></svg>