<svg width="240" height="80" viewBox="0 0 240 80" fill="none" xmlns="http://www.w3.org/2000/svg">
<g clip-path="url(#clip0_152_3247)">
<path d="M239.992 50.2298H146.06V79.1507H239.992V50.2298Z" fill="#ACB698"/>
<path d="M146.06 0H0V79.1507H146.06V0Z" fill="white"/>
<mask id="mask0_152_3247" style="mask-type:luminance" maskUnits="userSpaceOnUse" x="0" y="0" width="240" height="80">
<path d="M240 0H0V79.1507H240V0Z" fill="white"/>
</mask>
<g mask="url(#mask0_152_3247)">
<path d="M13.3488 32.2919C12.8755 31.9419 12.5252 31.4509 12.3483 30.8894C12.1714 30.3279 12.177 29.7248 12.3642 29.1667C12.5514 28.6086 12.9107 28.1241 13.3904 27.7829C13.8701 27.4416 14.4455 27.2612 15.0342 27.2674C15.6473 27.2638 16.2458 27.455 16.7433 27.8133C18.7399 29.3813 21.1996 30.2439 23.7382 30.2663C26.1911 30.2663 27.6945 29.293 27.6945 27.7026V27.6234C27.6391 26.1121 26.7054 25.3208 22.1556 24.1577C16.6563 22.7571 13.1114 21.2379 13.1114 15.8256V15.7465C13.1114 10.801 17.0678 7.53309 22.6541 7.53309C25.7095 7.48569 28.7133 8.32389 31.3027 9.94647C31.8219 10.2623 32.2229 10.7401 32.4437 11.3062C32.6646 11.8724 32.6931 12.4955 32.5248 13.0794C32.3565 13.6634 32.0009 14.1758 31.5126 14.5377C31.0244 14.8995 30.4307 15.0907 29.823 15.0818C29.2864 15.0862 28.7595 14.938 28.3038 14.6545C26.5937 13.5404 24.6144 12.9089 22.575 12.8267C20.2803 12.8267 19.0697 13.8791 19.0697 15.2005V15.2796C19.0697 17.0679 20.2408 17.6534 24.9488 18.8562C30.4877 20.3042 33.5974 22.2903 33.5974 27.0379V27.117C33.5974 32.5293 29.467 35.6073 23.5878 35.6073C19.912 35.6007 16.3309 34.4411 13.3488 32.2919Z" fill="#7B6A58"/>
<path d="M37.981 10.6821C37.9601 10.2759 38.0221 9.86963 38.1632 9.48809C38.3043 9.10655 38.5215 8.7577 38.8016 8.46276C39.0818 8.16782 39.419 7.93297 39.7928 7.77248C40.1666 7.612 40.5692 7.52924 40.976 7.52924C41.3828 7.52924 41.7853 7.612 42.1591 7.77248C42.5329 7.93297 42.8701 8.16782 43.1503 8.46276C43.4304 8.7577 43.6477 9.10655 43.7887 9.48809C43.9298 9.86963 43.9918 10.2759 43.9709 10.6821V32.4421C43.9918 32.8483 43.9298 33.2546 43.7887 33.6361C43.6477 34.0177 43.4304 34.3665 43.1503 34.6614C42.8701 34.9564 42.5329 35.1912 42.1591 35.3517C41.7853 35.5122 41.3828 35.595 40.976 35.595C40.5692 35.595 40.1666 35.5122 39.7928 35.3517C39.419 35.1912 39.0818 34.9564 38.8016 34.6614C38.5215 34.3665 38.3043 34.0177 38.1632 33.6361C38.0221 33.2546 37.9601 32.8483 37.981 32.4421V10.6821Z" fill="#7B6A58"/>
<path d="M55.9825 13.4516H50.2141C49.4796 13.4516 48.7752 13.1598 48.2559 12.6405C47.7365 12.1211 47.4447 11.4167 47.4447 10.6822C47.4447 9.94766 47.7365 9.24324 48.2559 8.72387C48.7752 8.2045 49.4796 7.91272 50.2141 7.91272H67.7408C68.4753 7.91272 69.1797 8.2045 69.6991 8.72387C70.2184 9.24324 70.5102 9.94766 70.5102 10.6822C70.5102 11.4167 70.2184 12.1211 69.6991 12.6405C69.1797 13.1598 68.4753 13.4516 67.7408 13.4516H61.9803V32.4421C61.9803 33.2374 61.6644 34.0002 61.102 34.5626C60.5396 35.125 59.7768 35.441 58.9814 35.441C58.1861 35.441 57.4233 35.125 56.8609 34.5626C56.2985 34.0002 55.9825 33.2374 55.9825 32.4421V13.4516Z" fill="#7B6A58"/>
<path d="M73.7305 32.1809V10.9195C73.7262 10.5221 73.8016 10.1279 73.9522 9.76015C74.1028 9.39237 74.3255 9.05849 74.6073 8.77822C74.889 8.49794 75.2241 8.27696 75.5926 8.1283C75.9612 7.97965 76.3558 7.90634 76.7532 7.9127H91.8585C92.5706 7.9127 93.2537 8.19506 93.7581 8.69788C94.2624 9.2007 94.5467 9.88296 94.5488 10.5951C94.5468 10.946 94.4755 11.293 94.339 11.6162C94.2026 11.9395 94.0038 12.2326 93.7538 12.4789C93.5039 12.7251 93.2078 12.9196 92.8826 13.0512C92.5574 13.1829 92.2093 13.249 91.8585 13.2459H79.6888V18.7847H90.0861C90.7982 18.7847 91.4813 19.0671 91.9856 19.5699C92.4899 20.0727 92.7743 20.755 92.7764 21.4672C92.7743 21.818 92.703 22.165 92.5666 22.4883C92.4302 22.8115 92.2313 23.1047 91.9814 23.3509C91.7315 23.5972 91.4354 23.7917 91.1102 23.9233C90.7849 24.0549 90.4369 24.121 90.0861 24.1179H79.6888V29.8388H92.0326C92.7455 29.8409 93.4285 30.125 93.9326 30.6291C94.4367 31.1331 94.7208 31.8162 94.7229 32.5291C94.7208 32.8796 94.6495 33.2262 94.513 33.549C94.3765 33.8718 94.1775 34.1645 93.9274 34.4101C93.6774 34.6557 93.3813 34.8495 93.0561 34.9802C92.7309 35.111 92.383 35.1761 92.0326 35.1719H76.7532C76.3572 35.1783 75.9639 35.1055 75.5963 34.9578C75.2288 34.8101 74.8945 34.5905 74.613 34.312C74.3314 34.0334 74.1084 33.7014 73.9568 33.3354C73.8053 32.9695 73.7284 32.577 73.7305 32.1809Z" fill="#7B6A58"/>
<path d="M105.927 33.2333L97.0887 12.0827C96.8796 11.63 96.7613 11.1407 96.7405 10.6426C96.7383 10.25 96.8147 9.86091 96.9652 9.49829C97.1156 9.13566 97.337 8.8068 97.6165 8.53104C97.8959 8.25529 98.2277 8.03822 98.5923 7.89262C98.9569 7.74701 99.3469 7.67581 99.7394 7.6832C100.404 7.6641 101.058 7.85806 101.604 8.23673C102.151 8.6154 102.562 9.15895 102.778 9.78798L109.591 27.4254L116.483 9.59016C116.72 9.02255 117.12 8.53819 117.633 8.19864C118.146 7.85909 118.748 7.67968 119.363 7.6832C119.747 7.6748 120.129 7.74297 120.487 7.88375C120.845 8.02453 121.171 8.2351 121.446 8.50318C121.722 8.77127 121.941 9.0915 122.091 9.44522C122.242 9.79894 122.32 10.1791 122.322 10.5634C122.301 11.014 122.196 11.4566 122.014 11.869L113.096 33.2333C112.853 33.935 112.395 34.5421 111.787 34.9683C111.179 35.3945 110.452 35.618 109.709 35.6071H109.314C108.571 35.618 107.844 35.3945 107.236 34.9683C106.628 34.5421 106.17 33.935 105.927 33.2333Z" fill="#7B6A58"/>
<path d="M126.057 10.6822C126.057 9.88681 126.373 9.12402 126.935 8.56162C127.498 7.99921 128.261 7.68326 129.056 7.68326C129.851 7.68326 130.614 7.99921 131.177 8.56162C131.739 9.12402 132.055 9.88681 132.055 10.6822V32.4421C132.055 33.2374 131.739 34.0002 131.177 34.5626C130.614 35.125 129.851 35.441 129.056 35.441C128.261 35.441 127.498 35.125 126.935 34.5626C126.373 34.0002 126.057 33.2374 126.057 32.4421V10.6822Z" fill="#7B6A58"/>
</g>
<path d="M23.5798 43.3932H24.9883V48.5286H28.1534V49.85H23.5798V43.3932Z" fill="#751B42"/>
<path d="M31.3421 49.9133C30.9934 49.9186 30.6468 49.8568 30.3214 49.7313C30.0236 49.6152 29.7539 49.4372 29.5301 49.209C29.3006 48.9831 29.1177 48.7143 28.9921 48.4178C28.8617 48.0907 28.7971 47.7411 28.8022 47.3891C28.8028 47.0511 28.8645 46.7161 28.9841 46.4C29.101 46.1083 29.2699 45.8401 29.4826 45.6087C29.7044 45.3675 29.9751 45.1763 30.2767 45.048C30.5783 44.9198 30.9037 44.8574 31.2313 44.865C31.5963 44.8567 31.9584 44.9296 32.2917 45.0786C32.5798 45.22 32.8336 45.4225 33.0354 45.6721C33.2383 45.9247 33.3889 46.2152 33.4786 46.5266C33.562 46.8361 33.602 47.1557 33.5972 47.4761C33.6012 47.5341 33.6012 47.5923 33.5972 47.6502C33.5972 47.7135 33.5972 47.7768 33.5972 47.848H30.1631C30.2092 48.1316 30.3586 48.3881 30.5825 48.5681C30.8115 48.7352 31.0907 48.8189 31.3738 48.8055C31.588 48.8086 31.8007 48.7683 31.9989 48.6868C32.2073 48.5904 32.3994 48.4622 32.5686 48.307L33.3599 49.0112C33.128 49.2924 32.8395 49.5215 32.5132 49.6838C32.1454 49.8483 31.7449 49.9268 31.3421 49.9133ZM32.2442 46.9697C32.2174 46.6781 32.1013 46.4018 31.9118 46.1785C31.8219 46.083 31.7124 46.0082 31.5909 45.959C31.4693 45.9099 31.3386 45.8875 31.2076 45.8936C31.0756 45.8885 30.9439 45.9112 30.8212 45.9602C30.6985 46.0093 30.5875 46.0837 30.4955 46.1785C30.2965 46.3974 30.1743 46.6751 30.1473 46.9697H32.2442Z" fill="#751B42"/>
<path d="M39.1045 49.8974C38.7407 49.8974 38.3796 49.8359 38.0363 49.7155C37.6576 49.5915 37.3039 49.4013 36.9918 49.1537L37.5932 48.2674C37.8348 48.4496 38.1013 48.5961 38.3845 48.7026C38.6208 48.7988 38.8731 48.8498 39.1282 48.853C39.2828 48.8628 39.4369 48.827 39.5714 48.7501C39.6153 48.7203 39.6513 48.6802 39.6761 48.6333C39.7009 48.5864 39.7139 48.5341 39.7138 48.4811C39.7141 48.4457 39.7073 48.4106 39.6937 48.378C39.6801 48.3454 39.66 48.3158 39.6347 48.2912C39.5693 48.2316 39.4944 48.1835 39.4131 48.1487L39.0808 48.0301L38.701 47.9114C38.5235 47.8641 38.3491 47.8059 38.1787 47.7373C38.0101 47.6688 37.8528 47.5755 37.7119 47.4603C37.5693 47.3448 37.451 47.2023 37.3637 47.041C37.2721 46.8542 37.2286 46.6475 37.2371 46.4396C37.2321 46.21 37.2809 45.9823 37.3795 45.7749C37.4669 45.5845 37.5969 45.4166 37.7594 45.2843C37.9266 45.1461 38.1206 45.0438 38.3291 44.9837C38.5542 44.9125 38.7893 44.8778 39.0254 44.8808C39.3478 44.8805 39.6683 44.9312 39.9749 45.0311C40.2891 45.1271 40.5877 45.2684 40.8611 45.4505L40.3547 46.3526C40.1286 46.2191 39.8901 46.1078 39.6426 46.0202C39.4408 45.9406 39.2264 45.8978 39.0096 45.8936C38.8736 45.8837 38.7379 45.917 38.6218 45.9886C38.584 46.0176 38.553 46.0547 38.5311 46.0971C38.5093 46.1395 38.497 46.1862 38.4952 46.2339C38.496 46.2686 38.5042 46.3028 38.5192 46.3342C38.5342 46.3656 38.5557 46.3934 38.5823 46.4159C38.646 46.4758 38.718 46.5264 38.7959 46.5662L39.1124 46.6928L39.4922 46.8273C39.67 46.8801 39.8444 46.9435 40.0145 47.0172C40.1852 47.0895 40.3451 47.1854 40.4892 47.3021C40.6316 47.4114 40.7501 47.5487 40.8374 47.7056C40.937 47.8814 40.9863 48.0813 40.9798 48.2833C40.9865 48.5283 40.9378 48.7717 40.8374 48.9954C40.7443 49.1867 40.609 49.3544 40.4418 49.486C40.2603 49.6168 40.0565 49.7133 39.8404 49.7708C39.602 49.8463 39.3544 49.8889 39.1045 49.8974Z" fill="#751B42"/>
<path d="M43.3694 49.8975C43.147 49.8987 42.9256 49.8667 42.7127 49.8025C42.5184 49.7447 42.338 49.6477 42.1825 49.5176C42.0288 49.3871 41.9047 49.2252 41.8186 49.0429C41.727 48.839 41.6811 48.6175 41.684 48.394C41.6767 48.1532 41.7283 47.9141 41.8344 47.6977C41.9258 47.5053 42.0647 47.3392 42.2379 47.215C42.424 47.0756 42.6368 46.9759 42.863 46.9223C43.1216 46.8569 43.3876 46.825 43.6543 46.8273C43.8745 46.8233 44.0946 46.8419 44.3111 46.8827C44.4959 46.9218 44.6782 46.972 44.857 47.0331V46.946C44.8647 46.8222 44.8445 46.6982 44.7979 46.5832C44.7514 46.4681 44.6796 46.365 44.588 46.2814C44.3624 46.1081 44.0799 46.0262 43.7967 46.0519C43.5579 46.0505 43.3194 46.0716 43.0846 46.1152C42.864 46.1662 42.6473 46.2323 42.4357 46.313L42.0876 45.2527C42.3609 45.133 42.6442 45.0377 42.9342 44.9678C43.2821 44.8894 43.638 44.8522 43.9945 44.8571C44.3273 44.8489 44.659 44.897 44.9757 44.9995C45.2315 45.0818 45.4645 45.2227 45.6562 45.411C45.8422 45.5986 45.9782 45.8298 46.0518 46.0835C46.1443 46.3725 46.1897 46.6743 46.1864 46.9777V49.85H44.8412V49.3119C44.6655 49.5016 44.4563 49.6572 44.224 49.7709C43.9513 49.8731 43.66 49.9162 43.3694 49.8975ZM43.7888 48.94C44.0735 48.9559 44.3543 48.8689 44.5801 48.6947C44.6733 48.621 44.7488 48.5273 44.8008 48.4204C44.8529 48.3136 44.8802 48.1964 44.8808 48.0775V47.8322C44.7491 47.7721 44.6111 47.727 44.4693 47.6977C44.3135 47.6623 44.1543 47.6437 43.9945 47.6423C43.7478 47.6304 43.5031 47.6909 43.2903 47.8164C43.2067 47.8711 43.1387 47.9464 43.093 48.0352C43.0472 48.1239 43.0252 48.223 43.0292 48.3228C43.025 48.4087 43.0423 48.4942 43.0796 48.5716C43.1169 48.649 43.173 48.7158 43.2428 48.7659C43.4013 48.8813 43.5928 48.9423 43.7888 48.94Z" fill="#751B42"/>
<path d="M47.4762 43.1242H48.8688V49.85H47.4762V43.1242Z" fill="#751B42"/>
<path d="M52.5718 49.9133C52.2114 49.9181 51.8536 49.8508 51.5195 49.7154C51.2093 49.5955 50.9264 49.4146 50.6872 49.1836C50.448 48.9526 50.2575 48.6761 50.1268 48.3703C49.9924 48.0581 49.925 47.7211 49.929 47.3812C49.9257 47.0414 49.9931 46.7045 50.1268 46.3921C50.3958 45.7714 50.8992 45.2823 51.5274 45.0311C51.8668 44.8951 52.2299 44.8279 52.5956 44.8333C52.9551 44.8306 53.3121 44.895 53.648 45.0232C53.9597 45.1503 54.2443 45.3356 54.4867 45.5692C54.7188 45.7963 54.9066 46.0647 55.0406 46.3605C55.175 46.6727 55.2424 47.0096 55.2384 47.3496C55.2423 47.692 55.175 48.0315 55.0406 48.3465C54.9066 48.6444 54.7158 48.9131 54.4788 49.1378C54.2375 49.3747 53.9527 49.5628 53.6401 49.6917C53.3023 49.8359 52.9391 49.9112 52.5718 49.9133ZM52.5718 48.7184C52.7546 48.721 52.9356 48.6831 53.102 48.6077C53.2556 48.5436 53.3933 48.4466 53.5054 48.3235C53.6175 48.2005 53.7013 48.0544 53.7508 47.8955C53.8124 47.7312 53.8419 47.5566 53.8379 47.3812C53.8621 47.2015 53.8513 47.0188 53.8062 46.8431C53.7443 46.685 53.653 46.54 53.5372 46.4159C53.4231 46.2874 53.2828 46.1849 53.1257 46.1152C52.9616 46.0413 52.7835 46.0035 52.6035 46.0044C52.4217 46.0033 52.2415 46.0383 52.0733 46.1073C51.9206 46.177 51.7834 46.2765 51.6698 46.4C51.5582 46.5245 51.4721 46.6697 51.4166 46.8273C51.3593 46.9928 51.3299 47.1666 51.3296 47.3416C51.3282 47.5201 51.3604 47.6973 51.4245 47.8639C51.4866 48.0201 51.5749 48.1646 51.6856 48.2912C51.8013 48.4179 51.9412 48.5202 52.0971 48.5918C52.2528 48.6677 52.4225 48.7108 52.5956 48.7184H52.5718Z" fill="#751B42"/>
<path d="M56.2434 44.8966H57.636V45.593C57.7165 45.4872 57.8037 45.3868 57.8972 45.2923C57.9956 45.2018 58.1014 45.1197 58.2137 45.047C58.3327 44.9684 58.4636 44.9096 58.6014 44.8729C58.7552 44.8266 58.9155 44.8052 59.0762 44.8096C59.3046 44.796 59.5332 44.8322 59.7463 44.9155C59.9594 44.9988 60.1519 45.1274 60.3105 45.2923C60.6165 45.6686 60.7716 46.1452 60.7457 46.6295V49.7946H59.3452V47.0647C59.3657 46.7979 59.2867 46.533 59.1236 46.3209C59.0445 46.2353 58.9475 46.1682 58.8394 46.1244C58.7313 46.0806 58.6149 46.0613 58.4985 46.0677C58.3808 46.0601 58.2629 46.0788 58.1533 46.1227C58.0438 46.1665 57.9455 46.2342 57.8655 46.3209C57.6939 46.5293 57.609 46.7955 57.6281 47.0647V49.85H56.2434V44.8966Z" fill="#751B42"/>
<path d="M64.7258 43.1242H66.1897V44.3586H64.7258V43.1242ZM64.7258 44.8966H66.1185V49.85H64.7654L64.7258 44.8966Z" fill="#751B42"/>
<path d="M67.4637 44.8966H68.8406V45.593C68.921 45.4872 69.0083 45.3868 69.1017 45.2923C69.2001 45.2018 69.306 45.1197 69.4182 45.047C69.5372 44.9684 69.6681 44.9096 69.8059 44.8729C69.9598 44.8266 70.12 44.8052 70.2807 44.8096C70.5091 44.796 70.7377 44.8322 70.9508 44.9155C71.1639 44.9988 71.3564 45.1274 71.515 45.2923C71.841 45.6605 72.0161 46.1379 72.0056 46.6295V49.7946H70.5734V47.0647C70.5903 46.7983 70.5117 46.5347 70.3519 46.3209C70.2728 46.2353 70.1757 46.1682 70.0677 46.1244C69.9596 46.0806 69.8432 46.0613 69.7268 46.0677C69.6091 46.0601 69.4911 46.0788 69.3816 46.1227C69.2721 46.1665 69.1737 46.2342 69.0938 46.3209C68.9222 46.5293 68.8372 46.7955 68.8564 47.0647V49.85H67.4637V44.8966Z" fill="#751B42"/>
<path d="M74.8304 49.8895C74.633 49.8917 74.4361 49.8678 74.2449 49.8183C74.0795 49.778 73.927 49.6963 73.8018 49.5809C73.6697 49.4529 73.5695 49.2957 73.509 49.122C73.4294 48.896 73.3919 48.6573 73.3982 48.4178V46.0914H72.7969V44.8966H73.3824V43.6464H74.775V44.8966H75.962V46.0914H74.7909V48.1883C74.7909 48.5048 74.9412 48.6631 75.2419 48.6631C75.4821 48.6618 75.7184 48.602 75.9303 48.489V49.6047C75.777 49.6954 75.6119 49.7646 75.4397 49.8104C75.2418 49.8675 75.0364 49.8942 74.8304 49.8895Z" fill="#751B42"/>
<path d="M79.1745 49.9133C78.8256 49.92 78.4788 49.8582 78.1537 49.7313C77.8564 49.6144 77.5868 49.4365 77.3625 49.2091C77.1353 48.9829 76.9551 48.714 76.8323 48.4178C76.7019 48.0908 76.6374 47.7412 76.6424 47.3892C76.6161 47.045 76.6537 46.6989 76.7532 46.3684C76.8701 46.0767 77.039 45.8085 77.2517 45.5771C77.4747 45.3375 77.7457 45.1474 78.0469 45.0192C78.3482 44.8911 78.673 44.8278 79.0004 44.8334C79.3656 44.822 79.7284 44.8951 80.0607 45.047C80.3654 45.1834 80.6357 45.3861 80.852 45.6405C81.0524 45.8936 81.2003 46.1841 81.2872 46.495C81.379 46.8139 81.4243 47.1444 81.4217 47.4762V47.6503C81.4217 47.7136 81.4217 47.7769 81.4217 47.8481H77.9876C78.0371 48.1304 78.1858 48.3858 78.4069 48.5681C78.6373 48.7324 78.9155 48.8159 79.1982 48.8055C79.4125 48.8087 79.6251 48.7683 79.8233 48.6868C80.0302 48.5919 80.22 48.4636 80.3851 48.307L81.1764 49.0113C80.9475 49.2922 80.6616 49.5214 80.3376 49.6838C79.972 49.8464 79.5745 49.9248 79.1745 49.9133ZM80.0686 46.9698C80.049 46.6764 79.932 46.3979 79.7363 46.1785C79.5474 45.9958 79.2949 45.8936 79.032 45.8936C78.7692 45.8936 78.5167 45.9958 78.3278 46.1785C78.1297 46.3988 78.0052 46.6754 77.9717 46.9698H80.0686Z" fill="#751B42"/>
<path d="M82.4583 44.8966H83.8746V45.8936C84.0025 45.5883 84.2004 45.3172 84.4523 45.1024C84.7358 44.8902 85.0894 44.794 85.4413 44.8333V46.2893H85.3701C85.1675 46.2773 84.9647 46.3084 84.7751 46.3807C84.5855 46.453 84.4134 46.5648 84.2703 46.7086C83.9784 47.0784 83.8371 47.5447 83.8746 48.0142V49.85H82.482L82.4583 44.8966Z" fill="#751B42"/>
<path d="M86.288 44.8966H87.6806V45.593C87.7611 45.4872 87.8483 45.3868 87.9417 45.2923C88.0386 45.2 88.1447 45.1178 88.2582 45.047C88.3744 44.9685 88.5027 44.9096 88.638 44.8729C88.7945 44.826 88.9575 44.8046 89.1207 44.8096C89.3478 44.7972 89.5749 44.8339 89.7866 44.9172C89.9982 45.0005 90.1894 45.1284 90.3472 45.2923C90.6566 45.6667 90.8122 46.1447 90.7824 46.6295V49.7946H89.4135V47.0647C89.4326 46.7993 89.3569 46.5357 89.1998 46.3209C89.1207 46.2353 89.0237 46.1682 88.9156 46.1244C88.8075 46.0806 88.6911 46.0613 88.5747 46.0677C88.4561 46.0626 88.3378 46.0825 88.2273 46.1262C88.1169 46.1698 88.0169 46.2361 87.9338 46.3209C87.7679 46.5319 87.6861 46.7969 87.7043 47.0647V49.85H86.3117L86.288 44.8966Z" fill="#751B42"/>
<path d="M93.3698 49.8975C93.1474 49.8987 92.926 49.8667 92.713 49.8025C92.5188 49.7447 92.3384 49.6477 92.1829 49.5176C92.0292 49.3871 91.9051 49.2252 91.8189 49.0429C91.7274 48.839 91.6815 48.6175 91.6844 48.394C91.6771 48.1532 91.7287 47.9141 91.8347 47.6977C91.9262 47.5053 92.0651 47.3392 92.2383 47.215C92.4243 47.0756 92.6371 46.9759 92.8634 46.9223C93.122 46.8569 93.3879 46.825 93.6547 46.8273C93.8749 46.8233 94.095 46.8419 94.3114 46.8827C94.4963 46.9218 94.6786 46.972 94.8574 47.0331V46.946C94.865 46.8222 94.8448 46.6982 94.7983 46.5832C94.7517 46.4681 94.68 46.365 94.5884 46.2814C94.3628 46.1081 94.0803 46.0262 93.7971 46.0519C93.5582 46.0505 93.3198 46.0716 93.0849 46.1152C92.8644 46.1662 92.6476 46.2323 92.4361 46.313L92.0879 45.2527C92.3612 45.133 92.6446 45.0377 92.9346 44.9678C93.2825 44.8894 93.6384 44.8522 93.9949 44.8571C94.3277 44.8489 94.6594 44.897 94.9761 44.9995C95.2319 45.0818 95.4649 45.2227 95.6566 45.411C95.8433 45.5993 95.9818 45.8301 96.0601 46.0835C96.1459 46.3738 96.1886 46.675 96.1867 46.9777V49.85H94.8416V49.3119C94.6659 49.5016 94.4566 49.6572 94.2244 49.7709C93.9517 49.8731 93.6604 49.9162 93.3698 49.8975ZM93.7892 48.94C94.0738 48.9559 94.3547 48.8689 94.5804 48.6947C94.6737 48.621 94.7492 48.5273 94.8012 48.4204C94.8533 48.3136 94.8806 48.1964 94.8811 48.0775V47.8322C94.7518 47.7733 94.6165 47.7282 94.4776 47.6977C94.319 47.6628 94.1573 47.6442 93.9949 47.6423C93.7482 47.6304 93.5034 47.6909 93.2907 47.8164C93.2071 47.8711 93.1391 47.9464 93.0933 48.0352C93.0476 48.1239 93.0256 48.223 93.0296 48.3228C93.0253 48.4087 93.0426 48.4942 93.08 48.5716C93.1173 48.649 93.1734 48.7158 93.2432 48.7659C93.406 48.8846 93.6036 48.9458 93.805 48.94H93.7892Z" fill="#751B42"/>
<path d="M99.0274 49.8895C98.8325 49.8918 98.6382 49.8678 98.4498 49.8183C98.282 49.778 98.127 49.6964 97.9987 49.5809C97.8667 49.4529 97.7664 49.2957 97.706 49.122C97.6264 48.896 97.5888 48.6573 97.5952 48.4178V46.0914H97.0096V44.8966H97.5952V43.6464H98.9878V44.8966H100.143V46.0914H98.9878V48.1883C98.9878 48.5048 99.1382 48.6631 99.4388 48.6631C99.679 48.6618 99.9153 48.602 100.127 48.489V49.6047C99.976 49.694 99.8137 49.7631 99.6446 49.8104C99.4439 49.867 99.2359 49.8937 99.0274 49.8895Z" fill="#751B42"/>
<path d="M101.196 43.1242H102.667V44.3586H101.196V43.1242ZM101.196 44.8966H102.588V49.85H101.196V44.8966Z" fill="#751B42"/>
<path d="M106.347 49.9133C105.986 49.9181 105.628 49.8508 105.294 49.7155C104.984 49.5955 104.701 49.4146 104.462 49.1836C104.223 48.9526 104.032 48.6761 103.902 48.3703C103.764 48.0587 103.694 47.7217 103.696 47.3812C103.695 47.0408 103.765 46.704 103.902 46.3921C104.035 46.0962 104.223 45.8279 104.455 45.6008C104.702 45.3688 104.989 45.1837 105.302 45.0549C105.639 44.9195 105.999 44.8522 106.362 44.8571C106.722 44.8535 107.079 44.918 107.415 45.047C107.727 45.174 108.011 45.3593 108.254 45.5929C108.488 45.8181 108.676 46.0869 108.807 46.3842C108.945 46.6958 109.015 47.0328 109.013 47.3733C109.009 47.7117 108.937 48.0458 108.801 48.3557C108.665 48.6656 108.468 48.9451 108.222 49.1774C107.979 49.4161 107.691 49.6043 107.375 49.7313C107.047 49.8572 106.698 49.919 106.347 49.9133ZM106.347 48.7184C106.532 48.7208 106.715 48.683 106.885 48.6077C107.036 48.5435 107.171 48.4462 107.28 48.3228C107.395 48.2004 107.481 48.0546 107.533 47.8955C107.591 47.7301 107.62 47.5563 107.621 47.3812C107.62 47.2061 107.591 47.0323 107.533 46.8669C107.472 46.7087 107.38 46.5638 107.264 46.4396C107.149 46.3128 107.009 46.2106 106.853 46.1389C106.689 46.0651 106.511 46.0273 106.331 46.0281C106.146 46.0271 105.964 46.062 105.793 46.131C105.642 46.2009 105.508 46.3004 105.397 46.4238C105.283 46.5462 105.196 46.692 105.144 46.8511C105.087 47.0165 105.057 47.1903 105.057 47.3654C105.055 47.5439 105.088 47.721 105.152 47.8876C105.208 48.0469 105.297 48.1925 105.413 48.3149C105.529 48.4417 105.668 48.5439 105.824 48.6156C105.993 48.6905 106.178 48.7257 106.362 48.7184H106.347Z" fill="#751B42"/>
<path d="M109.986 44.8966H111.379V45.593C111.46 45.4872 111.547 45.3868 111.64 45.2923C111.737 45.2 111.843 45.1178 111.957 45.047C112.073 44.9685 112.201 44.9096 112.337 44.8729C112.493 44.826 112.656 44.8046 112.819 44.8096C113.046 44.7972 113.273 44.8339 113.485 44.9172C113.697 45.0005 113.888 45.1284 114.046 45.2923C114.355 45.6667 114.511 46.1447 114.481 46.6295V49.7946H113.152V47.0647C113.171 46.7993 113.095 46.5357 112.938 46.3209C112.859 46.2353 112.762 46.1682 112.654 46.1244C112.546 46.0806 112.429 46.0613 112.313 46.0677C112.194 46.0626 112.076 46.0825 111.965 46.1262C111.855 46.1698 111.755 46.2361 111.672 46.3209C111.506 46.5319 111.424 46.7969 111.442 47.0647V49.85H109.986V44.8966Z" fill="#751B42"/>
<path d="M117.108 49.8975C116.885 49.8987 116.664 49.8667 116.451 49.8025C116.257 49.7447 116.076 49.6477 115.921 49.5177C115.767 49.3871 115.643 49.2253 115.557 49.0429C115.465 48.839 115.42 48.6175 115.422 48.394C115.415 48.1532 115.467 47.9141 115.573 47.6977C115.664 47.5053 115.803 47.3392 115.976 47.2151C116.162 47.0756 116.375 46.9759 116.601 46.9223C116.86 46.8569 117.126 46.825 117.393 46.8273C117.613 46.8233 117.833 46.8419 118.049 46.8827C118.234 46.9218 118.417 46.972 118.595 47.0331V46.946C118.606 46.8219 118.587 46.697 118.541 46.5815C118.494 46.466 118.42 46.3631 118.326 46.2814C118.101 46.1082 117.818 46.0262 117.535 46.0519C117.296 46.0505 117.058 46.0716 116.823 46.1152C116.602 46.1662 116.386 46.2323 116.174 46.313L115.826 45.2527C116.099 45.133 116.383 45.0377 116.673 44.9679C117.021 44.8894 117.376 44.8522 117.733 44.8571C118.068 44.8496 118.402 44.8978 118.722 44.9995C118.975 45.0839 119.204 45.2246 119.395 45.411C119.581 45.5994 119.72 45.8301 119.798 46.0835C119.884 46.3738 119.927 46.675 119.925 46.9777V49.85H118.58V49.3119C118.404 49.5016 118.195 49.6572 117.962 49.7709C117.69 49.8731 117.398 49.9162 117.108 49.8975ZM117.527 48.94C117.812 48.9559 118.093 48.8689 118.318 48.6947C118.415 48.624 118.493 48.5309 118.545 48.4233C118.598 48.3158 118.623 48.1971 118.619 48.0775V47.8322C118.49 47.7733 118.355 47.7282 118.216 47.6977C118.057 47.6628 117.895 47.6442 117.733 47.6423C117.486 47.6304 117.241 47.6909 117.029 47.8164C116.945 47.8711 116.877 47.9464 116.831 48.0352C116.786 48.1239 116.764 48.2231 116.768 48.3228C116.763 48.4087 116.781 48.4942 116.818 48.5716C116.855 48.649 116.911 48.7158 116.981 48.7659C117.142 48.8829 117.336 48.944 117.535 48.94H117.527Z" fill="#751B42"/>
<path d="M121.214 43.1242H122.647V49.85H121.254L121.214 43.1242Z" fill="#751B42"/>
<path d="M10.2865 60.5875C10.0146 60.5824 9.74615 60.526 9.4952 60.4213C9.22467 60.3121 8.98152 60.1446 8.78306 59.9308C8.56248 59.7055 8.39253 59.4357 8.28456 59.1395C8.15159 58.7939 8.08709 58.4257 8.09465 58.0554C8.07756 57.6873 8.13129 57.3193 8.25291 56.9714C8.3626 56.6779 8.52934 56.4089 8.74349 56.1801C8.94406 55.9687 9.18663 55.8016 9.45563 55.6895C9.71679 55.5694 9.99918 55.5021 10.2865 55.4917C10.6093 55.4821 10.9288 55.5586 11.2123 55.7133C11.4406 55.8523 11.6461 56.0258 11.8215 56.2276V53.8063H13.2142V60.4926H11.869V59.7883C11.7009 60.0203 11.4884 60.2166 11.2439 60.366C10.9542 60.5342 10.6206 60.6114 10.2865 60.5875ZM10.6425 59.4085C10.8003 59.4071 10.9562 59.3734 11.1004 59.3094C11.2447 59.2454 11.3743 59.1526 11.4813 59.0366C11.5972 58.9109 11.686 58.7628 11.7424 58.6014C11.8079 58.4242 11.8401 58.2364 11.8374 58.0475C11.839 57.8587 11.8068 57.6711 11.7424 57.4936C11.6841 57.3355 11.5954 57.1904 11.4813 57.0664C11.3791 56.9479 11.2521 56.8534 11.1094 56.7894C10.9631 56.7269 10.8056 56.6947 10.6465 56.6947C10.4874 56.6947 10.3299 56.7269 10.1836 56.7894C10.0396 56.8551 9.91038 56.9493 9.80379 57.0664C9.69146 57.1887 9.60291 57.3309 9.54268 57.4857C9.4773 57.6657 9.44512 57.8561 9.44772 58.0475C9.44502 58.2364 9.47721 58.4242 9.54268 58.6014C9.59904 58.7628 9.68792 58.9109 9.80379 59.0366C9.91069 59.1513 10.0399 59.2429 10.1836 59.3056C10.3289 59.3764 10.4889 59.4117 10.6505 59.4085H10.6425ZM16.7828 60.6033C16.434 60.6086 16.0875 60.5468 15.7621 60.4213C15.4643 60.3053 15.1946 60.1273 14.9708 59.8991C14.7396 59.6746 14.5565 59.4054 14.4327 59.1078C14.3023 58.7808 14.2378 58.4312 14.2428 58.0792C14.2401 57.7416 14.2991 57.4064 14.4169 57.0901C14.5338 56.7983 14.7027 56.5302 14.9154 56.2988C15.14 56.0658 15.4091 55.8801 15.7067 55.7528C16.0178 55.6141 16.3551 55.5439 16.6958 55.5471C17.0613 55.5413 17.4235 55.617 17.7561 55.7687C18.0442 55.9101 18.298 56.1126 18.4998 56.3621C18.7011 56.6129 18.8516 56.9005 18.943 57.2088C19.0384 57.5352 19.0864 57.8736 19.0854 58.2137C19.0854 58.2691 19.0854 58.3324 19.0854 58.3878C19.0567 58.4448 19.025 58.5003 18.9904 58.5539H15.6117C15.6561 58.834 15.8027 59.0877 16.0232 59.2661C16.2508 59.4366 16.5303 59.5232 16.8144 59.5114C17.0212 59.4954 17.2229 59.439 17.4079 59.3452C17.618 59.2485 17.8106 59.1175 17.9776 58.9575L18.7689 59.6696C18.5417 59.9524 18.2555 60.1819 17.9301 60.3422C17.5742 60.5122 17.1851 60.6014 16.7907 60.6033H16.7828ZM17.6769 57.6598C17.6583 57.3677 17.5443 57.0897 17.3525 56.8685C17.2619 56.774 17.1523 56.6997 17.031 56.6506C16.9096 56.6015 16.7791 56.5787 16.6483 56.5837C16.517 56.579 16.3861 56.6011 16.2636 56.6487C16.1412 56.6963 16.0297 56.7684 15.9361 56.8606C15.7376 57.0806 15.6131 57.3574 15.5801 57.6519L17.6769 57.6598ZM21.7915 60.5875C21.4281 60.5836 21.0675 60.5222 20.7233 60.4055C20.3471 60.2815 19.996 60.0913 19.6868 59.8437L20.2802 58.9258C20.5219 59.1099 20.7883 59.259 21.0715 59.369C21.3241 59.466 21.5921 59.5169 21.8627 59.5193C22.0173 59.5291 22.1714 59.4933 22.3059 59.4164C22.3498 59.3867 22.3857 59.3466 22.4106 59.2997C22.4354 59.2527 22.4484 59.2005 22.4483 59.1474C22.4472 59.1115 22.4389 59.0763 22.4239 59.0437C22.409 59.011 22.3877 58.9817 22.3612 58.9575C22.2975 58.8959 22.2222 58.8475 22.1397 58.8151L21.8153 58.6964L21.4038 58.5539C21.2376 58.5065 21.0636 58.4432 20.8895 58.3799C20.7193 58.3096 20.5596 58.2165 20.4147 58.1029C20.2746 57.9871 20.1589 57.8445 20.0745 57.6835C19.9811 57.4971 19.9349 57.2906 19.94 57.0822C19.9356 56.8552 19.9843 56.6302 20.0824 56.4254C20.1725 56.2345 20.3052 56.0667 20.4701 55.9348C20.6359 55.797 20.8266 55.6922 21.0319 55.6262C21.261 55.5615 21.4981 55.5296 21.7361 55.5313C22.0585 55.5328 22.3787 55.5835 22.6857 55.6816C22.9958 55.7783 23.2912 55.9167 23.564 56.0931L23.0338 57.0584C22.8077 56.9249 22.5692 56.8136 22.3217 56.7261C22.1253 56.6469 21.9162 56.604 21.7045 56.5995C21.5711 56.5908 21.4383 56.624 21.3247 56.6945C21.285 56.7218 21.2527 56.7585 21.2307 56.8012C21.2086 56.844 21.1974 56.8916 21.1981 56.9398C21.1974 56.974 21.2041 57.008 21.2177 57.0394C21.2314 57.0708 21.2517 57.0989 21.2772 57.1217C21.3426 57.1813 21.4175 57.2294 21.4988 57.2642C21.6002 57.318 21.7061 57.363 21.8153 57.3987L22.1951 57.5253L22.7173 57.7231C22.8861 57.7992 23.0455 57.8948 23.1921 58.008C23.334 58.1146 23.4525 58.2493 23.5402 58.4036C23.6356 58.5808 23.6821 58.7802 23.6748 58.9812C23.6819 59.2238 23.6332 59.4647 23.5323 59.6855C23.4461 59.8811 23.3096 60.0503 23.1367 60.176C22.9576 60.3125 22.7532 60.412 22.5353 60.4688C22.2965 60.5415 22.049 60.5815 21.7994 60.5875H21.7915ZM27.6944 56.7736H27.1168V55.6342H27.6944V55.3177C27.6762 55.1033 27.7019 54.8875 27.7699 54.6834C27.838 54.4794 27.9469 54.2913 28.09 54.1307C28.2411 53.9931 28.4187 53.8878 28.6119 53.8211C28.8051 53.7545 29.0098 53.7279 29.2136 53.743C29.4006 53.7286 29.5884 53.7286 29.7754 53.743C29.9211 53.7624 30.0643 53.7968 30.2027 53.8459V55.0011C30.1056 54.9623 30.0049 54.9331 29.902 54.9141C29.7917 54.9011 29.6801 54.9011 29.5697 54.9141C29.2374 54.9141 29.0712 55.0961 29.0712 55.4522V55.6421H30.1948V56.7736H29.087V60.4926H27.6944V56.7736ZM30.9465 53.8063H32.442V55.0486H30.9465V53.8063ZM30.9465 55.5867H32.3392V60.4926H30.9861L30.9465 55.5867ZM33.7555 53.8063H35.1482V60.4926H33.7555V53.8063ZM36.4854 53.8063H37.9809V55.0486H36.4854V53.8063ZM36.4854 55.5867H37.878V60.4926H36.5171L36.4854 55.5867ZM41.5179 60.6033C41.169 60.61 40.8222 60.5482 40.4971 60.4213C40.1994 60.3053 39.9296 60.1273 39.7059 59.8991C39.4747 59.6746 39.2916 59.4054 39.1678 59.1078C39.0374 58.7808 38.9729 58.4312 38.9779 58.0792C38.9752 57.7416 39.0342 57.4064 39.152 57.0901C39.2689 56.7983 39.4378 56.5302 39.6505 56.2988C39.8708 56.0525 40.1402 55.8548 40.4413 55.7186C40.7424 55.5823 41.0687 55.5104 41.3992 55.5076C41.7673 55.5011 42.1322 55.5768 42.4674 55.7291C42.7542 55.8726 43.0076 56.0748 43.2112 56.3226C43.4125 56.5733 43.563 56.8609 43.6543 57.1692C43.7433 57.4968 43.7885 57.8347 43.7888 58.1741V58.3482C43.7888 58.4115 43.7888 58.4748 43.7888 58.546H40.3547C40.4019 58.827 40.5513 59.0806 40.7741 59.2582C41.0017 59.4286 41.2812 59.5153 41.5654 59.5035C41.7796 59.5066 41.9923 59.4663 42.1905 59.3848C42.3991 59.2896 42.5893 59.1584 42.7523 58.9971L43.5435 59.7092C43.3146 59.9902 43.0288 60.2194 42.7048 60.3818C42.3409 60.5404 41.9463 60.6161 41.5495 60.6033H41.5179ZM39.7217 53.9488L40.9244 53.4265L41.9373 55.0091H40.9165L39.7217 53.9488ZM42.4437 57.6598C42.4258 57.366 42.3086 57.087 42.1113 56.8685C42.0214 56.7731 41.9119 56.6983 41.7904 56.6491C41.6688 56.5999 41.5381 56.5776 41.4071 56.5837C41.2769 56.5781 41.147 56.5999 41.0257 56.6476C40.9044 56.6953 40.7944 56.7679 40.7029 56.8606C40.5043 57.0806 40.3798 57.3574 40.3468 57.6519L42.4437 57.6598ZM44.8175 55.5867H46.2101V56.5758C46.338 56.2704 46.5359 55.9994 46.7877 55.7845C47.0722 55.5738 47.4243 55.4752 47.7768 55.5076V56.9714H47.7056C47.5036 56.96 47.3015 56.9923 47.1131 57.066C46.9246 57.1397 46.7543 57.2532 46.6137 57.3987C46.3147 57.7649 46.1699 58.2332 46.2101 58.7043V60.5163H44.8333L44.8175 55.5867ZM50.839 60.6033C50.5008 60.6059 50.1651 60.5442 49.8499 60.4213C49.5522 60.3053 49.2825 60.1273 49.0587 59.8991C48.8275 59.6746 48.6444 59.4054 48.5206 59.1078C48.3902 58.7808 48.3257 58.4312 48.3307 58.0792C48.328 57.7416 48.387 57.4064 48.5048 57.0901C48.6217 56.7983 48.7906 56.5302 49.0033 56.2988C49.2279 56.0658 49.497 55.8801 49.7946 55.7528C50.1032 55.6152 50.4378 55.5451 50.7757 55.5471C51.1438 55.5407 51.5088 55.6163 51.8439 55.7687C52.1307 55.9122 52.3842 56.1143 52.5877 56.3621C52.789 56.6129 52.9395 56.9005 53.0309 57.2088C53.1237 57.5356 53.169 57.874 53.1654 58.2137V58.3878C53.169 58.4537 53.169 58.5197 53.1654 58.5856H49.668C49.7152 58.8666 49.8645 59.1202 50.0873 59.2977C50.315 59.4682 50.5945 59.5549 50.8786 59.543C51.0929 59.5462 51.3055 59.5058 51.5037 59.4243C51.7138 59.3277 51.9064 59.1966 52.0734 59.0366L52.8647 59.7488C52.6358 60.0297 52.3499 60.2589 52.0259 60.4213C51.6541 60.5688 51.2539 60.631 50.8549 60.6033H50.839ZM51.7332 57.6598C51.7146 57.3677 51.6006 57.0897 51.4088 56.8685C51.2167 56.6889 50.9636 56.5889 50.7006 56.5889C50.4376 56.5889 50.1844 56.6889 49.9924 56.8685C49.7938 57.0886 49.6693 57.3653 49.6363 57.6598H51.7332ZM55.8478 60.5875C55.4843 60.5836 55.1238 60.5222 54.7796 60.4055C54.4026 60.2831 54.0513 60.0927 53.743 59.8437L54.3364 58.9258C54.5782 59.1099 54.8445 59.259 55.1277 59.369C55.3804 59.466 55.6484 59.5169 55.919 59.5193C56.0736 59.5291 56.2277 59.4933 56.3621 59.4164C56.406 59.3867 56.442 59.3466 56.4668 59.2997C56.4917 59.2527 56.5046 59.2005 56.5045 59.1474C56.5034 59.1115 56.4951 59.0763 56.4802 59.0437C56.4652 59.011 56.4439 58.9817 56.4175 58.9575C56.3537 58.8959 56.2784 58.8475 56.1959 58.8151L55.8715 58.6964L55.468 58.5539C55.3018 58.5065 55.1277 58.4432 54.9536 58.3799C54.7835 58.3096 54.6238 58.2165 54.4789 58.1029C54.3264 57.9809 54.2042 57.8253 54.1218 57.6482C54.0394 57.4711 53.9992 57.2774 54.0041 57.0822C53.9997 56.8552 54.0485 56.6302 54.1465 56.4254C54.2367 56.2345 54.3693 56.0667 54.5343 55.9348C54.7001 55.797 54.8908 55.6922 55.0961 55.6262C55.3252 55.5615 55.5622 55.5296 55.8003 55.5313C56.1226 55.5328 56.4428 55.5835 56.7498 55.6816C57.0593 55.7799 57.3546 55.9182 57.6281 56.0931L57.098 57.0584C56.8719 56.9249 56.6334 56.8136 56.3858 56.7261C56.1895 56.6469 55.9803 56.604 55.7686 56.5995C55.6352 56.5908 55.5024 56.624 55.3888 56.6945C55.3492 56.7218 55.3169 56.7585 55.2948 56.8012C55.2727 56.844 55.2615 56.8916 55.2622 56.9398C55.2615 56.974 55.2682 57.008 55.2819 57.0394C55.2955 57.0708 55.3158 57.0989 55.3414 57.1217C55.4067 57.1813 55.4816 57.2294 55.5629 57.2642C55.6644 57.318 55.7703 57.363 55.8794 57.3987L56.2592 57.5253L56.7815 57.7231C56.9503 57.7992 57.1096 57.8948 57.2562 58.008C57.3981 58.1146 57.5166 58.2493 57.6044 58.4036C57.6961 58.5821 57.7423 58.7805 57.7389 58.9812C57.7461 59.2238 57.6973 59.4647 57.5965 59.6855C57.5102 59.8811 57.3737 60.0503 57.2008 60.176C57.0217 60.3125 56.8173 60.412 56.5995 60.4688C56.3607 60.5415 56.1131 60.5815 55.8636 60.5875H55.8478ZM60.9277 55.5867H62.4311L63.531 58.8784L64.6388 55.5867H66.0868L64.1482 60.5321H62.8901L60.9277 55.5867ZM66.9176 53.8063H68.3815V55.0486H66.9176V53.8063ZM66.9572 55.5867H68.3498V60.4926H66.9572V55.5867ZM71.3171 60.5796C71.1196 60.5818 70.9227 60.5578 70.7316 60.5084C70.5632 60.4654 70.4081 60.3811 70.2805 60.2631C70.1493 60.1375 70.049 59.9831 69.9878 59.8121C69.9145 59.582 69.8797 59.3413 69.8849 59.0999V56.7736H69.2994V55.5867H69.8849V54.3286H71.2775V55.5867H72.4328V56.7736H71.2775V58.8784C71.2775 59.1949 71.4279 59.3531 71.7286 59.3531C71.9688 59.3518 72.205 59.2921 72.417 59.179V60.2947C72.262 60.3822 72.0974 60.4512 71.9264 60.5005C71.7285 60.5575 71.523 60.5842 71.3171 60.5796ZM73.4852 53.8063H74.949V55.0486H73.4852V53.8063ZM73.4852 55.5867H74.8778V60.4926H73.5247L73.4852 55.5867ZM78.5018 60.6033C78.173 60.599 77.848 60.5319 77.5444 60.4055C77.2483 60.2755 76.9797 60.0902 76.7531 59.8595C76.5309 59.6293 76.3514 59.3614 76.223 59.0683C76.0689 58.7572 75.9801 58.4179 75.9619 58.0713C75.9606 57.7324 76.0251 57.3965 76.1518 57.0822C76.2827 56.7905 76.4619 56.523 76.6819 56.2909C76.9085 56.0602 77.1771 55.8749 77.4732 55.7449C77.801 55.6062 78.1538 55.5362 78.5097 55.5392C78.9064 55.5275 79.3008 55.6031 79.665 55.7608C79.9666 55.9093 80.2356 56.1164 80.4563 56.37L79.6017 57.28C79.4596 57.1258 79.294 56.9949 79.1111 56.8923C78.921 56.7844 78.7044 56.7323 78.486 56.7419C78.3193 56.7384 78.1541 56.7736 78.0033 56.8448C77.8597 56.9145 77.7329 57.0143 77.6314 57.1376C77.5195 57.2604 77.4358 57.4062 77.3861 57.5649C77.3246 57.7292 77.2951 57.9038 77.2991 58.0792C77.2944 58.2598 77.3239 58.4397 77.3861 58.6093C77.4407 58.7681 77.5238 58.9156 77.6314 59.0445C77.7441 59.1636 77.8784 59.2603 78.0271 59.3294C78.1885 59.4031 78.364 59.4409 78.5414 59.4402C78.7532 59.4448 78.9628 59.3958 79.1507 59.2977C79.3379 59.194 79.5108 59.0664 79.665 58.9179L80.4563 59.7092C80.2304 59.9658 79.9629 60.1825 79.665 60.3501C79.3169 60.5255 78.931 60.6124 78.5414 60.6033H78.5018ZM83.6846 60.6033C83.3242 60.6081 82.9664 60.5409 82.6323 60.4055C82.3221 60.2855 82.0392 60.1047 81.8 59.8737C81.5608 59.6427 81.3703 59.3661 81.2396 59.0604C81.1059 58.7479 81.0385 58.4111 81.0418 58.0713C81.0385 57.7314 81.1059 57.3946 81.2396 57.0822C81.5086 56.4615 82.012 55.9723 82.6402 55.7212C82.9766 55.5833 83.3369 55.5134 83.7005 55.5155C84.0632 55.5146 84.4228 55.5817 84.7608 55.7133C85.056 55.8447 85.3243 56.0299 85.552 56.2593C85.7889 56.4823 85.9775 56.7516 86.1059 57.0505C86.243 57.365 86.3131 57.7045 86.3117 58.0475C86.3074 58.3859 86.2352 58.72 86.0993 59.03C85.9634 59.3399 85.7665 59.6193 85.5204 59.8516C85.2775 60.0903 84.9897 60.2786 84.6737 60.4055C84.3716 60.5278 84.05 60.5948 83.7242 60.6033H83.6846ZM83.6846 59.4085C83.8699 59.4109 84.0535 59.3731 84.2227 59.2977C84.3737 59.2327 84.5087 59.1355 84.6183 59.0129C84.7295 58.8881 84.8154 58.743 84.8715 58.5856C84.9331 58.4213 84.9626 58.2467 84.9586 58.0713C84.9582 57.8962 84.9288 57.7224 84.8715 57.5569C84.8136 57.3969 84.7218 57.2511 84.6025 57.1297C84.4884 57.0012 84.3481 56.8987 84.1911 56.829C84.0269 56.7551 83.8488 56.7173 83.6688 56.7182C83.4842 56.7141 83.3008 56.7491 83.1308 56.8211C82.9801 56.8903 82.8454 56.99 82.7351 57.1138C82.6235 57.2383 82.5375 57.3835 82.4819 57.5411C82.4246 57.7066 82.3952 57.8804 82.3949 58.0554C82.3943 58.2339 82.4264 58.4109 82.4898 58.5777C82.5488 58.7355 82.6375 58.8805 82.7509 59.005C82.8688 59.1292 83.0082 59.2311 83.1624 59.3056C83.3441 59.385 83.5421 59.4202 83.74 59.4085H83.6846ZM87.4036 53.8063H88.7962V60.4926H87.4036V53.8063ZM92.4361 60.6033C92.0873 60.6086 91.7408 60.5468 91.4153 60.4213C91.1176 60.3053 90.8478 60.1273 90.6241 59.8991C90.3929 59.6746 90.2098 59.4054 90.086 59.1078C89.9556 58.7808 89.8911 58.4312 89.8961 58.0792C89.8934 57.7416 89.9524 57.4064 90.0702 57.0901C90.1871 56.7983 90.356 56.5302 90.5687 56.2988C90.7933 56.0658 91.0624 55.8801 91.36 55.7528C91.6686 55.6152 92.0032 55.5451 92.3411 55.5471C92.7092 55.5407 93.0742 55.6163 93.4094 55.7687C93.6975 55.9101 93.9513 56.1126 94.1531 56.3621C94.3544 56.6129 94.5049 56.9005 94.5963 57.2088C94.6917 57.5352 94.7397 57.8736 94.7387 58.2137C94.7387 58.2691 94.7387 58.3324 94.7387 58.3878C94.7423 58.4537 94.7423 58.5197 94.7387 58.5856H91.3125C91.3569 58.8657 91.5035 59.1194 91.7239 59.2977C91.9516 59.4682 92.2311 59.5549 92.5152 59.543C92.7295 59.5462 92.9421 59.5058 93.1403 59.4243C93.3504 59.3277 93.543 59.1966 93.71 59.0366L94.5013 59.7488C94.2742 60.0315 93.9879 60.261 93.6626 60.4213C93.2907 60.5688 92.8905 60.631 92.4915 60.6033H92.4361ZM93.3698 57.6598C93.3512 57.3677 93.2372 57.0897 93.0454 56.8685C92.9536 56.7733 92.8427 56.6987 92.7199 56.6496C92.5971 56.6005 92.4653 56.578 92.3332 56.5837C92.2031 56.5791 92.0735 56.6013 91.9523 56.649C91.8312 56.6966 91.7211 56.7687 91.629 56.8606C91.4304 57.0806 91.3059 57.3574 91.2729 57.6519L93.3698 57.6598ZM95.2847 61.4025C95.9335 61.3313 96.2342 61.0306 96.1867 60.4926H95.617V59.0287H97.0967V60.2631C97.1206 60.4991 97.0941 60.7375 97.0191 60.9626C96.9441 61.1876 96.8222 61.3942 96.6615 61.5687C96.3079 61.8575 95.8593 62.0042 95.4033 61.9801L95.2847 61.4025ZM100.143 55.5867H101.615L102.715 58.8784L103.822 55.5867H105.27L103.34 60.5321H102.074L100.143 55.5867ZM106.117 53.8063H107.613V55.0486H106.149L106.117 53.8063ZM106.117 55.5867H107.51V60.4926H106.117V55.5867ZM108.815 55.5867H110.208V56.283C110.288 56.1773 110.376 56.0768 110.469 55.9823C110.567 55.8894 110.673 55.8047 110.786 55.7291C110.908 55.6569 111.038 55.5986 111.173 55.555C111.328 55.5125 111.488 55.4912 111.648 55.4917C111.877 55.4792 112.106 55.5165 112.319 55.6012C112.532 55.686 112.725 55.816 112.882 55.9823C113.188 56.3586 113.344 56.8353 113.318 57.3196V60.4846H111.965V57.7627C111.985 57.4959 111.906 57.231 111.743 57.0189C111.664 56.9332 111.567 56.8661 111.459 56.8223C111.351 56.7786 111.234 56.7592 111.118 56.7657C111 56.758 110.882 56.7768 110.773 56.8206C110.663 56.8644 110.565 56.9322 110.485 57.0189C110.313 57.2272 110.228 57.4935 110.248 57.7627V60.5005H108.855L108.815 55.5867ZM114.592 53.8063H116.055V55.0486H114.592V53.8063ZM114.631 55.5867H116.024V60.4926H114.631V55.5867ZM119.648 60.6033C119.298 60.6074 118.95 60.54 118.627 60.4055C118.331 60.2755 118.062 60.0902 117.836 59.8595C117.614 59.6293 117.434 59.3614 117.306 59.0683C117.178 58.757 117.114 58.4235 117.116 58.0871C117.114 57.7482 117.179 57.4123 117.306 57.098C117.437 56.8063 117.616 56.5388 117.836 56.3067C118.062 56.076 118.331 55.8907 118.627 55.7608C118.955 55.622 119.308 55.552 119.664 55.555C120.06 55.5433 120.455 55.6189 120.819 55.7766C121.121 55.9251 121.39 56.1323 121.61 56.3859L120.756 57.2958C120.614 57.1416 120.448 57.0107 120.265 56.9081C120.075 56.8003 119.858 56.7482 119.64 56.7578C119.473 56.7542 119.308 56.7894 119.157 56.8606C119.014 56.9303 118.887 57.0302 118.785 57.1534C118.673 57.2762 118.59 57.4221 118.54 57.5807C118.479 57.745 118.449 57.9196 118.453 58.095C118.448 58.2756 118.478 58.4555 118.54 58.6252C118.595 58.784 118.678 58.9315 118.785 59.0604C118.898 59.1795 119.032 59.2761 119.181 59.3452C119.342 59.4189 119.518 59.4567 119.695 59.456C119.907 59.4606 120.117 59.4116 120.305 59.3136C120.492 59.2099 120.665 59.0822 120.819 58.9338L121.61 59.725C121.384 59.9817 121.117 60.1983 120.819 60.366C120.455 60.5436 120.052 60.6254 119.648 60.6033ZM124.831 60.6033C124.47 60.6081 124.112 60.5409 123.778 60.4055C123.468 60.2855 123.185 60.1047 122.946 59.8737C122.707 59.6427 122.516 59.3661 122.386 59.0604C122.252 58.7479 122.185 58.4111 122.188 58.0713C122.185 57.7314 122.252 57.3946 122.386 57.0822C122.655 56.4615 123.158 55.9723 123.786 55.7212C124.123 55.5833 124.483 55.5134 124.846 55.5155C125.209 55.5146 125.569 55.5817 125.907 55.7133C126.202 55.8447 126.47 56.0299 126.698 56.2593C126.935 56.4823 127.123 56.7516 127.252 57.0505C127.389 57.365 127.459 57.7045 127.458 58.0475C127.453 58.3859 127.381 58.72 127.245 59.03C127.109 59.3399 126.913 59.6193 126.666 59.8516C126.424 60.0903 126.136 60.2786 125.82 60.4055C125.505 60.5325 125.17 60.5996 124.831 60.6033ZM124.831 59.4085C125.016 59.4109 125.199 59.3731 125.369 59.2977C125.52 59.2327 125.655 59.1355 125.764 59.0129C125.875 58.8881 125.961 58.743 126.018 58.5856C126.079 58.4213 126.109 58.2467 126.105 58.0713C126.104 57.8962 126.075 57.7224 126.018 57.5569C125.96 57.3969 125.868 57.2511 125.749 57.1297C125.633 57.0029 125.493 56.9007 125.337 56.829C125.173 56.7551 124.995 56.7173 124.815 56.7182C124.63 56.7141 124.447 56.7491 124.277 56.8211C124.126 56.8903 123.991 56.99 123.881 57.1138C123.77 57.2383 123.683 57.3835 123.628 57.5411C123.571 57.7066 123.541 57.8804 123.541 58.0554C123.54 58.2339 123.572 58.4109 123.636 58.5777C123.695 58.7355 123.783 58.8805 123.897 59.005C124.015 59.1292 124.154 59.2311 124.308 59.3056C124.478 59.379 124.662 59.4142 124.846 59.4085H124.831ZM128.55 53.8063H129.942V60.4926H128.55V53.8063ZM133.582 60.6033C133.233 60.6086 132.887 60.5468 132.561 60.4213C132.264 60.3053 131.994 60.1273 131.77 59.8991C131.539 59.6746 131.356 59.4054 131.232 59.1078C131.102 58.7808 131.037 58.4312 131.042 58.0792C131.039 57.7416 131.098 57.4064 131.216 57.0901C131.333 56.7983 131.502 56.5302 131.715 56.2988C131.939 56.0658 132.208 55.8801 132.506 55.7528C132.815 55.6152 133.149 55.5451 133.487 55.5471C133.855 55.5407 134.22 55.6163 134.555 55.7687C134.843 55.9101 135.097 56.1126 135.299 56.3621C135.5 56.6129 135.651 56.9005 135.742 57.2088C135.838 57.5352 135.886 57.8736 135.885 58.2137C135.885 58.2691 135.885 58.3324 135.885 58.3878C135.888 58.4537 135.888 58.5197 135.885 58.5856H132.474C132.519 58.8657 132.665 59.1194 132.886 59.2977C133.113 59.4682 133.393 59.5549 133.677 59.543C133.891 59.5462 134.104 59.5058 134.302 59.4243C134.512 59.3277 134.705 59.1966 134.872 59.0366L135.663 59.7488C135.436 60.0315 135.15 60.261 134.824 60.4213C134.435 60.5772 134.015 60.6396 133.598 60.6033H133.582ZM134.516 57.6598C134.497 57.3677 134.383 57.0897 134.191 56.8685C134.1 56.7733 133.989 56.6987 133.866 56.6496C133.743 56.6005 133.611 56.578 133.479 56.5837C133.349 56.5791 133.219 56.6013 133.098 56.649C132.977 56.6966 132.867 56.7687 132.775 56.8606C132.576 57.0806 132.452 57.3574 132.419 57.6519L134.516 57.6598ZM136.431 61.4025C137.08 61.3313 137.38 61.0306 137.333 60.4926H136.763V59.0287H138.243V60.2631C138.267 60.4991 138.24 60.7375 138.165 60.9626C138.09 61.1876 137.968 61.3942 137.807 61.5687C137.454 61.8575 137.005 62.0042 136.549 61.9801L136.431 61.4025Z" fill="#751B42"/>
<path d="M25.4631 71.2775C25.2407 71.2788 25.0193 71.2468 24.8064 71.1826C24.6116 71.122 24.4313 71.0224 24.2762 70.8898C24.121 70.7639 23.9965 70.6043 23.9122 70.423C23.8207 70.2191 23.7748 69.9976 23.7777 69.7741C23.7694 69.5332 23.8211 69.2939 23.9281 69.0778C24.0215 68.8844 24.1599 68.7162 24.3316 68.5872C24.52 68.4534 24.7322 68.3568 24.9567 68.3024C25.2153 68.237 25.4813 68.2051 25.748 68.2074C25.9682 68.2034 26.1883 68.222 26.4047 68.2628C26.5903 68.2954 26.7729 68.343 26.9507 68.4052V68.3261C26.9627 68.2007 26.9445 68.0742 26.8977 67.9572C26.8509 67.8402 26.7768 67.7361 26.6817 67.6535C26.4544 67.4837 26.1733 67.4022 25.8904 67.4241C25.6511 67.4208 25.4122 67.4447 25.1783 67.4953C24.9577 67.5463 24.7409 67.6124 24.5294 67.6931L24.1813 66.6328C24.4546 66.5131 24.7379 66.4178 25.0279 66.3479C25.3821 66.2582 25.7466 66.2157 26.112 66.2213C26.4473 66.2139 26.7815 66.262 27.1011 66.3638C27.3516 66.4485 27.581 66.5861 27.7736 66.7673C27.9587 66.957 28.0969 67.1873 28.1772 67.4399C28.2619 67.7303 28.3045 68.0315 28.3038 68.334V71.2142H26.9586V70.6841C26.7708 70.8898 26.5404 71.0523 26.2836 71.1602C26.0267 71.2682 25.7495 71.319 25.471 71.3092L25.4631 71.2775ZM25.8825 70.3122C26.1658 70.3269 26.4454 70.2431 26.6738 70.0748C26.7709 70.0029 26.8491 69.9084 26.9014 69.7995C26.9538 69.6905 26.9789 69.5705 26.9745 69.4497V69.2044C26.8437 69.149 26.7088 69.104 26.5709 69.0699C26.4121 69.0376 26.2503 69.0217 26.0882 69.0224C25.8412 69.0066 25.5952 69.0674 25.384 69.1965C25.3004 69.2511 25.2324 69.3265 25.1867 69.4153C25.1409 69.504 25.1189 69.6031 25.1229 69.7029C25.12 69.7885 25.138 69.8736 25.1752 69.9507C25.2124 70.0279 25.2678 70.0949 25.3365 70.146C25.496 70.2585 25.6874 70.3168 25.8825 70.3122Z" fill="#751B42"/>
<path d="M29.4906 66.2767H30.8595V67.2579C30.9835 66.9504 31.182 66.6785 31.4371 66.4666C31.7228 66.2456 32.0829 66.1436 32.442 66.1818V67.6377H32.3708C32.1695 67.6268 31.9682 67.6586 31.7801 67.7308C31.5919 67.8031 31.4211 67.9143 31.2789 68.0571C30.9752 68.4246 30.825 68.8951 30.8595 69.3706V71.2142H29.4906V66.2767Z" fill="#751B42"/>
<path d="M36.2401 71.2776C35.9194 71.291 35.6015 71.2142 35.3222 71.056C35.0939 70.917 34.8883 70.7435 34.7129 70.5417V71.2143H33.3203V64.4964H34.7129V66.981C34.8806 66.7536 35.0901 66.5602 35.3301 66.4113C35.6061 66.2514 35.9213 66.1719 36.2401 66.1818C36.5279 66.1812 36.813 66.2377 37.0788 66.348C37.3478 66.46 37.5904 66.6271 37.791 66.8386C38.0064 67.0679 38.1756 67.3365 38.2895 67.6298C38.4225 67.9754 38.487 68.3436 38.4794 68.7139C38.487 69.0841 38.4225 69.4523 38.2895 69.7979C38.1783 70.0907 38.0118 70.3594 37.7989 70.5892C37.5983 70.8006 37.3558 70.9677 37.0868 71.0798C36.8206 71.2018 36.5327 71.2691 36.2401 71.2776ZM35.884 70.0907C36.0427 70.0923 36.2 70.0608 36.3458 69.9981C36.4916 69.9354 36.6227 69.843 36.7307 69.7267C36.8431 69.6014 36.9316 69.4566 36.9918 69.2994C37.0572 69.1194 37.0894 68.9291 37.0868 68.7376C37.0895 68.5487 37.0573 68.3609 36.9918 68.1837C36.9335 68.0232 36.8449 67.8755 36.7307 67.7485C36.6226 67.6333 36.4921 67.5415 36.3472 67.4787C36.2022 67.4159 36.0459 67.3835 35.888 67.3835C35.73 67.3835 35.5737 67.4159 35.4288 67.4787C35.2839 67.5415 35.1533 67.6333 35.0453 67.7485C34.9364 67.8779 34.8507 68.0251 34.7921 68.1837C34.7266 68.3609 34.6944 68.5487 34.6971 68.7376C34.6944 68.9265 34.7266 69.1143 34.7921 69.2915C34.8527 69.4491 34.9382 69.5961 35.0453 69.7267C35.1522 69.8414 35.2814 69.9329 35.4251 69.9957C35.5698 70.0591 35.7261 70.0914 35.884 70.0907Z" fill="#751B42"/>
<path d="M41.9374 71.2934C41.5769 71.2982 41.2191 71.231 40.885 71.0956C40.5749 70.9756 40.2919 70.7948 40.0527 70.5638C39.8136 70.3328 39.623 70.0562 39.4924 69.7504C39.3553 69.436 39.2852 69.0965 39.2866 68.7534C39.2909 68.415 39.3631 68.0809 39.499 67.771C39.6349 67.4611 39.8318 67.1817 40.0779 66.9494C40.3203 66.7158 40.6049 66.5305 40.9167 66.4034C41.2397 66.2651 41.5861 66.1899 41.9374 66.1818C42.2979 66.177 42.6557 66.2443 42.9898 66.3796C43.3021 66.502 43.5871 66.6849 43.8285 66.9177C44.0746 67.15 44.2715 67.4294 44.4074 67.7394C44.5434 68.0493 44.6156 68.3834 44.6198 68.7218C44.6156 69.0602 44.5434 69.3943 44.4074 69.7042C44.2715 70.0142 44.0746 70.2936 43.8285 70.5259C43.5856 70.7646 43.2979 70.9529 42.9819 71.0798C42.6512 71.2191 42.2962 71.2918 41.9374 71.2934ZM41.9374 70.0907C42.1221 70.0956 42.3056 70.0605 42.4755 69.9878C42.6253 69.9207 42.7599 69.8238 42.8711 69.703C42.9822 69.5782 43.0682 69.4331 43.1243 69.2757C43.1857 69.1086 43.2152 68.9314 43.2113 68.7534C43.211 68.5784 43.1816 68.4046 43.1243 68.2391C43.0644 68.0776 42.9729 67.9297 42.8553 67.8039C42.7371 67.6821 42.5977 67.5829 42.4438 67.5112C42.2809 67.4337 42.1019 67.3957 41.9216 67.4004C41.7369 67.3955 41.5534 67.4306 41.3835 67.5032C41.0818 67.6458 40.8486 67.9018 40.7347 68.2154C40.6777 68.3836 40.6483 68.56 40.6476 68.7376C40.647 68.9161 40.6792 69.0931 40.7426 69.2599C40.8016 69.4176 40.8902 69.5627 41.0037 69.6871C41.1215 69.8114 41.261 69.9133 41.4152 69.9878C41.5797 70.0597 41.7579 70.0948 41.9374 70.0907Z" fill="#751B42"/>
<path d="M45.5851 66.2768H46.9777V67.2579C47.1018 66.9504 47.3002 66.6785 47.5553 66.4667C47.8381 66.2524 48.1916 66.1534 48.5444 66.1897V67.6457H48.4732C48.2708 67.6356 48.0686 67.6677 47.8793 67.7399C47.69 67.8121 47.5177 67.9228 47.3734 68.065C47.0817 68.4379 46.9406 68.9066 46.9777 69.3785V71.2143H45.5851V66.2768Z" fill="#751B42"/>
<path d="M49.4385 64.4964H50.9102V65.7308H49.4385V64.4964ZM49.478 66.2768H50.8707V71.2143H49.478V66.2768Z" fill="#751B42"/>
<path d="M54.4948 71.2934C54.1447 71.2974 53.7974 71.2301 53.4741 71.0956C53.1776 70.9663 52.9089 70.7809 52.6828 70.5496C52.4556 70.3234 52.2754 70.0545 52.1527 69.7583C52.0227 69.4447 51.9555 69.1087 51.9548 68.7692C51.9555 68.4298 52.0227 68.0937 52.1527 67.7801C52.2762 67.4844 52.4562 67.2156 52.6828 66.9889C52.9089 66.7576 53.1776 66.5722 53.4741 66.4429C54.1796 66.1578 54.9683 66.1578 55.6738 66.4429C55.9743 66.5898 56.2431 66.7941 56.4651 67.0443L55.6263 67.9226C55.4805 67.7701 55.3156 67.6371 55.1357 67.5269C54.9432 67.4263 54.7278 67.3772 54.5106 67.3845C54.3439 67.3801 54.1784 67.4153 54.028 67.4874C53.8833 67.559 53.7543 67.6585 53.6482 67.7801C53.5409 67.9034 53.4577 68.0456 53.4029 68.1995C53.3458 68.3678 53.3165 68.5441 53.3158 68.7217C53.3157 68.902 53.3451 69.0811 53.4029 69.2519C53.4571 69.4125 53.5432 69.5606 53.6561 69.6871C53.7673 69.8079 53.9019 69.9048 54.0517 69.972C54.2134 70.0439 54.3891 70.079 54.566 70.0748C54.7743 70.078 54.9803 70.0319 55.1674 69.9403C55.3578 69.8347 55.5334 69.7043 55.6896 69.5526L56.4809 70.3439C56.2535 70.5988 55.9862 70.8152 55.6896 70.9848C55.3255 71.1912 54.9133 71.2976 54.4948 71.2934Z" fill="#751B42"/>
<path d="M59.6854 71.2934C59.3224 71.2982 58.962 71.231 58.6251 71.0956C58.3049 70.975 58.0117 70.7921 57.7627 70.5575C57.5306 70.3304 57.3427 70.062 57.2088 69.7662C57.0744 69.4512 57.007 69.1117 57.011 68.7692C57.0053 68.4292 57.0727 68.0919 57.2088 67.7801C57.3436 67.4828 57.5343 67.2142 57.7706 66.9889C58.1614 66.6269 58.6467 66.3828 59.1703 66.2848C59.6939 66.1868 60.2346 66.2389 60.7299 66.435C61.0412 66.5594 61.3258 66.742 61.5687 66.9731C61.817 67.2036 62.0153 67.4827 62.1514 67.793C62.2875 68.1034 62.3585 68.4383 62.3599 68.7771C62.3639 69.1196 62.2965 69.4591 62.1621 69.7741C62.0281 70.072 61.8373 70.3407 61.6003 70.5654C61.3604 70.8041 61.0753 70.9924 60.7616 71.1193C60.4181 71.2487 60.0522 71.3079 59.6854 71.2934ZM59.6854 70.0907C59.8599 70.0977 60.0338 70.0666 60.195 69.9997C60.3562 69.9327 60.501 69.8315 60.6191 69.7029C60.7274 69.5761 60.813 69.4315 60.8723 69.2756C60.9305 69.1077 60.9599 68.9311 60.9594 68.7534C60.9607 68.5775 60.9285 68.4029 60.8644 68.2391C60.8043 68.0795 60.7158 67.932 60.6033 67.8039C60.4851 67.682 60.3457 67.5828 60.1919 67.5111C60.0284 67.4353 59.8498 67.3974 59.6696 67.4003C59.4849 67.3947 59.3012 67.4298 59.1316 67.5032C58.9773 67.5703 58.8396 67.6702 58.728 67.796C58.6207 67.9192 58.5375 68.0614 58.4827 68.2153C58.4219 68.3826 58.3923 68.5596 58.3957 68.7376C58.3923 68.9155 58.4219 69.0926 58.4827 69.2598C58.5446 69.418 58.6359 69.5629 58.7517 69.6871C58.8666 69.8113 59.0034 69.9132 59.1553 69.9878C59.3274 70.0621 59.5139 70.0972 59.7013 70.0907H59.6854Z" fill="#751B42"/>
<path d="M63.4203 64.4964H64.8129V71.2143H63.4203V64.4964Z" fill="#751B42"/>
<path d="M68.4449 71.2934C68.0965 71.2948 67.7507 71.2332 67.4242 71.1114C67.128 70.9923 66.8589 70.8147 66.6329 70.5892C66.405 70.3619 66.2224 70.0934 66.0948 69.7979C65.9644 69.4681 65.8999 69.116 65.9049 68.7614C65.9042 68.4233 65.9659 68.0879 66.0869 67.7723C66.202 67.4796 66.3711 67.2112 66.5854 66.981C66.8058 66.7346 67.0751 66.537 67.3762 66.4007C67.6774 66.2645 68.0036 66.1926 68.3341 66.1897C68.7001 66.1791 69.0634 66.255 69.3944 66.4113C69.6858 66.5475 69.9407 66.7509 70.1382 67.0047C70.3418 67.254 70.4926 67.5421 70.5813 67.8514C70.6673 68.1739 70.7072 68.5068 70.7 68.8405C70.7038 68.8984 70.7038 68.9566 70.7 69.0146C70.7 69.0779 70.7 69.1412 70.7 69.2045H67.258C67.3003 69.4894 67.4505 69.7471 67.6774 69.9245C67.9038 70.0974 68.1842 70.1843 68.4686 70.1698C68.6804 70.1732 68.8905 70.1328 69.0858 70.0511C69.296 69.9544 69.4885 69.8234 69.6556 69.6634L70.4468 70.3676C70.2201 70.654 69.9304 70.8841 69.6002 71.0402C69.2406 71.2149 68.8446 71.3017 68.4449 71.2934ZM69.347 68.342C69.3217 68.0499 69.2055 67.7732 69.0146 67.5507C68.9251 67.4543 68.8159 67.3782 68.6944 67.3277C68.5728 67.2772 68.4419 67.2534 68.3104 67.2579C68.1784 67.2528 68.0467 67.2755 67.924 67.3246C67.8013 67.3736 67.6903 67.448 67.5983 67.5428C67.4026 67.7638 67.2809 68.0405 67.2501 68.3341L69.347 68.342Z" fill="#751B42"/>
<path d="M76.7532 71.2934C76.4046 71.2962 76.0585 71.2345 75.7324 71.1114C75.4352 70.9943 75.1657 70.8164 74.9412 70.5892C74.71 70.3647 74.5269 70.0954 74.4031 69.7979C74.2727 69.4681 74.2082 69.1159 74.2132 68.7613C74.2042 68.4163 74.2606 68.0726 74.3794 67.7485C74.4945 67.4558 74.6636 67.1874 74.8779 66.9572C75.0982 66.7109 75.3676 66.5132 75.6687 66.377C75.9698 66.2407 76.2961 66.1688 76.6266 66.166C76.995 66.1559 77.3607 66.2317 77.6948 66.3875C77.9849 66.5257 78.2394 66.7288 78.4386 66.981C78.6374 67.2322 78.7852 67.5198 78.8738 67.8276C78.9566 68.1585 78.9913 68.4996 78.9766 68.8404V69.0145C78.9766 69.0778 78.9766 69.1411 78.9766 69.2044H75.5425C75.5879 69.4883 75.7374 69.745 75.9619 69.9245C76.1895 70.095 76.469 70.1816 76.7532 70.1698C76.9674 70.1729 77.1801 70.1326 77.3783 70.0511C77.5869 69.9559 77.7771 69.8247 77.9401 69.6634L78.7314 70.3676C78.5069 70.653 78.2199 70.8831 77.8926 71.0402C77.5372 71.2108 77.1474 71.2974 76.7532 71.2934ZM77.6473 68.3419C77.6295 68.0481 77.5123 67.7691 77.315 67.5507C77.1271 67.3661 76.8742 67.2626 76.6107 67.2626C76.3473 67.2626 76.0944 67.3661 75.9065 67.5507C75.7084 67.771 75.584 68.0476 75.5504 68.3419H77.6473Z" fill="#751B42"/>
<path d="M81.675 71.2696C81.4775 71.2718 81.2806 71.2479 81.0894 71.1984C80.921 71.1555 80.766 71.0712 80.6384 70.9531C80.5089 70.8261 80.4089 70.6721 80.3456 70.5021C80.2729 70.2719 80.2382 70.0314 80.2428 69.79V67.4636H79.6572V66.2767H80.2428V65.0186H81.6354V66.2767H82.7907V67.4636H81.6354V69.5605C81.6354 69.877 81.7857 70.0353 82.0864 70.0353C82.3271 70.0377 82.5643 69.9777 82.7748 69.8612V70.9848C82.6235 71.0799 82.4615 71.1569 82.2922 71.2143C82.0898 71.2602 81.8822 71.2788 81.675 71.2696Z" fill="#751B42"/>
<path d="M88.8912 71.2934C88.5308 71.2982 88.173 71.231 87.8389 71.0956C87.5251 70.9761 87.2395 70.7929 87.0001 70.5575C86.754 70.3252 86.5571 70.0458 86.4212 69.7359C86.2853 69.4259 86.2131 69.0918 86.2088 68.7534C86.2057 68.4128 86.2758 68.0755 86.4146 67.7643C86.5466 67.4674 86.7346 67.1987 86.9685 66.9731C87.215 66.7235 87.508 66.5246 87.8309 66.3875C88.5095 66.1183 89.2651 66.1183 89.9436 66.3875C90.2549 66.5119 90.5396 66.6945 90.7824 66.9256C91.0285 67.1579 91.2254 67.4373 91.3613 67.7473C91.4972 68.0572 91.5694 68.3913 91.5737 68.7297C91.5694 69.0681 91.4972 69.4022 91.3613 69.7121C91.2254 70.022 91.0285 70.3015 90.7824 70.5338C90.5382 70.7709 90.2508 70.9589 89.9357 71.0877C89.6043 71.2237 89.2495 71.2936 88.8912 71.2934ZM88.8912 70.0907C89.0759 70.0956 89.2595 70.0605 89.4293 69.9878C89.5807 69.9202 89.7165 69.8221 89.8282 69.6995C89.9398 69.577 90.0249 69.4327 90.0782 69.2757C90.1363 69.1077 90.1657 68.9312 90.1652 68.7534C90.1665 68.5775 90.1343 68.403 90.0702 68.2391C90.0163 68.0766 89.9271 67.928 89.8091 67.8039C89.691 67.6821 89.5515 67.5828 89.3977 67.5111C89.2347 67.4337 89.0558 67.3957 88.8754 67.4004C88.6908 67.3955 88.5072 67.4306 88.3374 67.5032C88.1855 67.5704 88.0503 67.6704 87.9417 67.796C87.8293 67.9168 87.7431 68.0596 87.6885 68.2154C87.6277 68.3826 87.5982 68.5597 87.6015 68.7376C87.6021 68.9152 87.6315 69.0916 87.6885 69.2598C87.7504 69.418 87.8417 69.563 87.9576 69.6871C88.0754 69.8114 88.2148 69.9133 88.369 69.9878C88.5382 70.0628 88.7222 70.098 88.9071 70.0907H88.8912Z" fill="#751B42"/>
<path d="M92.626 64.4964H94.0186V71.2143H92.626V64.4964Z" fill="#751B42"/>
<path d="M97.6584 71.2934C97.3073 71.2956 96.9588 71.2339 96.6297 71.1114C96.3343 70.9908 96.0655 70.8134 95.8385 70.5892C95.6101 70.3639 95.4298 70.0948 95.3083 69.7979C95.1717 69.4697 95.1043 69.1168 95.1105 68.7613C95.1098 68.4232 95.1715 68.0879 95.2925 67.7722C95.4076 67.4796 95.5767 67.2111 95.791 66.981C96.0113 66.7346 96.2807 66.537 96.5818 66.4007C96.8829 66.2645 97.2092 66.1926 97.5397 66.1897C97.9057 66.1782 98.2692 66.2541 98.6 66.4113C98.9081 66.5418 99.1797 66.7455 99.3913 67.0047C99.5901 67.2559 99.7379 67.5435 99.8265 67.8514C99.9219 68.1778 99.9699 68.5162 99.9689 68.8563V69.0304C99.9689 69.0937 99.9689 69.157 99.9689 69.2203H96.5506C96.596 69.5041 96.7455 69.7608 96.97 69.9403C97.1964 70.1132 97.4768 70.2001 97.7613 70.1856C97.973 70.189 98.1831 70.1486 98.3784 70.0669C98.5908 69.9741 98.784 69.8427 98.9482 69.6792L99.7394 70.3834C99.5127 70.6698 99.223 70.8999 98.8928 71.056C98.5081 71.2386 98.0833 71.3203 97.6584 71.2934ZM98.5525 68.342C98.5347 68.0481 98.4175 67.7691 98.2202 67.5507C98.1307 67.4543 98.0214 67.3782 97.8999 67.3277C97.7784 67.2772 97.6475 67.2534 97.516 67.2579C97.3839 67.2528 97.2523 67.2755 97.1296 67.3245C97.0069 67.3736 96.8959 67.448 96.8038 67.5428C96.6112 67.7657 96.4899 68.0414 96.4557 68.334L98.5525 68.342ZM97.967 64.0928L99.1618 64.6151L97.9749 65.707H96.9462L97.967 64.0928Z" fill="#751B42"/>
<path d="M100.974 64.4964H102.438V65.7308H100.974V64.4964ZM100.974 66.2768H102.366V71.2143H100.974V66.2768Z" fill="#751B42"/>
<path d="M106.03 71.2934C105.68 71.2974 105.333 71.2301 105.009 71.0956C104.713 70.9663 104.444 70.7809 104.218 70.5496C103.991 70.3234 103.811 70.0545 103.688 69.7583C103.558 69.4447 103.491 69.1087 103.49 68.7692C103.491 68.4298 103.558 68.0937 103.688 67.7801C103.811 67.4844 103.992 67.2156 104.218 66.9889C104.444 66.7576 104.713 66.5722 105.009 66.4429C105.715 66.1578 106.504 66.1578 107.209 66.4429C107.51 66.5898 107.778 66.7941 108 67.0443L107.154 67.9621C107.008 67.8096 106.843 67.6767 106.663 67.5665C106.471 67.4658 106.255 67.4168 106.038 67.4241C105.871 67.4196 105.706 67.4549 105.555 67.5269C105.411 67.5986 105.282 67.6981 105.176 67.8197C105.068 67.9429 104.985 68.0852 104.93 68.2391C104.873 68.4073 104.844 68.5837 104.843 68.7613C104.843 68.9416 104.873 69.1207 104.93 69.2915C104.984 69.4521 105.071 69.6001 105.183 69.7267C105.295 69.8475 105.429 69.9444 105.579 70.0115C105.741 70.0835 105.916 70.1186 106.093 70.1144C106.302 70.1185 106.508 70.0723 106.695 69.9799C106.885 69.8742 107.061 69.7438 107.217 69.5921L108.008 70.3834C107.781 70.6384 107.514 70.8548 107.217 71.0243C106.851 71.2156 106.442 71.3084 106.03 71.2934Z" fill="#751B42"/>
<path d="M111.221 71.2934C110.86 71.2989 110.502 71.2316 110.168 71.0956C109.855 70.9761 109.569 70.7929 109.33 70.5575C109.084 70.3252 108.887 70.0458 108.751 69.7358C108.615 69.4259 108.543 69.0918 108.538 68.7534C108.535 68.4128 108.605 68.0754 108.744 67.7643C108.876 67.4674 109.064 67.1987 109.298 66.9731C109.543 66.7394 109.831 66.5541 110.145 66.4271C110.823 66.1579 111.579 66.1579 112.257 66.4271C112.569 66.5515 112.853 66.7341 113.096 66.9651C113.342 67.1975 113.539 67.4769 113.675 67.7868C113.811 68.0967 113.883 68.4308 113.887 68.7692C113.889 69.1123 113.819 69.4518 113.682 69.7662C113.551 70.0659 113.36 70.3353 113.12 70.5575C112.88 70.7962 112.595 70.9845 112.281 71.1114C111.943 71.2414 111.583 71.3032 111.221 71.2934ZM111.221 70.0907C111.406 70.0956 111.589 70.0605 111.759 69.9878C111.91 69.9202 112.046 69.8221 112.158 69.6995C112.269 69.577 112.355 69.4327 112.408 69.2757C112.466 69.1077 112.495 68.9312 112.495 68.7534C112.496 68.5775 112.464 68.4029 112.4 68.2391C112.343 68.0781 112.254 67.9301 112.139 67.8039C112.021 67.6821 111.881 67.5828 111.727 67.5111C111.564 67.4337 111.385 67.3957 111.205 67.4004C111.02 67.3955 110.837 67.4306 110.667 67.5032C110.515 67.5704 110.38 67.6704 110.271 67.796C110.159 67.9168 110.073 68.0596 110.018 68.2154C109.957 68.3826 109.928 68.5596 109.931 68.7376C109.932 68.9152 109.961 69.0916 110.018 69.2598C110.08 69.418 110.171 69.5629 110.287 69.6871C110.405 69.8114 110.544 69.9133 110.699 69.9878C110.868 70.0627 111.052 70.0979 111.237 70.0907H111.221Z" fill="#751B42"/>
<path d="M114.956 64.4964H116.317V71.2143H114.924L114.956 64.4964Z" fill="#751B42"/>
<path d="M119.98 71.2934C119.632 71.2948 119.286 71.2332 118.959 71.1114C118.664 70.9908 118.395 70.8134 118.168 70.5892C117.94 70.364 117.759 70.0948 117.638 69.7979C117.501 69.4697 117.434 69.1168 117.44 68.7614C117.439 68.4233 117.501 68.088 117.622 67.7723C117.737 67.4796 117.906 67.2112 118.121 66.981C118.341 66.7346 118.61 66.537 118.912 66.4007C119.213 66.2645 119.539 66.1926 119.869 66.1897C120.235 66.1782 120.599 66.2542 120.93 66.4113C121.223 66.5472 121.481 66.7505 121.681 67.0047C121.88 67.2559 122.028 67.5435 122.117 67.8514C122.212 68.1778 122.26 68.5162 122.259 68.8563V69.0304C122.259 69.0937 122.259 69.157 122.259 69.2203H118.841C118.886 69.5041 119.036 69.7609 119.26 69.9404C119.487 70.1132 119.767 70.2002 120.051 70.1856C120.263 70.1891 120.473 70.1487 120.669 70.067C120.881 69.9742 121.074 69.8427 121.238 69.6792L122.03 70.3835C121.803 70.6698 121.513 70.9 121.183 71.056C120.808 71.2328 120.395 71.3143 119.98 71.2934ZM120.882 68.342C120.861 68.049 120.744 67.7711 120.55 67.5507C120.46 67.4543 120.351 67.3782 120.23 67.3277C120.108 67.2772 119.977 67.2534 119.846 67.258C119.714 67.2528 119.582 67.2755 119.459 67.3246C119.337 67.3737 119.226 67.448 119.134 67.5428C118.941 67.7658 118.82 68.0414 118.785 68.3341L120.882 68.342Z" fill="#751B42"/>
<path d="M239.992 0H146.06V50.8549H239.992V0Z" fill="#7A8C5D"/>
<path d="M175.662 16.1261L177.885 14.2982C178.859 13.507 179.238 13.0718 179.238 12.4229C179.247 12.2842 179.226 12.1453 179.175 12.0157C179.125 11.8862 179.047 11.7692 178.947 11.6728C178.847 11.5764 178.727 11.503 178.595 11.4576C178.464 11.4123 178.324 11.3961 178.186 11.4101C177.936 11.4204 177.692 11.4869 177.471 11.6047C177.251 11.7225 177.06 11.8886 176.912 12.0906C176.838 12.1687 176.748 12.2308 176.649 12.273C176.549 12.3151 176.442 12.3366 176.334 12.3359C176.125 12.3359 175.923 12.2525 175.775 12.1041C175.627 11.9557 175.543 11.7545 175.543 11.5446C175.548 11.347 175.621 11.157 175.749 11.0066C176.053 10.6295 176.441 10.3291 176.882 10.1298C177.323 9.9305 177.805 9.8378 178.289 9.85922C179.871 9.85922 180.987 10.8087 180.987 12.233C180.987 13.5386 180.315 14.1875 178.93 15.2557L177.656 16.2448H180.41C180.513 16.234 180.618 16.2452 180.717 16.2775C180.816 16.3098 180.907 16.3625 180.984 16.4322C181.062 16.502 181.123 16.5872 181.166 16.6823C181.208 16.7775 181.23 16.8805 181.23 16.9846C181.23 17.0887 181.208 17.1917 181.166 17.2869C181.123 17.382 181.062 17.4672 180.984 17.537C180.907 17.6067 180.816 17.6594 180.717 17.6917C180.618 17.724 180.513 17.7352 180.41 17.7244H176.168C176.054 17.7442 175.936 17.7385 175.824 17.7077C175.712 17.6769 175.608 17.6218 175.52 17.5462C175.431 17.4707 175.361 17.3766 175.313 17.2706C175.265 17.1646 175.241 17.0494 175.243 16.9332C175.25 16.7763 175.291 16.6229 175.363 16.4835C175.436 16.3442 175.538 16.2222 175.662 16.1261Z" fill="white"/>
<path d="M182.222 15.6513C182.201 15.2439 182.313 14.8408 182.539 14.5016C182.766 14.1625 183.096 13.9053 183.48 13.7681C183.17 13.6052 182.913 13.3586 182.736 13.0564C182.56 12.7542 182.472 12.4086 182.483 12.059C182.483 10.8641 183.583 9.91461 185.236 9.91461C186.89 9.91461 187.982 10.8562 187.982 12.059C187.993 12.4086 187.905 12.7542 187.729 13.0564C187.552 13.3586 187.295 13.6052 186.985 13.7681C187.36 13.908 187.683 14.16 187.909 14.4899C188.136 14.8199 188.255 15.2116 188.251 15.6118C188.251 17.0598 186.961 17.9064 185.236 17.9064C183.511 17.9064 182.222 17.0123 182.222 15.6513ZM186.582 15.5168C186.582 14.9154 186.012 14.5594 185.236 14.5594C184.461 14.5594 183.883 14.9154 183.883 15.5168C183.883 16.0549 184.382 16.4901 185.236 16.4901C186.091 16.4901 186.582 16.0628 186.582 15.5168ZM186.352 12.2251C186.342 12.0904 186.305 11.959 186.243 11.8389C186.181 11.7189 186.095 11.6128 185.991 11.5269C185.887 11.4411 185.766 11.3773 185.636 11.3396C185.507 11.3018 185.37 11.2908 185.236 11.3072C184.532 11.3072 184.113 11.7345 184.113 12.2172C184.117 12.3564 184.151 12.4932 184.211 12.6188C184.271 12.7444 184.357 12.8562 184.462 12.947C184.568 13.0377 184.691 13.1056 184.825 13.1461C184.958 13.1867 185.098 13.1991 185.236 13.1826C185.374 13.2003 185.514 13.189 185.646 13.1493C185.779 13.1097 185.902 13.0425 186.007 12.9522C186.113 12.862 186.198 12.7506 186.257 12.6253C186.316 12.5001 186.349 12.3637 186.352 12.2251Z" fill="white"/>
<path d="M190.759 11.0778L194.518 12.8581C194.714 12.9293 194.885 13.0579 195.008 13.2272C195.131 13.3964 195.2 13.5987 195.206 13.8077V13.9184C195.201 14.1277 195.132 14.3304 195.009 14.4999C194.886 14.6694 194.715 14.7977 194.518 14.868L190.759 16.6562C190.634 16.7276 190.492 16.7658 190.348 16.767C190.256 16.767 190.165 16.7487 190.081 16.7131C189.996 16.6776 189.92 16.6254 189.855 16.5598C189.791 16.4942 189.741 16.4164 189.707 16.3311C189.674 16.2457 189.657 16.1545 189.659 16.0628C189.66 15.9145 189.706 15.7699 189.79 15.6483C189.875 15.5267 189.995 15.4339 190.134 15.3823L193.505 13.8789L190.134 12.3675C189.996 12.3074 189.878 12.2093 189.794 12.0845C189.71 11.9598 189.663 11.8137 189.659 11.6633C189.658 11.5677 189.677 11.4728 189.714 11.3849C189.752 11.297 189.807 11.218 189.878 11.153C189.948 11.0881 190.031 11.0386 190.121 11.008C190.212 10.9773 190.308 10.966 190.403 10.9749C190.529 10.9783 190.651 11.0137 190.759 11.0778Z" fill="white"/>
<path d="M196.773 17.0361C196.626 16.9364 196.518 16.7905 196.464 16.6216C196.41 16.4528 196.415 16.2708 196.477 16.1048C196.539 15.9388 196.655 15.7984 196.806 15.7062C196.957 15.6139 197.135 15.5751 197.311 15.596C197.514 15.5946 197.709 15.6711 197.857 15.8096C198.275 16.1875 198.821 16.3937 199.384 16.3872C199.521 16.405 199.659 16.3939 199.791 16.3546C199.923 16.3154 200.045 16.2488 200.15 16.1593C200.254 16.0697 200.339 15.9592 200.398 15.8349C200.457 15.7106 200.489 15.5753 200.492 15.4377C200.492 14.7968 199.922 14.4407 198.965 14.4407H198.696C198.501 14.4407 198.313 14.3632 198.175 14.2252C198.037 14.0872 197.96 13.9 197.96 13.7048C197.967 13.5683 198.003 13.4347 198.066 13.3133C198.128 13.1918 198.216 13.0852 198.324 13.0006L199.843 11.4734H197.469C197.286 11.4545 197.117 11.3684 196.994 11.2317C196.87 11.0951 196.802 10.9176 196.802 10.7336C196.802 10.5496 196.87 10.3721 196.994 10.2355C197.117 10.0988 197.286 10.0127 197.469 9.99377H201.275C201.386 9.98268 201.497 9.99492 201.602 10.0297C201.708 10.0644 201.805 10.121 201.887 10.1956C201.969 10.2702 202.034 10.3612 202.079 10.4628C202.124 10.5643 202.146 10.6741 202.146 10.785C202.139 10.9744 202.089 11.1597 202 11.327C201.911 11.4942 201.785 11.639 201.631 11.7504L200.104 13.2063C201.165 13.3883 202.201 13.9501 202.201 15.3981C202.201 15.7538 202.126 16.1055 201.981 16.4304C201.837 16.7554 201.626 17.0465 201.362 17.285C201.098 17.5236 200.787 17.7042 200.449 17.8153C200.111 17.9264 199.754 17.9656 199.4 17.9302C198.443 17.9703 197.506 17.6514 196.773 17.0361Z" fill="white"/>
<path d="M203.427 13.9105C203.427 11.6475 204.836 9.86713 206.909 9.86713C208.982 9.86713 210.375 11.6237 210.375 13.8868C210.375 16.1577 208.974 17.9302 206.885 17.9302C204.796 17.9302 203.427 16.1815 203.427 13.9105ZM208.61 13.9105C208.61 12.4941 207.914 11.418 206.885 11.418C205.857 11.418 205.192 12.4625 205.192 13.8868C205.192 15.319 205.873 16.3793 206.909 16.3793C207.946 16.3793 208.61 15.3269 208.61 13.9105Z" fill="white"/>
<path d="M160.351 23.2C160.35 23.0865 160.371 22.9738 160.414 22.8687C160.457 22.7636 160.521 22.6681 160.601 22.5878C160.681 22.5075 160.777 22.444 160.882 22.401C160.987 22.3581 161.1 22.3365 161.213 22.3375H161.419C161.598 22.3391 161.773 22.3856 161.93 22.4727C162.086 22.5598 162.218 22.6847 162.313 22.836L165.629 27.1959V23.1605C165.649 22.949 165.747 22.7527 165.905 22.6099C166.062 22.4671 166.267 22.388 166.479 22.388C166.692 22.388 166.896 22.4671 167.054 22.6099C167.211 22.7527 167.309 22.949 167.33 23.1605V29.3877C167.33 29.5006 167.307 29.6124 167.264 29.7166C167.221 29.8208 167.157 29.9154 167.077 29.9948C166.996 30.0743 166.901 30.1371 166.797 30.1796C166.692 30.222 166.58 30.2434 166.467 30.2423H166.412C166.233 30.2407 166.057 30.1942 165.901 30.1071C165.745 30.0201 165.613 29.8951 165.518 29.7438L162.076 25.2257V29.4194C162.076 29.5306 162.054 29.6407 162.011 29.7434C161.969 29.8461 161.906 29.9395 161.828 30.0181C161.749 30.0967 161.656 30.1591 161.553 30.2016C161.45 30.2442 161.34 30.2661 161.229 30.2661C161.118 30.2661 161.008 30.2442 160.905 30.2016C160.802 30.1591 160.709 30.0967 160.63 30.0181C160.552 29.9395 160.489 29.8461 160.447 29.7434C160.404 29.6407 160.382 29.5306 160.382 29.4194L160.351 23.2Z" fill="white"/>
<path d="M168.825 26.3097C168.825 25.208 169.263 24.1513 170.042 23.3723C170.821 22.5932 171.878 22.1555 172.979 22.1555C174.081 22.1555 175.138 22.5932 175.917 23.3723C176.696 24.1513 177.134 25.208 177.134 26.3097C177.134 27.4115 176.696 28.4681 175.917 29.2472C175.138 30.0262 174.081 30.4639 172.979 30.4639C171.878 30.4639 170.821 30.0262 170.042 29.2472C169.263 28.4681 168.825 27.4115 168.825 26.3097ZM175.337 26.3097C175.349 25.9907 175.296 25.6727 175.182 25.3745C175.068 25.0764 174.895 24.8044 174.674 24.5746C174.452 24.3449 174.186 24.1622 173.893 24.0375C173.599 23.9128 173.283 23.8487 172.964 23.8489C172.647 23.8488 172.333 23.9122 172.04 24.0354C171.748 24.1587 171.484 24.3392 171.262 24.5664C171.041 24.7935 170.868 25.0628 170.752 25.3581C170.637 25.6535 170.581 25.969 170.59 26.286C170.579 26.6043 170.633 26.9215 170.747 27.2187C170.862 27.5159 171.035 27.787 171.257 28.0159C171.478 28.2448 171.743 28.4267 172.037 28.551C172.33 28.6752 172.645 28.7391 172.964 28.7389C173.28 28.739 173.593 28.6758 173.885 28.5531C174.177 28.4303 174.441 28.2505 174.662 28.0242C174.883 27.7978 175.057 27.5296 175.173 27.2352C175.289 26.9407 175.345 26.6261 175.337 26.3097Z" fill="white"/>
<path d="M180.481 29.641L177.941 23.5799C177.879 23.4483 177.844 23.3057 177.838 23.1605C177.838 23.0479 177.86 22.9365 177.904 22.8328C177.947 22.729 178.011 22.635 178.091 22.5561C178.172 22.4773 178.267 22.4153 178.372 22.3737C178.476 22.3321 178.588 22.3117 178.7 22.3138C178.891 22.3084 179.078 22.3638 179.234 22.472C179.391 22.5801 179.509 22.7354 179.571 22.9152L181.525 27.9793L183.503 22.8598C183.574 22.6917 183.695 22.5492 183.849 22.4516C184.003 22.354 184.184 22.306 184.366 22.3138C184.473 22.3137 184.579 22.3354 184.678 22.3776C184.777 22.4198 184.866 22.4817 184.94 22.5594C185.014 22.6371 185.071 22.7291 185.109 22.8297C185.146 22.9303 185.163 23.0375 185.157 23.1447C185.151 23.2754 185.121 23.4039 185.07 23.5245L182.506 29.641C182.439 29.8425 182.309 30.0171 182.135 30.1396C181.962 30.262 181.753 30.3257 181.541 30.3215H181.422C181.214 30.3207 181.011 30.2546 180.842 30.1325C180.673 30.0105 180.547 29.8386 180.481 29.641Z" fill="white"/>
<path d="M186.494 29.3403V23.2396C186.494 23.1267 186.517 23.0149 186.56 22.9107C186.604 22.8065 186.667 22.712 186.747 22.6325C186.828 22.553 186.923 22.4903 187.027 22.4478C187.132 22.4053 187.244 22.384 187.357 22.385H191.685C191.802 22.3531 191.925 22.3487 192.045 22.3721C192.164 22.3955 192.276 22.4461 192.373 22.52C192.47 22.5938 192.548 22.689 192.602 22.798C192.656 22.907 192.684 23.027 192.684 23.1486C192.684 23.2702 192.656 23.3902 192.602 23.4992C192.548 23.6082 192.47 23.7034 192.373 23.7772C192.276 23.8511 192.164 23.9017 192.045 23.9251C191.925 23.9485 191.802 23.9441 191.685 23.9122H188.203V25.4947H191.186C191.396 25.4947 191.598 25.5781 191.746 25.7265C191.894 25.8749 191.978 26.0761 191.978 26.286C191.978 26.4958 191.894 26.6971 191.746 26.8455C191.598 26.9939 191.396 27.0773 191.186 27.0773H188.203V28.7152H191.74C191.95 28.7152 192.151 28.7985 192.3 28.9469C192.448 29.0953 192.532 29.2966 192.532 29.5065C192.532 29.7163 192.448 29.9176 192.3 30.066C192.151 30.2144 191.95 30.2977 191.74 30.2977H187.357C187.235 30.2997 187.114 30.2756 187.002 30.2268C186.89 30.1781 186.789 30.106 186.708 30.0152C186.626 29.9245 186.565 29.8173 186.528 29.7009C186.491 29.5845 186.48 29.4615 186.494 29.3403Z" fill="white"/>
<path d="M193.972 23.2C193.971 23.0865 193.992 22.9739 194.035 22.8687C194.078 22.7636 194.142 22.6681 194.222 22.5878C194.302 22.5075 194.398 22.444 194.503 22.4011C194.608 22.3581 194.721 22.3365 194.834 22.3376H195.024C195.183 22.335 195.341 22.3746 195.48 22.4524C195.619 22.5303 195.734 22.6435 195.815 22.7807L197.889 26.1673L199.978 22.7728C200.054 22.6323 200.169 22.5167 200.31 22.4396C200.45 22.3625 200.609 22.3271 200.769 22.3376H200.959C201.18 22.3478 201.388 22.4434 201.54 22.6043C201.692 22.7652 201.776 22.9787 201.774 23.2V29.4036C201.774 29.6302 201.684 29.8476 201.523 30.0079C201.363 30.1681 201.146 30.2582 200.919 30.2582C200.693 30.2582 200.475 30.1681 200.315 30.0079C200.155 29.8476 200.065 29.6302 200.065 29.4036V25.5106L198.609 27.829C198.545 27.9649 198.444 28.0798 198.317 28.1604C198.19 28.2409 198.043 28.2836 197.893 28.2836C197.742 28.2836 197.595 28.2409 197.468 28.1604C197.342 28.0798 197.24 27.9649 197.176 27.829L195.689 25.5422V29.4273C195.669 29.6367 195.571 29.8311 195.415 29.9725C195.259 30.1139 195.057 30.1922 194.846 30.1922C194.636 30.1922 194.433 30.1139 194.277 29.9725C194.121 29.8311 194.024 29.6367 194.003 29.4273L193.972 23.2Z" fill="white"/>
<path d="M203.665 23.2396C203.665 23.0129 203.755 22.7956 203.915 22.6353C204.075 22.475 204.293 22.385 204.519 22.385H207.313C208.06 22.3371 208.795 22.5843 209.362 23.0734C209.537 23.2465 209.675 23.454 209.766 23.6827C209.857 23.9115 209.9 24.1566 209.892 24.4027C209.901 24.7529 209.809 25.0981 209.626 25.3971C209.444 25.696 209.179 25.936 208.864 26.0882C209.292 26.1902 209.672 26.4375 209.939 26.7881C210.206 27.1386 210.343 27.5707 210.327 28.0109C210.327 29.4352 209.172 30.1553 207.408 30.1553H204.543C204.43 30.1553 204.319 30.1329 204.214 30.0895C204.11 30.046 204.016 29.9824 203.936 29.9022C203.857 29.822 203.794 29.7268 203.751 29.6223C203.709 29.5177 203.688 29.4057 203.689 29.2928L203.665 23.2396ZM206.925 25.5422C207.716 25.5422 208.159 25.2969 208.159 24.7509C208.159 24.2366 207.764 23.9596 207.036 23.9596H205.334V25.6134L206.925 25.5422ZM207.384 28.7073C208.175 28.7073 208.595 28.4382 208.595 27.8606C208.595 27.3384 208.207 27.0139 207.328 27.0139H205.334V28.731L207.384 28.7073Z" fill="white"/>
<path d="M211.72 23.2396C211.72 23.1267 211.742 23.0149 211.786 22.9107C211.829 22.8065 211.893 22.712 211.973 22.6325C212.053 22.553 212.148 22.4903 212.253 22.4478C212.358 22.4053 212.47 22.384 212.583 22.385H215.297C216.131 22.3376 216.95 22.622 217.575 23.1763C217.8 23.4149 217.975 23.696 218.089 24.0032C218.203 24.3103 218.254 24.6372 218.24 24.9646C218.269 25.4783 218.131 25.9876 217.845 26.4157C217.56 26.8439 217.143 27.1677 216.658 27.3384L217.852 28.7943C218.023 28.9712 218.122 29.2053 218.129 29.4511C218.129 29.6609 218.046 29.8622 217.898 30.0106C217.749 30.159 217.548 30.2423 217.338 30.2423C217.172 30.2425 217.008 30.2022 216.86 30.1251C216.713 30.0479 216.586 29.9361 216.491 29.7992L214.814 27.6944H213.437V29.4036C213.449 29.5232 213.435 29.644 213.397 29.7581C213.359 29.8722 213.298 29.9771 213.217 30.0661C213.136 30.155 213.038 30.2261 212.928 30.2748C212.818 30.3234 212.699 30.3486 212.579 30.3486C212.458 30.3486 212.339 30.3234 212.229 30.2748C212.12 30.2261 212.021 30.155 211.94 30.0661C211.859 29.9771 211.798 29.8722 211.76 29.7581C211.722 29.644 211.709 29.5232 211.72 29.4036V23.2396ZM215.225 26.1752C216.056 26.1752 216.539 25.7321 216.539 25.0753C216.539 24.3395 216.025 23.9596 215.186 23.9596H213.477V26.1989L215.225 26.1752Z" fill="white"/>
<path d="M219.791 29.3403V23.2396C219.791 23.1267 219.813 23.0149 219.857 22.9107C219.9 22.8065 219.964 22.712 220.044 22.6325C220.124 22.553 220.219 22.4903 220.324 22.4478C220.429 22.4053 220.54 22.384 220.653 22.385H224.982C225.099 22.3531 225.222 22.3487 225.341 22.3721C225.461 22.3955 225.573 22.4461 225.67 22.52C225.766 22.5938 225.845 22.689 225.899 22.798C225.952 22.907 225.98 23.027 225.98 23.1486C225.98 23.2702 225.952 23.3902 225.899 23.4992C225.845 23.6082 225.766 23.7034 225.67 23.7772C225.573 23.8511 225.461 23.9017 225.341 23.9251C225.222 23.9485 225.099 23.9441 224.982 23.9122H221.5V25.4947H224.483C224.693 25.4947 224.894 25.5781 225.043 25.7265C225.191 25.8749 225.274 26.0761 225.274 26.286C225.274 26.4958 225.191 26.6971 225.043 26.8455C224.894 26.9939 224.693 27.0773 224.483 27.0773H221.5V28.7152H225.037C225.247 28.7152 225.448 28.7985 225.597 28.9469C225.745 29.0953 225.828 29.2966 225.828 29.5065C225.828 29.7163 225.745 29.9176 225.597 30.066C225.448 30.2144 225.247 30.2977 225.037 30.2977H220.653C220.531 30.2997 220.41 30.2756 220.298 30.2268C220.186 30.1781 220.086 30.106 220.004 30.0152C219.923 29.9245 219.861 29.8173 219.824 29.7009C219.788 29.5845 219.776 29.4615 219.791 29.3403Z" fill="white"/>
<path d="M179.349 40.9244L181.573 39.1045C182.546 38.3133 182.926 37.8781 182.926 37.2292C182.935 37.0905 182.913 36.9515 182.863 36.822C182.812 36.6925 182.734 36.5754 182.634 36.4791C182.534 36.3827 182.414 36.3093 182.283 36.2639C182.151 36.2185 182.012 36.2023 181.873 36.2164C181.623 36.2249 181.378 36.2907 181.157 36.4086C180.937 36.5266 180.746 36.6936 180.599 36.8969C180.525 36.975 180.435 37.0371 180.336 37.0792C180.237 37.1214 180.13 37.1428 180.022 37.1422C179.812 37.1422 179.611 37.0588 179.462 36.9104C179.314 36.762 179.231 36.5608 179.231 36.3509C179.236 36.1548 179.306 35.9659 179.428 35.8128C179.735 35.4334 180.127 35.1322 180.573 34.9341C181.019 34.7359 181.505 34.6466 181.992 34.6734C183.575 34.6734 184.682 35.6229 184.682 37.0472C184.682 38.3607 184.018 39.0017 182.625 40.0778L181.351 41.146H184.073C184.276 41.1457 184.472 41.2237 184.619 41.3636C184.766 41.5035 184.854 41.6948 184.864 41.8977C184.864 41.9988 184.842 42.0987 184.801 42.1913C184.76 42.2838 184.701 42.3671 184.627 42.436C184.553 42.5048 184.466 42.5579 184.371 42.5919C184.275 42.6259 184.174 42.64 184.073 42.6336H179.832C179.717 42.6547 179.598 42.6499 179.485 42.6197C179.372 42.5895 179.267 42.5346 179.178 42.4589C179.089 42.3832 179.017 42.2887 178.969 42.182C178.92 42.0754 178.896 41.9594 178.898 41.8423C178.892 41.664 178.93 41.487 179.009 41.3268C179.087 41.1667 179.204 41.0285 179.349 40.9244Z" fill="white"/>
<path d="M185.948 38.7168C185.948 36.4459 187.357 34.6734 189.43 34.6734C191.503 34.6734 192.896 36.4301 192.896 38.6931C192.896 40.9561 191.495 42.7365 189.414 42.7365C187.333 42.7365 185.948 40.9799 185.948 38.7168ZM191.131 38.7168C191.131 37.3004 190.435 36.2243 189.414 36.2243C188.393 36.2243 187.713 37.2609 187.713 38.6931C187.713 40.1253 188.393 41.1856 189.43 41.1856C190.467 41.1856 191.163 40.1332 191.163 38.7168H191.131Z" fill="white"/>
<path d="M194.352 40.9245L196.575 39.1045C197.548 38.3133 197.928 37.8781 197.928 37.2292C197.937 37.0905 197.915 36.9516 197.865 36.822C197.815 36.6925 197.737 36.5754 197.636 36.4791C197.536 36.3827 197.416 36.3093 197.285 36.2639C197.154 36.2186 197.014 36.2023 196.876 36.2164C196.625 36.2249 196.381 36.2907 196.16 36.4086C195.939 36.5266 195.748 36.6936 195.602 36.8969C195.527 36.975 195.438 37.0371 195.338 37.0792C195.239 37.1214 195.132 37.1428 195.024 37.1422C194.814 37.1422 194.613 37.0588 194.465 36.9104C194.316 36.762 194.233 36.5608 194.233 36.3509C194.239 36.1548 194.308 35.9659 194.431 35.8128C194.74 35.4289 195.138 35.1249 195.589 34.9266C196.041 34.7283 196.534 34.6415 197.026 34.6734C198.648 34.6734 199.716 35.6229 199.716 37.0472C199.716 38.3607 199.052 39.0017 197.659 40.0778L196.353 41.146H199.075C199.272 41.1556 199.457 41.2379 199.596 41.3768C199.735 41.5158 199.818 41.7014 199.827 41.8977C199.826 41.9954 199.806 42.0919 199.768 42.1818C199.729 42.2716 199.674 42.353 199.604 42.4213C199.534 42.4897 199.451 42.5436 199.361 42.58C199.27 42.6164 199.173 42.6346 199.075 42.6336H194.834C194.719 42.6547 194.601 42.65 194.488 42.6197C194.374 42.5895 194.269 42.5346 194.18 42.4589C194.091 42.3832 194.019 42.2887 193.971 42.182C193.923 42.0754 193.899 41.9594 193.901 41.8423C193.894 41.664 193.932 41.487 194.011 41.3269C194.09 41.1667 194.207 41.0285 194.352 40.9245Z" fill="white"/>
<path d="M201.259 41.8424C201.172 41.7648 201.101 41.6698 201.052 41.5636C201.003 41.4574 200.977 41.3421 200.974 41.2252C200.984 41.0184 201.071 40.8227 201.217 40.6764C201.363 40.53 201.559 40.4435 201.766 40.4339C201.968 40.4326 202.164 40.5091 202.312 40.6475C202.732 41.0266 203.281 41.2329 203.847 41.2252C203.983 41.2418 204.12 41.2298 204.251 41.19C204.382 41.1501 204.503 41.0834 204.607 40.9939C204.711 40.9045 204.794 40.7944 204.853 40.6707C204.911 40.547 204.943 40.4125 204.947 40.2757C204.947 39.6426 204.377 39.2866 203.419 39.2866H203.15C202.955 39.2845 202.767 39.2052 202.63 39.0659C202.492 38.9267 202.415 38.7387 202.415 38.5428C202.424 38.4078 202.461 38.2761 202.523 38.1563C202.586 38.0364 202.673 37.9309 202.779 37.8465L204.298 36.3114H201.924C201.729 36.3114 201.542 36.2339 201.404 36.0959C201.266 35.9579 201.188 35.7707 201.188 35.5755C201.188 35.3803 201.266 35.1932 201.404 35.0552C201.542 34.9172 201.729 34.8396 201.924 34.8396H205.73C205.84 34.8285 205.952 34.8408 206.057 34.8755C206.162 34.9103 206.259 34.9668 206.341 35.0414C206.423 35.1161 206.489 35.2071 206.534 35.3086C206.578 35.4102 206.601 35.52 206.6 35.6309C206.594 35.8193 206.544 36.0037 206.455 36.1697C206.366 36.3357 206.24 36.479 206.086 36.5883L204.567 37.981C205.627 38.163 206.664 38.7169 206.664 40.1728C206.667 40.5312 206.594 40.8862 206.451 41.2146C206.307 41.543 206.096 41.8375 205.831 42.0787C205.565 42.3199 205.252 42.5025 204.912 42.6145C204.572 42.7264 204.211 42.7653 203.855 42.7286C202.91 42.7614 201.987 42.446 201.259 41.8424Z" fill="white"/>
<path d="M156.671 62.7477C156.671 62.5378 156.755 62.3366 156.903 62.1882C157.052 62.0398 157.253 61.9564 157.463 61.9564H157.629C157.77 61.9544 157.908 61.9901 158.031 62.0596C158.153 62.1292 158.255 62.2301 158.325 62.352L160.177 65.3668L162.036 62.3441C162.102 62.222 162.2 62.1208 162.321 62.0522C162.441 61.9836 162.578 61.9504 162.717 61.9564H162.891C163.101 61.9564 163.302 62.0398 163.45 62.1882C163.599 62.3366 163.682 62.5378 163.682 62.7477V68.2866C163.682 68.4964 163.599 68.6977 163.45 68.8461C163.302 68.9945 163.101 69.0778 162.891 69.0778C162.681 69.0778 162.48 68.9945 162.331 68.8461C162.183 68.6977 162.099 68.4964 162.099 68.2866V64.805L160.762 66.8702C160.701 66.9862 160.609 67.0832 160.497 67.151C160.385 67.2187 160.256 67.2545 160.125 67.2545C159.994 67.2545 159.866 67.2187 159.753 67.151C159.641 67.0832 159.549 66.9862 159.488 66.8702L158.167 64.8287V68.2866C158.115 68.4449 158.014 68.5827 157.879 68.6804C157.744 68.7781 157.582 68.8308 157.415 68.8308C157.249 68.8308 157.086 68.7781 156.951 68.6804C156.816 68.5827 156.715 68.4449 156.663 68.2866L156.671 62.7477Z" fill="white"/>
<path d="M164.956 65.5171C165 64.5656 165.409 63.6677 166.098 63.0099C166.787 62.3521 167.703 61.9851 168.655 61.9851C169.608 61.9851 170.524 62.3521 171.213 63.0099C171.901 63.6677 172.31 64.5656 172.354 65.5171C172.354 65.9987 172.256 66.4753 172.068 66.9185C171.88 67.3618 171.604 67.7628 171.258 68.0977C170.912 68.4327 170.503 68.6948 170.053 68.8686C169.604 69.0424 169.125 69.1243 168.643 69.1095C168.163 69.1266 167.683 69.0461 167.234 68.8729C166.786 68.6996 166.377 68.4372 166.032 68.1015C165.687 67.7657 165.414 67.3636 165.229 66.9194C165.044 66.4753 164.952 65.9982 164.956 65.5171ZM170.748 65.5171C170.762 65.2318 170.718 64.9466 170.619 64.6789C170.519 64.4111 170.366 64.1662 170.17 63.9591C169.973 63.752 169.736 63.587 169.474 63.474C169.212 63.3609 168.929 63.3023 168.643 63.3016C168.362 63.3002 168.083 63.356 167.824 63.4655C167.565 63.575 167.33 63.736 167.135 63.9387C166.94 64.1413 166.788 64.3815 166.688 64.6446C166.588 64.9078 166.543 65.1885 166.554 65.4696C166.546 65.7527 166.594 66.0347 166.697 66.2988C166.799 66.5629 166.953 66.8038 167.15 67.0074C167.347 67.211 167.583 67.373 167.843 67.484C168.104 67.595 168.384 67.6526 168.667 67.6535C168.945 67.6536 169.22 67.598 169.477 67.49C169.733 67.382 169.965 67.2237 170.159 67.0246C170.353 66.8254 170.505 66.5894 170.606 66.3305C170.707 66.0716 170.756 65.795 170.748 65.5171Z" fill="white"/>
<path d="M173.707 62.7477C173.707 62.5378 173.791 62.3366 173.939 62.1882C174.088 62.0398 174.289 61.9564 174.499 61.9564H174.657C174.816 61.96 174.972 62.0031 175.11 62.0818C175.248 62.1605 175.364 62.2725 175.448 62.4074L178.392 66.2767V62.716C178.355 62.5976 178.347 62.4722 178.367 62.3499C178.388 62.2276 178.437 62.1119 178.51 62.0121C178.584 61.9122 178.68 61.8311 178.79 61.7751C178.901 61.7192 179.023 61.6901 179.147 61.6901C179.271 61.6901 179.394 61.7192 179.504 61.7751C179.615 61.8311 179.711 61.9122 179.785 62.0121C179.858 62.1119 179.907 62.2276 179.928 62.3499C179.948 62.4722 179.94 62.5976 179.903 62.716V68.2549C179.903 68.4648 179.82 68.666 179.671 68.8144C179.523 68.9628 179.322 69.0462 179.112 69.0462H179.056C178.898 69.0456 178.742 69.0047 178.603 68.9272C178.465 68.8496 178.349 68.7381 178.265 68.6031L175.203 64.5834V68.3103C175.24 68.4287 175.248 68.5541 175.228 68.6764C175.207 68.7987 175.158 68.9144 175.084 69.0143C175.011 69.1141 174.915 69.1953 174.804 69.2512C174.694 69.3071 174.571 69.3363 174.447 69.3363C174.323 69.3363 174.201 69.3071 174.09 69.2512C173.98 69.1953 173.884 69.1141 173.81 69.0143C173.737 68.9144 173.688 68.7987 173.667 68.6764C173.646 68.5541 173.655 68.4287 173.692 68.3103L173.707 62.7477Z" fill="white"/>
<path d="M183.179 63.4282H181.707C181.521 63.4282 181.341 63.354 181.209 63.2219C181.077 63.0899 181.003 62.9107 181.003 62.724C181.003 62.5372 181.077 62.3581 181.209 62.226C181.341 62.0939 181.521 62.0197 181.707 62.0197H186.178C186.365 62.0197 186.544 62.0939 186.676 62.226C186.808 62.3581 186.882 62.5372 186.882 62.724C186.882 62.9107 186.808 63.0899 186.676 63.2219C186.544 63.354 186.365 63.4282 186.178 63.4282H184.706V68.2708C184.738 68.3881 184.743 68.5113 184.719 68.6306C184.696 68.7499 184.645 68.8623 184.571 68.9589C184.497 69.0555 184.402 69.1338 184.293 69.1876C184.184 69.2415 184.064 69.2696 183.943 69.2696C183.821 69.2696 183.701 69.2415 183.592 69.1876C183.483 69.1338 183.388 69.0555 183.314 68.9589C183.24 68.8623 183.19 68.7499 183.166 68.6306C183.143 68.5113 183.147 68.3881 183.179 68.2708V63.4282Z" fill="white"/>
<path d="M187.998 62.7872C187.998 62.5774 188.081 62.3761 188.23 62.2277C188.378 62.0793 188.579 61.996 188.789 61.996H190.87C192.524 61.996 193.529 62.9771 193.529 64.3698C193.529 65.9523 192.279 66.8148 190.72 66.8148H189.557V68.1995C189.588 68.3169 189.593 68.44 189.57 68.5593C189.546 68.6787 189.496 68.791 189.422 68.8876C189.348 68.9842 189.253 69.0625 189.144 69.1164C189.035 69.1703 188.915 69.1983 188.793 69.1983C188.671 69.1983 188.551 69.1703 188.442 69.1164C188.333 69.0625 188.238 68.9842 188.164 68.8876C188.091 68.791 188.04 68.6787 188.017 68.5593C187.993 68.44 187.998 68.3169 188.029 68.1995L187.998 62.7872ZM190.736 65.525C190.886 65.5453 191.039 65.5332 191.184 65.4897C191.33 65.4462 191.464 65.3721 191.579 65.2726C191.693 65.173 191.785 65.0501 191.849 64.9122C191.912 64.7743 191.945 64.6244 191.946 64.4726C191.946 63.7842 191.471 63.4203 190.704 63.4203H189.525V65.5409L190.736 65.525Z" fill="white"/>
<path d="M194.652 68.2074V62.7872C194.652 62.5774 194.736 62.3761 194.884 62.2277C195.032 62.0793 195.234 61.996 195.444 61.996H199.297C199.48 61.996 199.655 62.0685 199.784 62.1976C199.913 62.3267 199.986 62.5018 199.986 62.6844C199.984 62.7737 199.966 62.862 199.931 62.9442C199.896 63.0264 199.845 63.1008 199.781 63.1633C199.717 63.2257 199.641 63.275 199.558 63.3082C199.475 63.3414 199.386 63.358 199.297 63.357H196.195V64.7654H198.854C199.035 64.7675 199.208 64.8409 199.336 64.9698C199.463 65.0987 199.534 65.2726 199.534 65.4538C199.534 65.5428 199.517 65.6309 199.483 65.713C199.448 65.7952 199.398 65.8697 199.335 65.9322C199.271 65.9948 199.196 66.0442 199.114 66.0775C199.031 66.1108 198.943 66.1274 198.854 66.1264H196.195V67.5902H199.36C199.543 67.5902 199.718 67.6628 199.847 67.7919C199.976 67.921 200.049 68.0961 200.049 68.2787C200.048 68.368 200.029 68.4563 199.994 68.5385C199.959 68.6206 199.908 68.6951 199.844 68.7575C199.78 68.82 199.704 68.8692 199.621 68.9025C199.538 68.9357 199.45 68.9523 199.36 68.9512H195.459C195.255 68.9557 195.056 68.8807 194.906 68.742C194.755 68.6033 194.665 68.4117 194.652 68.2074Z" fill="white"/>
<path d="M201.283 62.724C201.326 62.5529 201.425 62.401 201.564 62.2925C201.703 62.184 201.874 62.1251 202.051 62.1251C202.227 62.1251 202.398 62.184 202.537 62.2925C202.676 62.401 202.775 62.5529 202.818 62.724V67.5824H205.651C205.836 67.5824 206.013 67.6557 206.143 67.7863C206.274 67.9169 206.347 68.094 206.347 68.2787C206.347 68.4634 206.274 68.6405 206.143 68.7711C206.013 68.9016 205.836 68.975 205.651 68.975H202.051C201.841 68.975 201.64 68.8916 201.491 68.7432C201.343 68.5948 201.259 68.3936 201.259 68.1837L201.283 62.724Z" fill="white"/>
<path d="M207.431 62.724C207.474 62.5529 207.573 62.401 207.712 62.2925C207.851 62.184 208.022 62.1251 208.199 62.1251C208.375 62.1251 208.547 62.184 208.686 62.2925C208.825 62.401 208.924 62.5529 208.966 62.724V67.5824H211.799C211.984 67.5824 212.161 67.6557 212.292 67.7863C212.422 67.9169 212.495 68.094 212.495 68.2787C212.495 68.4634 212.422 68.6405 212.292 68.7711C212.161 68.9016 211.984 68.975 211.799 68.975H208.199C207.989 68.975 207.788 68.8916 207.639 68.7432C207.491 68.5948 207.408 68.3936 207.408 68.1837L207.431 62.724Z" fill="white"/>
<path d="M213.643 62.724C213.686 62.5529 213.785 62.401 213.924 62.2925C214.063 62.184 214.234 62.1251 214.41 62.1251C214.587 62.1251 214.758 62.184 214.897 62.2925C215.036 62.401 215.135 62.5529 215.178 62.724V68.2629C215.135 68.4339 215.036 68.5858 214.897 68.6943C214.758 68.8028 214.587 68.8618 214.41 68.8618C214.234 68.8618 214.063 68.8028 213.924 68.6943C213.785 68.5858 213.686 68.4339 213.643 68.2629V62.724Z" fill="white"/>
<path d="M216.919 68.2074V62.7872C216.919 62.5774 217.002 62.3761 217.15 62.2277C217.299 62.0793 217.5 61.996 217.71 61.996H221.556C221.738 61.996 221.913 62.0685 222.042 62.1976C222.171 62.3267 222.244 62.5018 222.244 62.6844C222.243 62.7737 222.224 62.862 222.189 62.9442C222.154 63.0264 222.103 63.1008 222.039 63.1633C221.975 63.2257 221.9 63.275 221.817 63.3082C221.734 63.3414 221.645 63.358 221.556 63.357H218.462V64.7654H221.112C221.202 64.7654 221.292 64.7833 221.375 64.818C221.458 64.8527 221.533 64.9035 221.596 64.9675C221.66 65.0315 221.71 65.1075 221.743 65.191C221.777 65.2745 221.794 65.3638 221.793 65.4538C221.793 65.5428 221.775 65.6309 221.741 65.713C221.707 65.7952 221.656 65.8697 221.593 65.9322C221.53 65.9948 221.455 66.0442 221.372 66.0775C221.29 66.1108 221.201 66.1274 221.112 66.1264H218.462V67.5902H221.627C221.808 67.5923 221.981 67.6658 222.108 67.7947C222.236 67.9235 222.307 68.0974 222.307 68.2787C222.305 68.4578 222.233 68.6288 222.105 68.7547C221.978 68.8806 221.806 68.9512 221.627 68.9512H217.718C217.515 68.9536 217.318 68.8777 217.169 68.7392C217.021 68.6008 216.931 68.4103 216.919 68.2074Z" fill="white"/>
<path d="M223.573 62.7872C223.573 62.5774 223.657 62.3761 223.805 62.2277C223.953 62.0793 224.155 61.996 224.364 61.996H226.778C227.146 61.9714 227.514 62.0211 227.862 62.1421C228.21 62.2631 228.53 62.4529 228.804 62.7002C229.006 62.9096 229.163 63.1578 229.266 63.4299C229.37 63.7019 229.417 63.992 229.405 64.2827C229.445 64.7524 229.328 65.2221 229.071 65.6176C228.815 66.0131 228.434 66.3118 227.989 66.4666L229.049 67.7564C229.202 67.9138 229.293 68.1223 229.302 68.3419C229.301 68.4365 229.281 68.5299 229.244 68.6169C229.207 68.7039 229.153 68.7827 229.086 68.8488C229.018 68.9149 228.938 68.9671 228.85 69.0023C228.762 69.0375 228.669 69.0551 228.574 69.0541C228.425 69.0541 228.279 69.0172 228.147 68.9468C228.016 68.8764 227.905 68.7746 227.822 68.6505L226.303 66.7515H225.085V68.2707C225.114 68.3874 225.116 68.5092 225.091 68.6269C225.066 68.7446 225.015 68.855 224.941 68.9499C224.867 69.0447 224.772 69.1214 224.664 69.1742C224.556 69.2269 224.437 69.2544 224.317 69.2544C224.197 69.2544 224.078 69.2269 223.97 69.1742C223.862 69.1214 223.767 69.0447 223.693 68.9499C223.619 68.855 223.568 68.7446 223.543 68.6269C223.518 68.5092 223.52 68.3874 223.549 68.2707L223.573 62.7872ZM226.659 65.3984C227.403 65.3984 227.83 65.0028 227.83 64.4172C227.83 63.7605 227.371 63.4282 226.628 63.4282H225.108V65.4222L226.659 65.3984Z" fill="white"/>
</g>
<defs>
<clipPath id="clip0_152_3247">
<rect width="240" height="79.1507" fill="white"/>
</clipPath>
</defs>
</svg>
