<?xml version="1.0" encoding="utf-8"?>
<!-- Generator: Adobe Illustrator 21.0.0, SVG Export Plug-In . SVG Version: 6.00 Build 0)  -->
<svg version="1.1" id="Calque_1" xmlns="http://www.w3.org/2000/svg" xmlns:xlink="http://www.w3.org/1999/xlink" x="0px" y="0px"
	 viewBox="0 0 84.8 84.8" style="enable-background:new 0 0 84.8 84.8;" xml:space="preserve">
<style type="text/css">
	.st0{fill:#8DC63F;}
	.st1{fill:#FFFFFF;}
</style>
<g>
	<path d="M84.8,42.4C84.8,19,65.8,0,42.4,0C19,0,0,19,0,42.4c0,23.4,19,42.4,42.4,42.4c13.9,0,41.5,0,41.5,0S84.8,51.9,84.8,42.4"/>
	<g>
		<g>
			<path class="st0" d="M43,61.2L43,61.2l1.3-4.8c0.1-0.5,0.4-0.9,1-0.9c0.8,0,1.1,0.7,1.1,1c0,0.2-0.1,0.4-0.2,0.7l-2.4,6.9
				c-0.5,1.4-1.1,2.2-2.4,2.2c-0.9,0-1.3-0.5-1.3-1c0-0.6,0.4-0.9,1-0.9h0.2c0.3,0,0.6,0,0.7-0.7l-2.2-6.3c-0.2-0.5-0.3-0.7-0.3-1
				c0-0.6,0.5-1,1-1c0.6,0,1,0.3,1.1,0.8L43,61.2z"/>
			<path class="st0" d="M49,59.9c0,1.1,0.7,1.9,2,1.9c1.6,0,1.6-1,2.4-1c0.5,0,0.9,0.4,0.9,0.8c0,1.3-2,1.9-3.3,1.9
				c-3,0-4.1-2-4.1-3.8c0-2.5,1.5-4.1,4-4.1c2.4,0,3.8,1.7,3.8,3.5c0,0.7-0.2,0.9-0.9,0.9H49z M52.7,58.7c-0.1-1-0.8-1.7-1.8-1.7
				c-1.1,0-1.7,0.7-1.9,1.7H52.7z"/>
			<path class="st0" d="M63.1,61.2c0,0.9,0.2,1.1,0.2,1.4c0,0.5-0.4,0.8-1,0.8c-0.9,0-1.2-0.6-1.2-1.2c-0.8,0.9-1.8,1.2-2.9,1.2
				c-1.2,0-2.4-0.8-2.4-2.2c0-1.8,1.3-2.2,3-2.4l1.3-0.1c0.5-0.1,0.9-0.2,0.9-0.8s-0.6-0.9-1.3-0.9c-1.6,0-1.6,1.2-2.4,1.2
				c-0.5,0-0.9-0.4-0.9-0.8c0-0.8,1.2-1.9,3.4-1.9c2,0,3.4,0.7,3.4,2.2V61.2z M61,59.7c-0.2,0.2-0.7,0.3-0.9,0.3l-0.8,0.1
				c-0.9,0.1-1.4,0.4-1.4,1c0,0.5,0.4,0.9,1.2,0.9c1.2,0,1.9-0.8,1.9-1.5V59.7z"/>
			<path class="st0" d="M65,56.5c0-0.6,0.4-1,1-1s1,0.3,1,1v0.8h0c0.2-0.9,0.7-1.8,1.8-1.8c0.7,0,1.2,0.4,1.2,1c0,0.8-0.5,1.1-1,1.1
				h-0.4c-0.9,0-1.3,0.6-1.3,2.3v2.5c0,0.6-0.2,1.1-1.1,1.1S65,63,65,62.4V56.5z"/>
			<path class="st0" d="M73.6,55.5c1.6,0,3.2,0.6,3.2,1.6c0,0.5-0.3,0.9-0.9,0.9c-0.8,0-0.9-1-2.2-1c-0.7,0-1.2,0.2-1.2,0.7
				c0,0.5,0.5,0.6,1.1,0.8l0.9,0.2c1.2,0.3,2.6,0.8,2.6,2.3c0,1.7-1.7,2.5-3.3,2.5c-1.9,0-3.5-0.9-3.5-1.9c0-0.5,0.3-0.9,0.9-0.9
				c0.9,0,1,1.3,2.6,1.3c0.8,0,1.2-0.3,1.2-0.8c0-0.5-0.5-0.6-1.2-0.8l-1.2-0.3c-1.2-0.3-2.2-0.8-2.2-2.2
				C70.5,56.1,72.2,55.5,73.6,55.5z"/>
		</g>
		<g>
			<path class="st0" d="M55.5,52.5c-1.6,0-2.9-1.3-2.9-2.9c0-1.6,1.3-2.9,2.9-2.9c6.8,0,12.4-5.6,12.4-12.4
				c0-6.8-5.6-12.4-12.4-12.4c-6.8,0-12.4,5.6-12.4,12.4c0,1.5,0.3,2.9,0.7,4.2c0.6,1.5-0.2,3.2-1.8,3.8c-1.5,0.5-3.2-0.2-3.8-1.8
				c-0.7-2-1.1-4.1-1.1-6.2c0-10.1,8.2-18.3,18.3-18.3c10.1,0,18.3,8.2,18.3,18.3C73.8,44.3,65.6,52.5,55.5,52.5z"/>
			<path class="st0" d="M55.5,21.8c-6.8,0-12.4,5.6-12.4,12.4c0,1.5,0.3,2.9,0.7,4.2c0.6,1.5-0.2,3.2-1.8,3.8
				c-1.5,0.5-3.2-0.2-3.8-1.8c-0.7-2-1.1-4.1-1.1-6.2c0-10.1,8.2-18.3,18.3-18.3V21.8z"/>
			<g>
				<path class="st0" d="M27.7,52.5H14.9c-2.7,0-3.9-1.9-3.9-3.5c0-1.3,0.3-2.1,1-3l15.7-20.2c0.8-1,1.9-1.4,3.3-1.4
					c2.8,0,3.8,1.5,3.8,3.7v18.7h21.6c1.7,0,2.9,1.2,2.9,2.9s-1.1,2.9-2.9,2.9H34.9v6.8c0,2.1-0.9,3.6-3.6,3.6
					c-2.7,0-3.6-1.4-3.6-3.6V52.5z M27.7,34.7h-0.1l-8.7,11.9h8.8V34.7z"/>
			</g>
		</g>
	</g>
	<g>
		<path class="st1" d="M40.8,75.5h-1.1c-0.3,0-0.4-0.1-0.4-0.4c0-0.3,0.2-0.4,0.6-0.5l0.3-0.1c0.9-0.2,0.7-1.2,1.4-1.2
			c0.3,0,0.5,0.1,0.5,0.6v4.8c0,0.4-0.2,0.7-0.6,0.7s-0.6-0.3-0.6-0.7V75.5z"/>
		<path class="st1" d="M46.3,76.8c-0.4,0.3-0.8,0.5-1.3,0.5c-1.3,0-2-0.8-2-1.9c0-1.4,1-2.1,2.2-2.1c1.8,0,2.3,1.4,2.3,2.7
			c0,2.5-1,3.4-2.5,3.4c-1,0-1.7-0.6-1.7-1.1c0-0.3,0.2-0.5,0.5-0.5c0.6,0,0.6,0.7,1.3,0.7c0.9,0,1.2-0.9,1.2-1.6V76.8z M45.3,74.3
			c-0.6,0-1,0.4-1,1c0,0.7,0.4,1,1,1c0.5,0,1-0.4,1-1C46.3,74.7,45.9,74.3,45.3,74.3z"/>
		<path class="st1" d="M52,73.5c0.3,0,0.6,0.1,0.6,0.6c0,0.7-1.4,0.9-2.2,4.7c-0.1,0.5-0.2,0.7-0.6,0.7c-0.5,0-0.6-0.3-0.6-0.6
			c0-0.8,1.1-3.3,2.2-4.3h-2.7c-0.3,0-0.5-0.2-0.5-0.5s0.2-0.5,0.6-0.5H52z"/>
		<path class="st1" d="M56.8,73.5c0.3,0,0.6,0.1,0.6,0.6c0,0.7-1.4,0.9-2.2,4.7c-0.1,0.5-0.2,0.7-0.6,0.7c-0.5,0-0.6-0.3-0.6-0.6
			c0-0.8,1.1-3.3,2.2-4.3h-2.7c-0.3,0-0.5-0.2-0.5-0.5s0.2-0.5,0.6-0.5H56.8z"/>
		<path class="st1" d="M60,76.5c0.4,0,0.7,0.2,0.7,0.6c0,0.4-0.3,0.6-0.7,0.6h-1.4c-0.4,0-0.7-0.2-0.7-0.6c0-0.4,0.3-0.6,0.7-0.6H60
			z"/>
		<path class="st1" d="M65.2,78.3c0.3,0,0.6,0.2,0.6,0.5c0,0.4-0.2,0.5-0.6,0.5H62c-0.5,0-0.7-0.3-0.7-0.6c0-0.6,0.5-1.3,1.6-1.9
			c1.2-0.7,1.6-0.9,1.6-1.6c0-0.5-0.4-0.9-0.9-0.9c-0.5,0-0.9,0.2-1.1,0.9c-0.1,0.3-0.2,0.5-0.5,0.5c-0.3,0-0.6-0.1-0.6-0.6
			c0-1,1-1.8,2.2-1.8c1.3,0,2.1,0.9,2.1,1.7c0,1.1-0.5,1.6-1.4,2.1c-1,0.5-1.5,0.9-1.6,1.2H65.2z"/>
		<path class="st1" d="M68.6,73.4c1.4,0,2.2,1,2.2,3c0,1.5-0.5,3.1-2.2,3.1s-2.2-1.6-2.2-3.1C66.3,74.4,67.2,73.4,68.6,73.4z
			 M68.6,78.5c0.6,0,1-0.5,1-2c0-1.3-0.3-2-1-2s-1,0.8-1,2C67.6,77.9,67.9,78.5,68.6,78.5z"/>
		<path class="st1" d="M72.6,75.5h-1.1c-0.3,0-0.4-0.1-0.4-0.4c0-0.3,0.2-0.4,0.6-0.5l0.3-0.1c0.9-0.2,0.7-1.2,1.4-1.2
			c0.3,0,0.5,0.1,0.5,0.6v4.8c0,0.4-0.2,0.7-0.6,0.7s-0.6-0.3-0.6-0.7V75.5z"/>
		<path class="st1" d="M78.6,73.5c0.3,0,0.6,0.1,0.6,0.6c0,0.7-1.4,0.9-2.2,4.7c-0.1,0.5-0.2,0.7-0.6,0.7c-0.5,0-0.6-0.3-0.6-0.6
			c0-0.8,1.1-3.3,2.2-4.3h-2.7c-0.3,0-0.5-0.2-0.5-0.5s0.2-0.5,0.6-0.5H78.6z"/>
	</g>
</g>
</svg>
