<svg xmlns="http://www.w3.org/2000/svg" viewBox="0 0 84.77 84.76"><defs><style>.a{fill:#231f20;}.b{fill:#8dc63f;}.c{fill:#fff;}</style></defs><title>pastille-fr</title><path class="a" d="M88.79,46.3A42.38,42.38,0,1,0,46.41,88.66H87.91s.88-32.84.88-42.36" transform="translate(-4.02 -3.9)"/><path class="b" d="M51.19,65.12a7.61,7.61,0,0,0,.22,1.42.88.88,0,0,1-1,.81,1.14,1.14,0,0,1-1.24-1.23,3.64,3.64,0,0,1-2.89,1.23,2.26,2.26,0,0,1-2.39-2.16c0-1.75,1.33-2.24,3-2.43l1.29-.14c.51-.06.91-.17.91-.78S48.46,61,47.75,61c-1.56,0-1.61,1.16-2.45,1.16a.84.84,0,0,1-.9-.81c0-.84,1.19-1.91,3.36-1.91s3.43.65,3.43,2.17ZM49.08,63.6a1.91,1.91,0,0,1-.91.33L47.4,64c-.88.13-1.36.41-1.36,1,0,.48.45.87,1.17.87a1.69,1.69,0,0,0,1.87-1.53Z" transform="translate(-4.02 -3.9)"/><path class="b" d="M53,60.46c0-.64.29-1.06,1-1.06s1,.42,1,1.06v.27h0a3,3,0,0,1,2.56-1.33,2.48,2.48,0,0,1,2.66,2.78v4.11a1.06,1.06,0,1,1-2.11,0V62.6c0-.85-.42-1.46-1.33-1.46a1.64,1.64,0,0,0-1.61,1.66v3.49a1.06,1.06,0,1,1-2.11,0Z" transform="translate(-4.02 -3.9)"/><path class="b" d="M64.7,59.41c1.61,0,3.23.64,3.23,1.61a.88.88,0,0,1-.88.93c-.82,0-.85-1-2.18-1-.74,0-1.21.2-1.21.65s.48.61,1.13.75l.88.2c1.2.28,2.63.78,2.63,2.26,0,1.72-1.66,2.52-3.25,2.52-1.91,0-3.5-.85-3.5-1.9a.81.81,0,0,1,.85-.88c.91,0,1,1.3,2.56,1.3.75,0,1.23-.33,1.23-.77s-.46-.62-1.21-.81L63.71,64c-1.23-.3-2.18-.81-2.18-2.23C61.53,60,63.24,59.41,64.7,59.41Z" transform="translate(-4.02 -3.9)"/><path class="b" d="M59.57,56.39a2.93,2.93,0,0,1,0-5.86A12.39,12.39,0,1,0,47.9,42.36a2.93,2.93,0,1,1-5.51,2,18.28,18.28,0,1,1,17.18,12Z" transform="translate(-4.02 -3.9)"/><path class="b" d="M59.57,25.7A12.43,12.43,0,0,0,47.9,42.36a2.93,2.93,0,1,1-5.51,2A18.29,18.29,0,0,1,59.57,19.84Z" transform="translate(-4.02 -3.9)"/><path class="b" d="M31.75,56.39H18.92A3.59,3.59,0,0,1,15,52.86a4.46,4.46,0,0,1,1-3L31.75,29.65a3.85,3.85,0,0,1,3.32-1.43c2.76,0,3.83,1.48,3.83,3.68V50.56H60.48a2.91,2.91,0,0,1,0,5.83H38.91V63.2c0,2.15-.92,3.58-3.58,3.58s-3.58-1.43-3.58-3.58Zm0-17.75h-.1l-8.7,11.92h8.8Z" transform="translate(-4.02 -3.9)"/><path class="c" d="M44.78,79.44H43.69c-.28,0-.43-.1-.43-.45s.17-.4.61-.48l.31-.07c.94-.2.67-1.16,1.39-1.16.27,0,.49.12.49.57v4.78c0,.44-.17.74-.64.74s-.64-.3-.64-.74Z" transform="translate(-4.02 -3.9)"/><path class="c" d="M50.36,80.7a1.77,1.77,0,0,1-1.31.54,1.81,1.81,0,0,1-2-1.86,2,2,0,0,1,2.18-2.09c1.79,0,2.32,1.39,2.32,2.72,0,2.49-1,3.38-2.54,3.38-1,0-1.68-.57-1.68-1.09a.54.54,0,0,1,.53-.55c.56,0,.58.72,1.26.72.88,0,1.2-.85,1.2-1.63ZM49.3,78.25a.93.93,0,0,0-1,1,.92.92,0,0,0,1,1,1,1,0,0,0,1-1A.94.94,0,0,0,49.3,78.25Z" transform="translate(-4.02 -3.9)"/><path class="c" d="M56,77.4c.33,0,.58.13.58.61,0,.67-1.39.92-2.25,4.72-.11.5-.23.67-.62.67s-.61-.28-.61-.64a8.87,8.87,0,0,1,2.19-4.29H52.55a.48.48,0,0,1-.54-.53.49.49,0,0,1,.56-.53Z" transform="translate(-4.02 -3.9)"/><path class="c" d="M60.82,77.4c.33,0,.58.13.58.61,0,.67-1.39.92-2.25,4.72-.11.5-.23.67-.62.67s-.61-.28-.61-.64a8.87,8.87,0,0,1,2.19-4.29H57.38a.48.48,0,0,1-.54-.53.49.49,0,0,1,.56-.53Z" transform="translate(-4.02 -3.9)"/><path class="c" d="M64,80.37c.38,0,.68.15.68.58s-.3.58-.68.58H62.61c-.38,0-.68-.15-.68-.58s.3-.58.68-.58Z" transform="translate(-4.02 -3.9)"/><path class="c" d="M69.2,82.21a.49.49,0,0,1,.56.53c0,.38-.24.53-.62.53H66a.62.62,0,0,1-.69-.62c0-.6.53-1.26,1.58-1.93s1.58-.89,1.58-1.58a.84.84,0,0,0-.88-.85,1,1,0,0,0-1.09.89c-.08.31-.19.47-.53.47s-.62-.14-.62-.56a2,2,0,0,1,2.25-1.81,2,2,0,0,1,2.15,1.66c0,1.12-.51,1.56-1.41,2.06s-1.53.88-1.64,1.2Z" transform="translate(-4.02 -3.9)"/><path class="c" d="M72.6,77.29c1.36,0,2.25,1,2.25,3,0,1.49-.47,3.13-2.25,3.13s-2.25-1.63-2.25-3.12C70.35,78.27,71.23,77.29,72.6,77.29Zm0,5.09c.65,0,1-.53,1-2,0-1.26-.28-2-1-2s-1,.77-1,2C71.58,81.84,71.95,82.37,72.6,82.37Z" transform="translate(-4.02 -3.9)"/><path class="c" d="M76.62,79.44H75.53c-.28,0-.43-.1-.43-.45s.17-.4.61-.48l.31-.07c.94-.2.67-1.16,1.39-1.16.27,0,.49.12.49.57v4.78c0,.44-.17.74-.64.74s-.64-.3-.64-.74Z" transform="translate(-4.02 -3.9)"/><path class="c" d="M82.66,77.4c.33,0,.58.13.58.61,0,.67-1.39.92-2.25,4.72-.11.5-.23.67-.62.67s-.61-.28-.61-.64a8.87,8.87,0,0,1,2.19-4.29H79.23a.48.48,0,0,1-.54-.53.49.49,0,0,1,.56-.53Z" transform="translate(-4.02 -3.9)"/></svg>